<?xml version="1.0" encoding="utf-8"?>
<!-- Generator: Adobe Illustrator 18.0.0, SVG Export Plug-In . SVG Version: 6.00 Build 0)  -->
<!DOCTYPE svg PUBLIC "-//W3C//DTD SVG 1.1//EN" "http://www.w3.org/Graphics/SVG/1.1/DTD/svg11.dtd" [
	<!ENTITY ns_extend "http://ns.adobe.com/Extensibility/1.0/">
	<!ENTITY ns_ai "http://ns.adobe.com/AdobeIllustrator/10.0/">
	<!ENTITY ns_graphs "http://ns.adobe.com/Graphs/1.0/">
	<!ENTITY ns_vars "http://ns.adobe.com/Variables/1.0/">
	<!ENTITY ns_imrep "http://ns.adobe.com/ImageReplacement/1.0/">
	<!ENTITY ns_sfw "http://ns.adobe.com/SaveForWeb/1.0/">
	<!ENTITY ns_custom "http://ns.adobe.com/GenericCustomNamespace/1.0/">
	<!ENTITY ns_adobe_xpath "http://ns.adobe.com/XPath/1.0/">
]>
<svg version="1.1" id="Layer_1" xmlns:x="&ns_extend;" xmlns:i="&ns_ai;" xmlns:graph="&ns_graphs;"
	 xmlns="http://www.w3.org/2000/svg" xmlns:xlink="http://www.w3.org/1999/xlink" x="0px" y="0px" viewBox="0 0 86 86"
	 enable-background="new 0 0 86 86" xml:space="preserve">
<metadata>
	<sfw  xmlns="&ns_sfw;">
		<slices></slices>
		<sliceSourceBounds  width="84.7" height="84.7" y="-321.8" x="368.7" bottomLeftOrigin="true"></sliceSourceBounds>
	</sfw>
</metadata>
<g>
	<path fill="#FFFFFF" d="M43,2.1c22.6,0,40.9,18.3,40.9,40.9S65.6,83.9,43,83.9S2.1,65.6,2.1,43S20.4,2.1,43,2.1"/>
	<g>
		<g>
			<path fill="#C8D41F" d="M43,3c22.1,0,40,17.9,40,40S65.1,83,43,83S3,65.1,3,43S20.9,3,43,3 M43,0.6C19.6,0.6,0.6,19.6,0.6,43
				s19,42.4,42.4,42.4s42.4-19,42.4-42.4S66.4,0.6,43,0.6L43,0.6z"/>
		</g>
	</g>
	<g>
		<path fill="#7694A5" d="M43.7,23.8c-5.1,0-9.2,4.1-9.2,9.2c0,5.1,4.1,9.2,9.2,9.2c5.1,0,9.2-4.1,9.2-9.2
			C52.9,27.9,48.7,23.8,43.7,23.8L43.7,23.8z M43.7,38.5c-3,0-5.5-2.5-5.5-5.5c0-3,2.5-5.5,5.5-5.5c3,0,5.5,2.5,5.5,5.5
			C49.2,36.1,46.7,38.5,43.7,38.5L43.7,38.5z"/>
	</g>
	<g>
		<path fill="#664897" d="M43.7,11.8c-11.7,0-21.2,9.5-21.2,21.2c0,11.7,9.5,21.2,21.2,21.2c11.7,0,21.2-9.5,21.2-21.2l0,0
			c0-1-0.8-1.8-1.8-1.8c-1,0-1.8,0.8-1.8,1.8l0,0c0,9.7-7.9,17.6-17.6,17.6C33.9,50.6,26,42.8,26,33c0-9.7,7.9-17.6,17.6-17.6
			c1,0,1.8-0.8,1.8-1.8C45.4,12.6,44.6,11.8,43.7,11.8L43.7,11.8z"/>
	</g>
	<g>
		<path fill="#C8D41F" d="M43.7,17.8c-8.4,0-15.3,6.8-15.3,15.3c0,8.4,6.8,15.3,15.3,15.3v0c1,0,1.8-0.8,1.8-1.8
			c0-1-0.8-1.8-1.8-1.8l0,0c-6.4,0-11.6-5.2-11.6-11.6c0-6.4,5.2-11.6,11.6-11.6c6.4,0,11.6,5.2,11.6,11.6h0c0,1,0.8,1.8,1.8,1.8
			c1,0,1.8-0.8,1.8-1.8h0C58.9,24.6,52.1,17.8,43.7,17.8L43.7,17.8z"/>
	</g>
	<g>
		<path fill="#664897" d="M18.1,66c-1.9,0-3.3-1.3-3.3-3.1c0-1.8,1.3-3.1,3.3-3.1c0.7,0,1.3,0.2,1.9,0.5l-0.4,1.2
			c-0.4-0.2-0.9-0.4-1.4-0.4c-1.1,0-1.8,0.7-1.8,1.8c0,1.1,0.7,1.8,1.8,1.8c0.5,0,1-0.2,1.5-0.4l0.4,1.2C19.5,65.8,18.8,66,18.1,66z
			"/>
	</g>
	<g>
		<path fill="#664897" d="M24.3,66c-1.8,0-3-1.3-3-3.1c0-1.8,1.2-3.1,3.1-3.1c1.8,0,3,1.3,3,3.1C27.4,64.7,26.1,66,24.3,66z
			 M24.3,61.1c-0.9,0-1.6,0.8-1.6,1.8c0,1.1,0.6,1.8,1.6,1.8s1.6-0.8,1.6-1.8C25.9,61.9,25.3,61.1,24.3,61.1z"/>
	</g>
	<g>
		<path fill="#664897" d="M34.1,66l-3.6-3.2v3.1h-1.4v-6l0.2,0l3.5,3.2V60h1.4v6L34.1,66z"/>
	</g>
	<g>
		<path fill="#664897" d="M37.6,61.2v1.3h2v1.2h-2v2.2h-1.4v-6H40v1.3H37.6z"/>
	</g>
	<g>
		<path fill="#664897" d="M41.6,65.9v-6H43v6H41.6z"/>
	</g>
	<g>
		<path fill="#664897" d="M48.7,65.9l-0.4-1.1h-2.1l-0.4,1.1h-1.4l2.8-6h0.2l2.8,6H48.7z M47.2,62.4l-0.6,1.4h1.2L47.2,62.4z"/>
	</g>
	<g>
		<path fill="#664897" d="M56.4,66l-3.6-3.2v3.1h-1.4v-6l0.2,0l3.5,3.2V60h1.4v6L56.4,66z"/>
	</g>
	<g>
		<path fill="#664897" d="M60.2,64.7h2.9v1.3H58l0-0.1l2.9-4.5h-2.7V60h4.9l0,0.2L60.2,64.7z"/>
	</g>
	<g>
		<path fill="#664897" d="M68.6,65.9l-0.4-1.1h-2.1l-0.4,1.1h-1.4l2.8-6h0.2l2.8,6H68.6z M67.1,62.4l-0.6,1.4h1.2L67.1,62.4z"/>
	</g>
	<path fill="#7694A5" d="M26.6,67.9c-1.8,0-3.2,1.4-3.2,3.3c0,1.9,1.4,3.3,3.1,3.3c1.8,0,3.2-1.4,3.2-3.3
		C29.7,69.3,28.3,67.9,26.6,67.9z M26.6,68.7c1.3,0,2.2,1,2.2,2.4c0,1.4-0.9,2.4-2.2,2.4s-2.2-1-2.2-2.4
		C24.3,69.7,25.3,68.7,26.6,68.7z"/>
	<polygon fill="#7694A5" points="36.5,67.9 36.5,72.5 32.8,67.8 32.4,67.9 32.4,74.3 33.3,74.3 33.3,69.8 37,74.4 37.3,74.4 
		37.3,67.9 	"/>
	<polygon fill="#7694A5" points="41.2,73.5 41.2,67.9 40.3,67.9 40.3,74.3 44.1,74.3 44.1,73.5 	"/>
	<rect x="46.4" y="67.9" fill="#7694A5" width="0.9" height="6.4"/>
	<polygon fill="#7694A5" points="54.3,67.9 54.3,72.5 50.7,67.8 50.3,67.9 50.3,74.3 51.2,74.3 51.2,69.8 54.8,74.4 55.2,74.4 
		55.2,67.9 	"/>
	<polygon fill="#7694A5" points="62,68.8 62,67.9 58.2,67.9 58.2,74.3 62,74.3 62,73.5 59,73.5 59,71.5 61.7,71.5 61.7,70.7 
		59,70.7 59,68.8 	"/>
</g>
</svg>
