<?xml version="1.0" encoding="UTF-8"?>
<svg xmlns="http://www.w3.org/2000/svg" xmlns:xlink="http://www.w3.org/1999/xlink" width="17" height="17">
	<path fill="rgb(66,51,43)" stroke="none" transform="matrix(0.97 0 0 0.97 0.879539 0.895924)" d="M3.18026 0L13.2754 0C15.0286 0 16.4557 1.43186 16.4557 3.19302L16.4557 13.3287C16.4557 15.0899 15.0286 16.5217 13.2754 16.5217L3.18026 16.5217C1.4271 16.5217 0 15.0899 0 13.3287L0 3.19302C0 1.43186 1.4271 0 3.18026 0ZM14.5516 1.90299L14.1878 1.90493L11.7613 1.91173L11.7709 4.71231L14.5516 4.70357L14.5516 1.90299ZM5.87966 6.56479C6.40599 5.83235 7.26129 5.35247 8.22785 5.35247C9.19441 5.35247 10.0497 5.83235 10.576 6.56479C10.9195 7.04272 11.1246 7.62751 11.1246 8.26087C11.1246 9.8637 9.82523 11.1683 8.22785 11.1683C6.63143 11.1683 5.33204 9.8637 5.33204 8.26087C5.33204 7.62751 5.53715 7.04272 5.87966 6.56479ZM13.2754 14.9121C14.1452 14.9121 14.8525 14.202 14.8525 13.3287L14.8525 6.56479L12.396 6.56479C12.6069 7.08935 12.7278 7.66151 12.7278 8.26087C12.7278 10.7516 10.7096 12.7789 8.22785 12.7789C5.74711 12.7789 3.72885 10.7516 3.72885 8.26087C3.72885 7.66151 3.84786 7.08935 4.06071 6.56479L1.6032 6.56479L1.6032 13.3287C1.6032 14.202 2.31046 14.9121 3.18026 14.9121L13.2754 14.9121Z" fill-rule="evenodd"/>

</svg>