<?xml version="1.0" encoding="UTF-8"?>
<svg xmlns="http://www.w3.org/2000/svg" xmlns:xlink="http://www.w3.org/1999/xlink" width="18" height="15">
	<path fill="rgb(66,51,43)" stroke="none" transform="matrix(0.94 0 0 0.94 0.789963 0.582882)" d="M15.243 2.35082C15.9753 1.88689 16.5371 1.15125 16.8008 0.274925C16.1152 0.705569 15.3576 1.01701 14.5493 1.18561C13.9043 0.455344 12.9824 0 11.9622 0C10.0048 0 8.41866 1.68069 8.41866 3.75337C8.41866 4.04762 8.44807 4.33436 8.50892 4.60821C5.56376 4.45142 2.95226 2.95866 1.20281 0.686238C0.897544 1.24253 0.723106 1.88689 0.723106 2.5742C0.723106 3.8758 1.34885 5.0249 2.30015 5.69932C1.71902 5.67999 1.17238 5.50923 0.693695 5.23001L0.693695 5.27619C0.693695 7.09542 1.91476 8.61288 3.53845 8.95653C3.24029 9.0446 2.92792 9.08863 2.60338 9.08863C2.3752 9.08863 2.15208 9.06607 1.93707 9.02204C2.38737 10.5127 3.69666 11.5995 5.24835 11.6285C4.03438 12.6358 2.50602 13.2351 0.845821 13.2351C0.559824 13.2351 0.276869 13.2189 0 13.1835C1.56893 14.2478 3.43196 14.8696 5.43394 14.8696C11.9551 14.8696 15.5189 9.14984 15.5189 4.18938C15.5189 4.02614 15.5169 3.86398 15.5098 3.70397C16.2024 3.17452 16.8049 2.51298 17.2785 1.76016C16.6426 2.05871 15.959 2.26061 15.243 2.35082Z"/>

</svg>