<svg xmlns="http://www.w3.org/2000/svg" width="30" height="20" viewBox="0 0 30 20">
    <g fill="#FFF" fill-rule="evenodd">
        <path d="M9.429 8.247c-.005.056-.01.103-.01.148 0 1.133.005 3.586.005 3.586h5.031c0 .37-.442 1.853-1.847 2.796-.825.55-1.751.806-2.733.868a5.571 5.571 0 0 1-2.038-.234 5.612 5.612 0 0 1-3.875-4.831 5.248 5.248 0 0 1 .114-1.685c.624-2.705 3.213-4.71 6.182-4.277 1.315.192 2.072.734 2.761 1.317.91-.9 1.81-1.79 2.734-2.707-.224-.16-.743-.68-1.664-1.208A9.025 9.025 0 0 0 9.629.821c-.3-.005-.6.014-.898.026a7.46 7.46 0 0 0-1.549.239c-2.033.512-3.72 1.568-5.042 3.18C.869 5.812.186 7.59.06 9.573a8.68 8.68 0 0 0 .199 2.503c.53 2.302 1.75 4.159 3.676 5.554 1.492 1.08 3.174 1.656 5.018 1.756 1.038.057 2.07-.038 3.08-.3 1.884-.487 3.449-1.458 4.625-3.005 1.7-2.24 2.114-5.11 1.61-7.835h-8.84zM29.636 8.369H26.45V5.126h-2.566V8.37h-3.278v2.536h3.278v3.241h2.566v-3.241h3.279V8.37z"/>
    </g>
</svg>
