<svg xmlns="http://www.w3.org/2000/svg" width="28" height="28" viewBox="0 0 28 28">
    <path fill="#FCCB1B" fill-rule="evenodd" d="M25.438 19.031c1.04 1.022 1.562 2.26 1.562 3.72 0 1.458-.521 2.696-1.562 3.718C24.395 27.489 23.13 28 21.642 28s-2.753-.51-3.794-1.531c-1.042-1.022-1.564-2.26-1.564-3.718 0-.402.039-.785.113-1.15l-5.692-3.5c-.967.767-2.083 1.148-3.349 1.148-1.488 0-2.753-.51-3.794-1.53C2.522 16.7 2 15.46 2 14c0-1.458.521-2.698 1.562-3.718C4.603 9.26 5.868 8.75 7.356 8.75c1.266 0 2.382.382 3.35 1.148l5.691-3.5a5.75 5.75 0 0 1-.113-1.148c0-1.459.522-2.698 1.564-3.72C18.889.511 20.154 0 21.642 0s2.753.51 3.796 1.531C26.478 2.553 27 3.792 27 5.251c0 1.458-.521 2.698-1.562 3.718-1.043 1.02-2.308 1.531-3.796 1.531-1.265 0-2.38-.383-3.348-1.148l-5.691 3.5a5.974 5.974 0 0 1 0 2.296l5.69 3.5c.969-.765 2.084-1.148 3.35-1.148 1.487 0 2.752.51 3.795 1.531z"/>
</svg>
