<svg xmlns="http://www.w3.org/2000/svg" width="36" height="36" viewBox="0 0 36 36">
    <g fill="none" fill-rule="evenodd">
        <path fill="#000" d="M0 0h36v36H0z"/>
        <path fill="#FFF" d="M28.438 23.031c1.04 1.022 1.562 2.26 1.562 3.72 0 1.458-.521 2.696-1.562 3.718C27.395 31.489 26.13 32 24.642 32s-2.753-.51-3.794-1.531c-1.042-1.022-1.564-2.26-1.564-3.718 0-.402.039-.785.113-1.15l-5.692-3.5c-.967.767-2.083 1.148-3.349 1.148-1.488 0-2.753-.51-3.794-1.53C5.522 20.7 5 19.46 5 18c0-1.458.521-2.698 1.562-3.718 1.041-1.022 2.306-1.531 3.794-1.531 1.266 0 2.382.382 3.35 1.148l5.691-3.5a5.75 5.75 0 0 1-.113-1.148c0-1.459.522-2.698 1.564-3.72C21.889 4.511 23.154 4 24.642 4s2.753.51 3.796 1.531C29.478 6.553 30 7.792 30 9.251c0 1.458-.521 2.698-1.562 3.718-1.043 1.02-2.308 1.531-3.796 1.531-1.265 0-2.38-.383-3.348-1.148l-5.691 3.5a5.974 5.974 0 0 1 0 2.296l5.69 3.5c.969-.765 2.084-1.148 3.35-1.148 1.487 0 2.752.51 3.795 1.531z"/>
    </g>
</svg>
