<svg xmlns="http://www.w3.org/2000/svg" width="23" height="22" viewBox="0 0 23 22">
    <g fill="#FFF" fill-rule="evenodd">
        <path d="M3.505.411c1.447 0 2.619 1.16 2.619 2.587 0 1.429-1.172 2.59-2.619 2.59-1.45 0-2.621-1.161-2.621-2.59C.884 1.571 2.055.411 3.505.411zm-2.262 21.5h4.523V7.549H1.243v14.364zM8.6 7.549h4.331v1.964h.059c.604-1.13 2.077-2.32 4.276-2.32 4.572 0 5.415 2.973 5.415 6.841v7.878h-4.513v-6.983c0-1.667-.032-3.809-2.347-3.809-2.35 0-2.709 1.814-2.709 3.687v7.105H8.6V7.549z"/>
    </g>
</svg>
