<svg xmlns="http://www.w3.org/2000/svg" width="24" height="24" viewBox="0 0 24 24">
    <g fill="none" fill-rule="evenodd">
        <path d="M0 0h24v24H0z"/>
        <path fill="#000" fill-rule="nonzero" d="M7 18c-1.1 0-1.99.9-1.99 2S5.9 22 7 22s2-.9 2-2-.9-2-2-2zm10 0c1.1 0 2 .9 2 2s-.9 2-2 2-1.99-.9-1.99-2 .89-2 1.99-2zM3.64 2c.38 0 .74.22.9.57L5.216 4H20a1 1 0 0 1 .762 1.647.953.953 0 0 1-.082.193l-3.38 6.13c-.34.62-1 1.03-1.75 1.03H8.1L7 15h11c.55 0 1 .45 1 1s-.45 1-1 1H7c-1.52 0-2.48-1.63-1.75-2.97l1.35-2.44L3 4H2c-.55 0-1-.45-1-1s.45-1 1-1zm14.674 4H6.163l2.367 5h7.02l2.764-5z"/>
    </g>
</svg>
