<svg xmlns="http://www.w3.org/2000/svg" width="24" height="19" viewBox="0 0 24 19">
    <path fill="#FFF" fill-rule="evenodd" d="M21.233 3.392l.016-.093c.464-.366 1.636-1.486 1.79-2.01.068-.227-.012-.305-.012-.313l-1.496.625-1.252.554c-.864-.898-2.173-1.47-3.635-1.47-2.603 0-4.713 1.81-4.713 4.046 0 .408.062 1.154.193 1.526-1.676-.045-3.824-.72-5.737-1.673-3.774-1.878-4.01-3.178-4.01-3.178-.593.618-.898 2.665-.297 4.27.384 1.028 1.706 1.95 1.706 1.95s-.591.01-1.21-.195c-.62-.205-.854-.41-.854-.41-.368.883.371 2.459 1.648 3.589.744.66 2.103 1.073 2.103 1.073l-2.123.058c-.12 2.028 4.328 3.233 4.328 3.233-1.303.985-2.816 1.585-4.437 1.585-.84 0-1.653-.123-2.424-.35 2.143 1.735 4.896 2.932 7.89 2.778 7.942-.41 12.425-7.118 12.638-13.706l.01.014s.373-.183 1.169-.965a8.078 8.078 0 0 0 1.29-1.696s-1.19.508-1.689.643c-.5.136-.892.115-.892.115z"/>
</svg>
