<svg height="67" viewBox="0 0 240 67" width="240" xmlns="http://www.w3.org/2000/svg"><g fill="none" transform="translate(-1)"><g transform="translate(86 11)"><g fill="#00b088"><path d="m2.67133157 50.9601885c-.20940553-.1453847-.35711751-.4108846-.35711751-.7016539 0-.4835769.39413364-.8588077.88697695-.8588077.24642166 0 .41881106.0844616.54184563.1689231.65289401.4721539 1.36748156.7629231 2.20510368.7629231.77592857 0 1.24409447-.3028846 1.24409447-.7985769v-.0242308c0-.4721539-.2957765-.7141154-1.73693779-1.0765385-1.73693778-.4354615-2.85764516-.9072692-2.85764516-2.5885384v-.024577c0-1.5358846 1.25608065-2.5521923 3.01804839-2.5521923 1.04702765 0 1.95832949.2665385 2.7346106.7504616.20940553.1211538.41881106.3745384.41881106.7376538 0 .4842692-.39413364.8588077-.88697696.8588077-.18472811 0-.33279263-.0481154-.48050461-.1332692-.62821659-.3624231-1.21941705-.5680385-1.81061751-.5680385-.72692627 0-1.1087212.3267692-1.1087212.7376539v.0242307c0 .5566154.36945622.7376539 1.85997235 1.1128847 1.7492765.4475769 2.7346106 1.064423 2.7346106 2.5400769v.0238846c0 1.6812692-1.30578802 2.6252308-3.16576037 2.6252308-1.13304608 0-2.27878341-.3388847-3.23979262-1.0163077"/><path d="m13.0804081 44.2710077c0-.5199231.418811-.9308077.9486705-.9308077h.2094055c.4064724 0 .6899101.2052692.861947.4832308l2.2914747 3.6650769 2.3038133-3.6771923c.1967143-.3143077.4678134-.4711154.8499609-.4711154h.2094055c.5291544 0 .948318.4108846.948318.9308077v6.7257692c0 .5199231-.4191636.9308077-.948318.9308077-.5175208 0-.9366843-.4233461-.9366843-.9308077v-4.2216923l-1.6629056 2.5158462c-.1970668.2900769-.4431359.4718077-.7882673.4718077-.3447788 0-.5912004-.1817308-.7882672-.4718077l-1.6385807-2.4798462v4.2092308c0 .5085-.418811.9072692-.9359792.9072692-.5175208 0-.9239931-.3987692-.9239931-.9072692z"/><path d="m30.9787641 48.3112808-1.1947397-2.7941539-1.1947396 2.7941539zm-5.333848 2.3465769 3.0057097-6.6648462c.2094055-.4596923.5912005-.7373076 1.1087212-.7373076h.1106959c.5175207 0 .8869769.2776153 1.096735.7373076l3.0053571 6.6648462c.0616936.1325769.0987097.2537308.0987097.3745385 0 .4963846-.3941336.8951538-.8989631.8951538-.443841 0-.739265-.2540769-.9116544-.6407308l-.5792143-1.3306153h-3.7943295l-.6031866 1.3908461c-.1604033.3627692-.4805046.5805-.8746383.5805-.4928433 0-.8746382-.3866538-.8746382-.8705769 0-.1332692.0490023-.2665385.1106958-.3991154z"/><path d="m41.7327956 47.5006577c.9236406 0 1.4535-.4832308 1.4535-1.1973462v-.0242307c0-.798577-.566523-1.2094616-1.4905161-1.2094616h-1.8846498v2.4310385zm-3.8186544-3.1808077c0-.5199231.4184586-.9318462.948318-.9318462h2.9937235c1.09603 0 1.9459908.3028847 2.5128664.8595.4801521.4711154.7389124 1.1364231.7389124 1.9346539v.0245769c0 1.3302692-.6775714 2.1523846-1.7242465 2.5764231l1.3177742 1.5718846c.1847281.2298462.3081152.4233462.3081152.7141154 0 .5199231-.443841.8584615-.8993157.8584615-.4311498 0-.7145875-.2056154-.9363318-.4839231l-1.8476336-2.2981153h-1.5151936v1.8512307c0 .5199231-.4191636.9308077-.9486705.9308077-.5298594 0-.948318-.4108846-.948318-.9308077z"/><path d="m51.1810039 45.106h-1.8233087c-.4801521 0-.8742858-.3873462-.8742858-.8584615 0-.4721539.3941337-.8595.8742858-.8595h5.543606c.480152 0 .8742857.3873461.8742857.8595 0 .4711153-.3941337.8584615-.8742857.8584615h-1.8233088v5.8908461c0 .5199231-.4188111.9308077-.9486705.9308077-.5295069 0-.948318-.4108846-.948318-.9308077z"/><path d="m65.5564115 44.2710077c0-.5199231.4184585-.9308077.948318-.9308077h.1970668c.4558272 0 .7269263.2173846.9856866.5441539l3.6586037 4.7170384v-4.3663846c0-.5081538.4184586-.9193846.9359793-.9193846s.9363318.4112308.9363318.9193846v6.7371923c0 .5199231-.4188111.9311539-.9486705.9311539h-.0616936c-.4554746 0-.7265737-.2177308-.9853341-.5441539l-3.7939769-4.887v4.536c0 .5085-.4188111.9193846-.9363318.9193846-.5175208 0-.9359793-.4108846-.9359793-.9193846z"/><path d="m77.5047244 48.2267846v-3.9793846c0-.5206154.4188111-.9318461.948318-.9318461.5298594 0 .9486705.4112307.9486705.9318461v3.9305769c0 1.3794231.7022489 2.0925 1.8599724 2.0925 1.158076 0 1.8603248-.6895384 1.8603248-2.0322692v-3.9908077c0-.5206154.4188111-.9318461.948318-.9318461.5298595 0 .9486705.4112307.9486705.9318461v3.9184615c0 2.5643077-1.4658387 3.822577-3.7816382 3.822577-2.3157996 0-3.732636-1.2703847-3.732636-3.7616539"/><path d="m91.3138205 45.106h-1.8233087c-.4801521 0-.8742858-.3873462-.8742858-.8584615 0-.4721539.3941337-.8595.8742858-.8595h5.5436059c.4801521 0 .8742858.3873461.8742858.8595 0 .4711153-.3941337.8584615-.8742858.8584615h-1.8233087v5.8908461c0 .5199231-.4188111.9308077-.9486705.9308077-.5295069 0-.948318-.4108846-.948318-.9308077z"/><path d="m103.459729 47.5006577c.923641 0 1.4535-.4832308 1.4535-1.1973462v-.0242307c0-.798577-.566523-1.2094616-1.490516-1.2094616h-1.88465v2.4310385zm-3.8186543-3.1808077c0-.5199231.4184583-.9318462.9483183-.9318462h2.993723c1.09603 0 1.945991.3028847 2.512866.8595.480153.4711154.738913 1.1364231.738913 1.9346539v.0245769c0 1.3302692-.677571 2.1523846-1.724599 2.5764231l1.318127 1.5718846c.184728.2298462.308115.4233462.308115.7141154 0 .5199231-.443489.8584615-.899316.8584615-.43115 0-.714587-.2056154-.936332-.4839231l-1.847633-2.2981153h-1.515194v1.8512307c0 .5199231-.419164.9308077-.94867.9308077-.52986 0-.9483183-.4108846-.9483183-.9308077z"/><path d="m110.985848 44.2473654c0-.5206154.418811-.9315.948318-.9315.52986 0 .948671.4108846.948671.9315v6.7493077c0 .519923-.418811.9308077-.948671.9308077-.529507 0-.948318-.4108847-.948318-.9308077z"/><path d="m119.399544 45.106h-1.823309c-.480152 0-.874285-.3873462-.874285-.8584615 0-.4721539.394133-.8595.874285-.8595h5.543606c.480152 0 .874286.3873461.874286.8595 0 .4711153-.394134.8584615-.874286.8584615h-1.823309v5.8908461c0 .5199231-.418811.9308077-.94867.9308077-.529507 0-.948318-.4108846-.948318-.9308077z"/><path d="m127.812852 44.2473654c0-.5206154.418811-.9315.948318-.9315.529859 0 .94867.4108846.94867.9315v6.7493077c0 .519923-.418811.9308077-.94867.9308077-.529507 0-.948318-.4108847-.948318-.9308077z"/><path d="m141.018091 47.6460077v-.0242308c0-1.4517692-1.084043-2.6612308-2.611576-2.6612308-1.527532 0-2.586898 1.1852308-2.586898 2.6366539v.0245769c0 1.4514231 1.084044 2.6608846 2.611576 2.6608846s2.586898-1.1852307 2.586898-2.6366538m-7.181834 0v-.0242308c0-2.4068077 1.934005-4.3785 4.594936-4.3785s4.570258 1.9471154 4.570258 4.3539231v.0245769c0 2.4068077-1.934005 4.3781539-4.594936 4.3781539-2.66093 0-4.570258-1.9471154-4.570258-4.3539231"/><path d="m147.041814 44.2710077c0-.5199231.418459-.9308077.948318-.9308077h.197067c.455827 0 .726926.2173846.985687.5441539l3.658603 4.7170384v-4.3663846c0-.5081538.418459-.9193846.93598-.9193846.51752 0 .936331.4112308.936331.9193846v6.7371923c0 .5199231-.418811.9311539-.94867.9311539h-.061341c-.455827 0-.726926-.2177308-.985687-.5441539l-3.793977-4.887v4.536c0 .5085-.418811.9193846-.936331.9193846-.517521 0-.93598-.4108846-.93598-.9193846z"/></g><path d="m118.524985.77343962h-6.73424v14.93927358l6.73424-6.66383962zm-24.196519 25.50067928 8.0361-8.0345849c-2.248027-.8349434-4.8622905-.3501038-6.6238778 1.4101886-1.7974376 1.7986887-2.2680612 4.396717-1.4122222 6.6243963zm-13.5155782-5.9824812c-.6723697-1.4998962-2.804059-2.4294339-4.8334694-2.4294339-3.3843424 0-6.1367347 2.7928019-6.1367347 6.204132 0 3.4120284 2.789297 6.2048302 6.1736394 6.2048302 2.0304649 0 4.124195-.9302358 4.7965647-2.430132zm-23.5146599 3.7746981c0-3.4113301-2.810737-6.204132-6.2481519-6.204132-3.437415 0-6.248152 2.7928019-6.248152 6.204132 0 3.4120284 2.810737 6.2048302 6.248152 6.2048302 3.4374149 0 6.2481519-2.7928018 6.2481519-6.2048302zm-24.9114172 0c0-3.4113301-2.8121429-6.204132-6.2478005-6.204132-3.4370635 0-6.2492063 2.7928019-6.2492063 6.204132 0 3.4120284 2.8121428 6.2048302 6.2492063 6.2048302 3.4356576 0 6.2478005-2.7928018 6.2478005-6.2048302zm89.5833223-3.4340188 11.467188 15.589217h-8.280023l-6.632313-8.9937925v8.9937925h-6.73424v-5.8931227l-2.618129 2.632934.120555-.0837736h-.030227c-5.027483 5.3503396-13.2470517 5.1321792-18.303707.1466038-1.611508-1.5899529-2.7393878-3.397717-3.4121089-5.4208491v8.6182076h-6.7342403v-1.553651c-1.3464966 1.3955283-3.1832994 2.2224434-5.9420182 2.2224434-5.1290589 0-9.9428458-4.2152075-11.2643877-9.8737641-1.3436848 5.6585566-6.4488436 9.8737641-12.5574604 9.8737641-5.9676757 0-10.9754761-4.0246226-12.4555328-9.4873585-1.4807597 5.4627359-6.4882087 9.4873585-12.4565873 9.4873585-7.1349207 0-12.9156123-5.7398868-12.9156123-12.8239906 0-7.0834056 5.7743651-12.8232924 12.9089343-12.8232924 5.9676757 0 10.9659864 4.0242736 12.4446371 9.4849151 1.4814626-5.4606415 6.4692291-9.4849151 12.4372563-9.4849151 6.1089682 0 11.1761678 4.2141604 12.5184467 9.8741132 1.3215419-5.6599528 6.2112472-9.8741132 11.3403061-9.8741132 2.7587188 0 4.5955216.8258679 5.9420182 2.2734057v-12.74300948h6.7342403v19.65712268c.6727211-1.9903208 1.7770522-3.8644057 3.3516553-5.4393491 5.0278345-5.02536792 13.3155896-5.04700943 18.3775166-.0541038.663232.6558774 1.108901 1.1766698 1.662121 1.9435472l-12.9890707 13.0082925c2.2473247.8338962 4.8612357.3944339 6.6569157-1.4046038l16.544581-16.3403868h9.425828zm26.18797-.3406793c-1.347551-1.4998962-2.962925-2.4294339-4.991281-2.4294339-3.383288 0-6.293492 2.7928019-6.293492 6.204132 0 3.4120284 2.893333 6.2048302 6.278027 6.2048302 2.032222 0 3.659195-.9302358 5.006746-2.430132zm6.734241-8.1476792v24.0775755h-6.734241v-1.553651c-1.347551 1.3955283-3.377313 2.2224434-6.136735 2.2224434-5.988412 0-11.811632-5.7398868-11.811632-12.8239906 0-7.0834056 5.808458-12.8232924 11.795816-12.8232924 2.758368 0 4.805.8258679 6.152551 2.2734057v-1.3724906zm-141.4239687 6.6886226h-4.04054423v17.3889529h-6.73459184v-17.3889529h-2.69334467v-6.6886226h2.69334467v-2.9174151c0-4.86166038 2.83639456-9.20462265 8.25155327-9.20462265.6249207 0 1.8501587.15463208 2.5235828.61957548v6.25718868c-.6734241-.15533019-1.0312245-.25830189-1.4480726-.25830189-1.3004535 0-2.59247163 1.18888679-2.59247163 2.58616038v2.9174151h4.04054423z" fill="#1c242c"/></g><path d="m26.9466927 37.547712h-.5970732c-1.3125073 0-2.3854829 1.0723508-2.3854829 2.3832356v24.3150367c0 1.3112356 1.0729756 2.3839372 2.3854829 2.3839372h.5970732c1.3128585 0 2.3865366-1.0727016 2.3865366-2.3839372v-24.3150367c0-1.3108848-1.0736781-2.3832356-2.3865366-2.3832356" fill="#00b088"/><path d="m36.3185639 45.0978403c-1.3121561 0-2.3865366 1.0730524-2.3865366 2.3839372v16.7643822c0 1.3108848 1.0743805 2.3839372 2.3865366 2.3839372h.5974244c1.3121561 0 2.3858341-1.0730524 2.3858341-2.3839372v-16.7643822c0-1.3108848-1.073678-2.3839372-2.3858341-2.3839372z" fill="#ffa300"/><path d="m46.883879 33.1785052h-.5974244c-1.3121561 0-2.3865366 1.0716493-2.3865366 2.3832356v28.6844189c0 1.3108848 1.0743805 2.3839372 2.3865366 2.3839372h.5974244c1.3125073 0 2.3861854-1.0730524 2.3861854-2.3839372v-28.6844189c0-1.3115863-1.0736781-2.3832356-2.3861854-2.3832356" fill="#ff5959"/><path d="m58.18672 15.0161031c-4.1426341-1.2477434-6.6046829-1.0186806-9.204761-.263089-4.1489561 1.206-6.5267122 4.2385393-7.8002341 5.9237121-.2764098.3662199-.7698732.2402879-.9363512.2002984-.1657757-.0396387-.6585366-.4090157-.0439025-2.1776754.3849366-1.1074293.6195512-1.553979 2.0486634-3.5664345.8928-1.2568639 2.9934439-3.5453875 6.3964098-5.2915969-3.2083903-2.78348167-7.3345171-4.36727749-11.6931512-4.36727749-7.609522 0-14.3926244 4.82505239-16.8789073 12.00843459l-.6609952 1.9275654s-.4060097-.0978691-1.808078-.0985707c-6.0392195-.003157-11.19828294 5.1719791-11.19828294 11.447178 0 5.9244137 4.57709264 11.0086964 10.52569754 11.458754 1.4161171.1308429 2.4873366-.0705079 2.4873366-.0705079l.0059707 22.1419215c0 1.3112356-1.073678 2.3839372-2.3858341 2.3839372h-.5977756c-1.3125073 0-2.3861854-1.0723508-2.3861854-2.3835864v-3.2531833l-.0242341-13.8875916c-7.45709272-1.766555-12.99441955-8.5395183-12.99441955-16.3897435 0-8.5903822 6.28472195-15.6025811 14.61002925-16.6924712 3.6586537-8.4170942 12.0071415-13.95529315 21.3056781-13.95529315 7.3454048 0 14.1927805 3.44295811 18.5763512 9.27581675.5925073.06594764 1.1779902.15574869 1.7539902.27326178 8.9525854 1.78269112 15.583961 9.62134032 15.583961 19.04062832 0 8.5458324-5.5980878 16.0105445-13.5914927 18.5242722l-.0252878 17.0639529c0 1.3112356-1.0726244 2.3839372-2.3851317 2.3839372h-.5974244c-1.3128585 0-2.3865366-1.0727016-2.3865366-2.3839372l.017561-21.578911s2.1891512.0182408 4.8545561-1.0895393c3.2888195-1.4206806 8.7832976-5.3231675 8.7832976-13.6543194 0-6.7964659-5.5162537-11.795157-9.3505171-12.9499424" fill="#1c242c"/></g></svg>