<svg height="102" viewBox="0 0 137 102" width="137" xmlns="http://www.w3.org/2000/svg"><g fill="none"><path d="m104.760793 61.8068526h-5.9521991v11.7215839l5.9521991-5.2285511zm-21.3866005 20.0082253 7.1028753-6.3040589c-1.986966-.6551095-4.2976372-.2746969-5.8546531 1.1064557-1.5887029 1.4112788-2.0046734 3.4497318-1.2482222 5.1976032zm-11.9460272-4.6939468c-.594288-1.1768416-2.4784263-1.9061712-4.2721633-1.9061712-2.991322 0-5.4240816 2.1912753-5.4240816 4.8678575 0 2.6771299 2.4653787 4.8684052 5.4567007 4.8684052 1.7946689 0 3.6452562-.7298774 4.2395442-1.906719zm-20.7839252 2.9616863c0-2.6765822-2.4843288-4.8678575-5.5225601-4.8678575-3.0382312 0-5.52256 2.1912753-5.52256 4.8678575 0 2.6771299 2.4843288 4.8684052 5.52256 4.8684052 3.0382313 0 5.5225601-2.1912753 5.5225601-4.8684052zm-22.0184784 0c0-2.6765822-2.4855715-4.8678575-5.5222495-4.8678575-3.0379206 0-5.523492 2.1912753-5.523492 4.8678575 0 2.6771299 2.4855714 4.8684052 5.523492 4.8684052 3.036678 0 5.5222495-2.1912753 5.5222495-4.8684052zm79.1800973-2.6943841 10.135515 12.2315395h-7.318472l-5.862109-7.0566679v7.0566679h-5.9521991v-4.6238347l-2.3140885 2.0658405.1065556-.06573h-.0267166c-4.4436462 4.1979587-11.7086848 4.0267868-16.1781156.1150275-1.4243651-1.2475014-2.4212653-2.665901-3.0158639-4.2532815v6.7619782h-5.9521996v-1.2190184c-1.1901292 1.0949529-2.8136258 1.7437632-5.2519773 1.7437632-4.5334263 0-8.7881928-3.3073166-9.9562653-7.7471072-1.187644 4.4397906-5.6999456 7.7471072-11.0991746 7.7471072-5.2746554 0-9.7009048-3.1577808-11.0090839-7.4439274-1.3088005 4.2861466-5.7347393 7.4439274-11.0100159 7.4439274-6.3063492 0-11.4157347-4.5036034-11.4157347-10.0619002 0-5.5577491 5.1037937-10.0613526 11.4098322-10.0613526 5.2746553 0 9.692517 3.157507 10.9994535 7.4420103 1.3094218-4.2845033 5.7179637-7.4420103 10.9929297-7.4420103 5.3995397 0 9.8782903 3.3064951 11.0646916 7.7473812 1.1680726-4.4408861 5.4899411-7.7473812 10.0233674-7.7473812 2.4383515 0 4.0618481.6479887 5.2519773 1.7837491v-9.9983613h5.9521996v15.4232809c.5945986-1.5616363 1.5706848-3.0320722 2.9624308-4.267797 4.4439569-3.942981 11.769263-3.9599612 16.2433537-.0424506.5862109.5146114.9801247.9232332 1.4690998 1.524937l-11.4806621 10.2065064c1.9863446.6542878 4.2967052.3094789 5.8838549-1.1020738l14.623274-12.8209188h8.331216zm23.146787-.2673022c-1.191061-1.1768416-2.618844-1.9061712-4.411648-1.9061712-2.990391 0-5.562635 2.1912753-5.562635 4.8678575 0 2.6771299 2.557333 4.8684052 5.548966 4.8684052 1.796222 0 3.234256-.7298774 4.425317-1.906719zm5.9522-6.3927944v18.8916361h-5.9522v-1.2190184c-1.191061 1.0949529-2.985109 1.7437632-5.424082 1.7437632-5.292984 0-10.439959-4.5036034-10.439959-10.0619002 0-5.5577491 5.133928-10.0613526 10.42598-10.0613526 2.438041 0 4.247.6479887 5.438061 1.7837491v-1.0768772zm-125.0005401 5.2479962h-3.57131973v13.6436399h-5.95251021v-13.6436399h-2.38056916v-5.2479962h2.38056916v-2.2890488c0-3.8145335 2.50700681-7.2220885 7.29330839-7.2220885.55234925 0 1.63530155.1213267 2.23052155.4861284v4.9094865c-.59522-.1218744-.9114694-.2026676-1.2799093-.2026676-1.14943311 0-2.29141043.9328188-2.29141043 2.0291412v2.2890488h3.57131973z" fill="#1c242c"/><g fill="#00b088" transform="translate(1.767742 94.938462)"><path d="m.59337048 6.24568633c-.18508747-.114071-.3156458-.32238639-.3156458-.5505284 0-.37942189.34836328-.67383373.78397318-.67383373.21780495 0 .37017494.06626982.47892162.13253965.57707406.37045917 1.20867725.59860118 1.94902713.59860118.68582074 0 1.09961898-.23764793 1.09961898-.62657574v-.01901183c0-.37045918-.26142826-.56030592-1.53522888-.84466864-1.53522889-.34166983-2.5257896-.7118574-2.5257896-2.0310071v-.01928344c0-1.20507869 1.11021322-2.00248934 2.66756535-2.00248934.92543734 0 1.73091059.20913017 2.41704292.58882366.18508747.09505918.37017494.29386864.37017494.57877456 0 .37996509-.34836329.67383373-.78397319.67383373-.16327581 0-.29414574-.03775207-.42470407-.10456509-.55526241-.28436272-1.07780733-.44569172-1.60035225-.44569172-.64250903 0-.97996648.25638817-.97996648.57877456v.01901183c0 .436729.32655163.57877456 1.64397556.87318639 1.54613471.35117574 2.41704292.83516273 2.41704292 1.99298344v.01874023c0 1.31914971-1.15414812 2.05979645-2.79812368 2.05979645-1.00146654 0-2.0141505-.26589408-2.86355865-.79741065"/><path d="m9.793651.99725219c0-.40793965.3701749-.73032604.8385023-.73032604h.1850875c.3592691 0 .6097915.1610574.7618499.3791503l2.0253679 2.87567574 2.0362738-2.88518166c.17387-.24661065.4134866-.36964438.7512557-.36964438h.1850875c.4677041 0 .8381907.32238639.8381907.73032604v5.27714201c0 .40793965-.3704866.73032604-.8381907.73032604-.4574216 0-.8279081-.33216391-.8279081-.73032604v-3.31240473l-1.469794 1.9739716c-.1741816.22759881-.3916749.37018757-.6967265.37018757-.30474 0-.5225449-.14258876-.6967266-.37018757l-1.4482938-1.94572545v3.30262722c0 .39897692-.370175.7118574-.8272849.7118574-.4574216 0-.8166907-.31288048-.8166907-.7118574z"/><path d="m25.6134882 4.1673126-1.0559956-2.19233609-1.0559957 2.19233609zm-4.7144333 1.84116036 2.6566595-5.22934083c.1850875-.36068166.5225449-.57850296.9799665-.57850296h.0978409c.4574215 0 .7839731.2178213.9693722.57850296l2.6563479 5.22934083c.0545292.10402189.0872466.19908106.0872466.29386864 0 .389471-.3483632.70235148-.7945674.70235148-.3922982 0-.6534148-.19935267-.8057848-.50272722l-.5119507-1.0440213h-3.3536977l-.5331391 1.09127929c-.1417758.28463432-.4247041.45546923-.7730674.45546923-.4356099 0-.7730673-.30337456-.7730673-.68306805 0-.10456509.0433117-.20913018.0978408-.31315207z"/><path d="m35.1186645 3.53128527c.8163791 0 1.2847065-.3791503 1.2847065-.93945622v-.01901183c0-.62657574-.5007333-.94896213-1.317424-.94896213h-1.6657872v1.90743018zm-3.3751977-2.49571065c0-.40793965.3698633-.73114083.8381907-.73114083h2.6460653c.968749 0 1.7200047.23764793 2.2210496.67437692.4243925.36964438.6531033.89165503.6531033 1.51795917v.01928343c0 1.04374971-.5988857 1.68879409-1.5240115 2.02150119l1.1647424 1.23332485c.1632758.18034083.272334.3321639.272334.56030592 0 .40793964-.3922981.67356213-.794879.67356213-.3810807 0-.6316032-.161329-.8275965-.37969349l-1.6330697-1.80313669h-1.3392356v1.45250414c0 .40793965-.3704865.73032604-.8385023.73032604-.4683274 0-.8381907-.32238639-.8381907-.73032604z"/><path d="m43.4696615 1.6524h-1.6115696c-.4243925 0-.7727558-.30391775-.7727558-.67356213 0-.37045917.3483633-.67437692.7727558-.67437692h4.8998323c.4243925 0 .7727558.30391775.7727558.67437692 0 .36964438-.3483633.67356213-.7727558.67356213h-1.6115696v4.62204852c0 .40793965-.370175.73032604-.8385023.73032604-.4680158 0-.8381908-.32238639-.8381908-.73032604z"/><path d="m56.175667.99725219c0-.40793965.3698633-.73032604.8381907-.73032604h.1741816c.4028924 0 .642509.17056332.8712198.42695148l3.2337336 3.70106095v-3.42593254c0-.39870533.3698633-.72136332.8272849-.72136332s.8275965.32265799.8275965.72136332v5.28610473c0 .40793964-.3701749.73059763-.8385023.73059763h-.0545292c-.4025808 0-.6421974-.17083491-.8709082-.42695148l-3.3533861-3.83441538v3.55901538c0 .39897693-.3701749.72136332-.8275964.72136332-.4574216 0-.8272849-.32238639-.8272849-.72136332z"/><path d="m66.7364338 4.10101562v-3.12228639c0-.40848284.370175-.73114083.8381908-.73114083.4683274 0 .8385023.32265799.8385023.73114083v3.08399113c0 1.08231656.6206974 1.64180769 1.6439755 1.64180769 1.0235898 0 1.6442872-.54102249 1.6442872-1.59454971v-3.13124911c0-.40848284.3701749-.73114083.8381907-.73114083.4683274 0 .8385023.32265799.8385023.73114083v3.07448521c0 2.01199526-1.2956122 2.99925266-3.3424802 2.99925266s-3.2991686-.99676331-3.2991686-2.95145148"/><path d="m78.941893 1.6524h-1.6115697c-.4243925 0-.7727558-.30391775-.7727558-.67356213 0-.37045917.3483633-.67437692.7727558-.67437692h4.8998324c.4243925 0 .7727557.30391775.7727557.67437692 0 .36964438-.3483632.67356213-.7727557.67356213h-1.6115697v4.62204852c0 .40793965-.3701749.73032604-.8385023.73032604-.4680158 0-.8381907-.32238639-.8381907-.73032604z"/><path d="m89.6773089 3.53128527c.8163791 0 1.2847064-.3791503 1.2847064-.93945622v-.01901183c0-.62657574-.5007332-.94896213-1.3174239-.94896213h-1.6657872v1.90743018zm-3.3751978-2.49571065c0-.40793965.3698634-.73114083.8381908-.73114083h2.6460653c.968749 0 1.7200047.23764793 2.2210496.67437692.4243925.36964438.6531032.89165503.6531032 1.51795917v.01928343c0 1.04374971-.5988857 1.68879409-1.524323 2.02150119l1.1650539 1.23332485c.1632758.18034083.2723341.3321639.2723341.56030592 0 .40793964-.3919866.67356213-.794879.67356213-.3810808 0-.6316032-.161329-.8275965-.37969349l-1.6330697-1.80313669h-1.3392356v1.45250414c0 .40793965-.3704865.73032604-.8385023.73032604-.4683274 0-.8381908-.32238639-.8381908-.73032604z"/><path d="m96.3294273.97870207c0-.40848284.3701749-.73086923.8381907-.73086923.4683274 0 .8385023.32238639.8385023.73086923v5.29561065c0 .40793965-.3701749.73032604-.8385023.73032604-.4680158 0-.8381907-.32238639-.8381907-.73032604z"/><path d="m103.766049 1.6524h-1.61157c-.424393 0-.772756-.30391775-.772756-.67356213 0-.37045917.348363-.67437692.772756-.67437692h4.899832c.424393 0 .772756.30391775.772756.67437692 0 .36964438-.348363.67356213-.772756.67356213h-1.611569v4.62204852c0 .40793965-.370175.73032604-.838503.73032604-.468015 0-.83819-.32238639-.83819-.73032604z"/><path d="m111.202327.97870207c0-.40848284.370175-.73086923.838191-.73086923.468327 0 .838502.32238639.838502.73086923v5.29561065c0 .40793965-.370175.73032604-.838502.73032604-.468016 0-.838191-.32238639-.838191-.73032604z"/><path d="m122.874055 3.64532911v-.01901183c0-1.13908048-.958155-2.08804261-2.308296-2.08804261-1.350142 0-2.286485.9299503-2.286485 2.06875918v.01928343c0 1.13880887.958155 2.087771 2.308296 2.087771 1.350142 0 2.286485-.92995029 2.286485-2.06875917m-6.347815 0v-.01901183c0-1.88841835 1.709411-3.43543846 4.06133-3.43543846 2.35192 0 4.039519 1.52773668 4.039519 3.41615503v.01928343c0 1.88841834-1.709411 3.43516686-4.06133 3.43516686-2.35192 0-4.039519-1.52773668-4.039519-3.41615503"/><path d="m128.198249.99725219c0-.40793965.369863-.73032604.83819-.73032604h.174182c.402893 0 .642509.17056332.87122.42695148l3.233734 3.70106095v-3.42593254c0-.39870533.369863-.72136332.827284-.72136332.457422 0 .827597.32265799.827597.72136332v5.28610473c0 .40793964-.370175.73059763-.838502.73059763h-.054218c-.402892 0-.642509-.17083491-.87122-.42695148l-3.353386-3.83441538v3.55901538c0 .39897693-.370175.72136332-.827596.72136332-.457422 0-.827285-.32238639-.827285-.72136332z"/></g><g transform="translate(38.006452)"><path d="m22.9335284 29.4605125h-.5277357c-1.1600871 0-2.1084591.8413829-2.1084591 1.8699233v19.0779519c0 1.0288156.948372 1.8704738 2.1084591 1.8704738h.5277357c1.1603975 0 2.1093904-.8416582 2.1093904-1.8704738v-19.0779519c0-1.0285404-.9489929-1.8699233-2.1093904-1.8699233" fill="#00b088"/><path d="m31.2170533 35.3844593c-1.1597767 0-2.1093904.8419334-2.1093904 1.8704738v13.1535922c0 1.0285404.9496137 1.8704738 2.1093904 1.8704738h.528046c1.1597767 0 2.1087696-.8419334 2.1087696-1.8704738v-13.1535922c0-1.0285404-.9489929-1.8704738-2.1087696-1.8704738z" fill="#ffa300"/><path d="m40.5554286 26.0323656h-.5280461c-1.1597767 0-2.1093904.8408325-2.1093904 1.8699234v22.5062363c0 1.0285404.9496137 1.8704738 2.1093904 1.8704738h.5280461c1.1600871 0 2.1090799-.8419334 2.1090799-1.8704738v-22.5062363c0-1.0290909-.9489928-1.8699234-2.1090799-1.8699234" fill="#ff5959"/><path d="m50.5456815 11.7818655c-3.661554-.9789987-5.8376874-.7992725-8.1358209-.2064236-3.6671419.9462461-5.7687715 3.3256231-6.8944005 4.6478356-.2443106.2873417-.6804686.1885336-.8276137.1571572-.1465243-.0311012-.5820614-.32092-.0388041-1.7086376.3402343-.8689061.5476033-1.2192759 1.8107541-2.7982794.78912-.9861548 2.6458182-2.78176557 5.6536009-4.15186835-2.835803-2.18396254-6.4827667-3.4266331-10.3352369-3.4266331-6.7258355 0-12.7212228 3.78581031-14.9187761 9.42200245l-.5842344 1.5123975s-.3588603-.0767896-1.5981077-.07734c-5.33789082-.0024771-9.89783719 4.0580143-9.89783719 8.981632 0 4.648386 4.04555934 8.6375925 9.30335849 8.9907146 1.2516648.1026613 2.1984846-.0553216 2.1984846-.0553216l.0052774 17.3728923c0 1.0288156-.9489929 1.8704737-2.1087696 1.8704737h-.5283565c-1.1600871 0-2.10908-.8413829-2.10908-1.8701985v-2.5524976l-.0214198-10.8964181c-6.59110774-1.3860662-11.48539017-6.7002374-11.48539017-12.8596448 0-6.7401461 5.55488327-12.2420253 12.91338067-13.0971698 3.2337778-6.6041816 10.6127638-10.9495377 18.8314703-10.9495377 6.4923901 0 12.5445866 2.70139791 16.4190975 7.27794853.5237001.05174354 1.0411914.12220282 1.5503011.2144054 7.9129303 1.39872686 13.7742107 7.54905167 13.7742107 14.93956987 0 6.7051916-4.9479873 12.5621195-12.0131258 14.534429l-.0223512 13.38864c0 1.0288156-.9480615 1.8704737-2.1081486 1.8704737h-.5280461c-1.1603976 0-2.1093904-.8416581-2.1093904-1.8704737l.0155216-16.9311456s1.9349272.014312 4.2908012-.8548693c2.9068921-1.1146878 7.7633017-4.1766391 7.7633017-10.713389 0-5.3326118-4.8756564-9.2546617-8.2646506-10.1607241" fill="#1c242c"/></g></g></svg>