<svg height="67" viewBox="0 0 240 67" width="240" xmlns="http://www.w3.org/2000/svg"><g fill="none" fill-rule="evenodd"><path d="m203.524985 11.7734396h-6.73424v14.9392736l6.73424-6.6638396zm-24.196519 25.5006793 8.0361-8.0345849c-2.248027-.8349434-4.86229-.3501038-6.623878 1.4101886-1.797437 1.7986887-2.268061 4.396717-1.412222 6.6243963zm-13.515578-5.9824812c-.67237-1.4998962-2.804059-2.4294339-4.83347-2.4294339-3.384342 0-6.136734 2.7928019-6.136734 6.204132 0 3.4120284 2.789297 6.2048302 6.173639 6.2048302 2.030465 0 4.124195-.9302358 4.796565-2.430132zm-23.51466 3.7746981c0-3.4113301-2.810737-6.204132-6.248152-6.204132s-6.248152 2.7928019-6.248152 6.204132c0 3.4120284 2.810737 6.2048302 6.248152 6.2048302s6.248152-2.7928018 6.248152-6.2048302zm-24.911417 0c0-3.4113301-2.812143-6.204132-6.247801-6.204132-3.437063 0-6.249206 2.7928019-6.249206 6.204132 0 3.4120284 2.812143 6.2048302 6.249206 6.2048302 3.435658 0 6.247801-2.7928018 6.247801-6.2048302zm89.583322-3.4340188 11.467188 15.589217h-8.280023l-6.632313-8.9937925v8.9937925h-6.73424v-5.8931227l-2.618129 2.632934.120555-.0837736h-.030227c-5.027483 5.3503396-13.247052 5.1321792-18.303707.1466038-1.611508-1.5899529-2.739388-3.397717-3.412109-5.4208491v8.6182076h-6.73424v-1.553651c-1.346497 1.3955283-3.1833 2.2224434-5.942018 2.2224434-5.129059 0-9.942846-4.2152075-11.264388-9.8737641-1.343685 5.6585566-6.448844 9.8737641-12.55746 9.8737641-5.967676 0-10.975477-4.0246226-12.455533-9.4873585-1.48076 5.4627359-6.488209 9.4873585-12.456588 9.4873585-7.13492 0-12.9156119-5.7398868-12.9156119-12.8239906 0-7.0834056 5.7743649-12.8232924 12.9089339-12.8232924 5.967676 0 10.965987 4.0242736 12.444638 9.4849151 1.481462-5.4606415 6.469229-9.4849151 12.437256-9.4849151 6.108968 0 11.176168 4.2141604 12.518446 9.8741132 1.321542-5.6599528 6.211248-9.8741132 11.340307-9.8741132 2.758718 0 4.595521.8258679 5.942018 2.2734057v-12.7430095h6.73424v19.6571227c.672721-1.9903208 1.777052-3.8644057 3.351655-5.4393491 5.027835-5.0253679 13.31559-5.0470094 18.377517-.0541038.663232.6558774 1.108901 1.1766698 1.662121 1.9435472l-12.989071 13.0082925c2.247325.8338962 4.861236.3944339 6.656916-1.4046038l16.544581-16.3403868h9.425828zm26.18797-.3406793c-1.347551-1.4998962-2.962925-2.4294339-4.991281-2.4294339-3.383288 0-6.293492 2.7928019-6.293492 6.204132 0 3.4120284 2.893333 6.2048302 6.278027 6.2048302 2.032222 0 3.659195-.9302358 5.006746-2.430132zm6.734241-8.1476792v24.0775755h-6.734241v-1.553651c-1.347551 1.3955283-3.377313 2.2224434-6.136735 2.2224434-5.988412 0-11.811632-5.7398868-11.811632-12.8239906 0-7.0834056 5.808458-12.8232924 11.795816-12.8232924 2.758368 0 4.805.8258679 6.152551 2.2734057v-1.3724906zm-141.4239687 6.6886226h-4.0405442v17.3889529h-6.7345919v-17.3889529h-2.6933446v-6.6886226h2.6933446v-2.9174151c0-4.8616604 2.8363946-9.2046226 8.2515533-9.2046226.6249207 0 1.8501587.154632 2.5235828.6195754v6.2571887c-.6734241-.1553302-1.0312245-.2583019-1.4480726-.2583019-1.3004535 0-2.5924716 1.1888868-2.5924716 2.5861604v2.9174151h4.0405442z" fill="#fff"/><g fill="#00b088" transform="translate(87 54)"><path d="m.67133157 7.96018846c-.20940553-.14538461-.35711751-.41088461-.35711751-.70165384 0-.48357693.39413364-.8588077.88697695-.8588077.24642166 0 .41881106.08446154.54184563.16892308.65289401.47215385 1.36748156.76292308 2.20510368.76292308.77592857 0 1.24409447-.30288462 1.24409447-.79857693v-.02423077c0-.47215384-.2957765-.71411538-1.73693779-1.07653846-1.73693778-.43546154-2.85764516-.90726923-2.85764516-2.58853846v-.02457692c0-1.53588462 1.25608065-2.55219231 3.01804839-2.55219231 1.04702765 0 1.95832949.26653846 2.7346106.75046154.20940553.12115385.41881106.37453846.41881106.73765385 0 .48426923-.39413364.85880769-.88697696.85880769-.18472811 0-.33279263-.04811539-.48050461-.13326923-.62821659-.36242308-1.21941705-.56803846-1.81061751-.56803846-.72692627 0-1.1087212.32676923-1.1087212.73765384v.02423077c0 .55661539.36945622.73765385 1.85997235 1.11288462 1.7492765.44757692 2.7346106 1.06442307 2.7346106 2.54007692v.02388461c0 1.68126924-1.30578802 2.62523077-3.16576037 2.62523077-1.13304608 0-2.27878341-.33888461-3.23979262-1.01630769"/><path d="m11.0804081 1.27100769c0-.51992307.418811-.93080769.9486705-.93080769h.2094055c.4064724 0 .6899101.20526923.861947.48323077l2.2914747 3.66507692 2.3038133-3.6771923c.1967143-.3143077.4678134-.47111539.8499609-.47111539h.2094055c.5291544 0 .948318.41088462.948318.93080769v6.72576923c0 .51992308-.4191636.9308077-.948318.9308077-.5175208 0-.9366843-.42334616-.9366843-.9308077v-4.2216923l-1.6629056 2.51584615c-.1970668.29007692-.4431359.47180769-.7882673.47180769-.3447788 0-.5912004-.18173077-.7882672-.47180769l-1.6385807-2.47984615v4.20923076c0 .5085-.418811.90726924-.9359792.90726924-.5175208 0-.9239931-.39876924-.9239931-.90726924z"/><path d="m28.9787641 5.31128077-1.1947397-2.79415385-1.1947396 2.79415385zm-5.333848 2.34657692 3.0057097-6.66484615c.2094055-.45969231.5912005-.73730769 1.1087212-.73730769h.1106959c.5175207 0 .8869769.27761538 1.096735.73730769l3.0053571 6.66484615c.0616936.13257693.0987097.25373077.0987097.37453846 0 .49638462-.3941336.89515385-.8989631.89515385-.443841 0-.739265-.25407692-.9116544-.64073077l-.5792143-1.33061538h-3.7943295l-.6031866 1.39084615c-.1604033.36276923-.4805046.5805-.8746383.5805-.4928433 0-.8746382-.38665385-.8746382-.87057692 0-.13326923.0490023-.26653846.1106958-.39911539z"/><path d="m39.7327956 4.50065769c.9236406 0 1.4535-.48323077 1.4535-1.19734615v-.02423077c0-.79857692-.566523-1.20946154-1.4905161-1.20946154h-1.8846498v2.43103846zm-3.8186544-3.18080769c0-.51992308.4184586-.93184615.948318-.93184615h2.9937235c1.09603 0 1.9459908.30288461 2.5128664.8595.4801521.47111538.7389124 1.13642307.7389124 1.93465384v.02457693c0 1.33026923-.6775714 2.15238461-1.7242465 2.57642307l1.3177742 1.57188462c.1847281.22984615.3081152.42334615.3081152.71411538 0 .51992308-.443841.85846154-.8993157.85846154-.4311498 0-.7145875-.20561538-.9363318-.48392308l-1.8476336-2.29811538h-1.5151936v1.85123077c0 .51992308-.4191636.93080769-.9486705.93080769-.5298594 0-.948318-.41088461-.948318-.93080769z"/><path d="m49.1810039 2.106h-1.8233087c-.4801521 0-.8742858-.38734615-.8742858-.85846154 0-.47215384.3941337-.8595.8742858-.8595h5.543606c.480152 0 .8742857.38734616.8742857.8595 0 .47111539-.3941337.85846154-.8742857.85846154h-1.8233088v5.89084615c0 .51992308-.4188111.9308077-.9486705.9308077-.5295069 0-.948318-.41088462-.948318-.9308077z"/><path d="m63.5564115 1.27100769c0-.51992307.4184585-.93080769.948318-.93080769h.1970668c.4558272 0 .7269263.21738462.9856866.54415385l3.6586037 4.71703846v-4.36638462c0-.50815384.4184586-.91938461.9359793-.91938461s.9363318.41123077.9363318.91938461v6.73719231c0 .51992308-.4188111.93115385-.9486705.93115385h-.0616936c-.4554746 0-.7265737-.21773077-.9853341-.54415385l-3.7939769-4.887v4.536c0 .5085-.4188111.91938462-.9363318.91938462-.5175208 0-.9359793-.41088462-.9359793-.91938462z"/><path d="m75.5047244 5.22678462v-3.97938462c0-.52061538.4188111-.93184615.948318-.93184615.5298594 0 .9486705.41123077.9486705.93184615v3.93057692c0 1.37942308.7022489 2.0925 1.8599724 2.0925 1.158076 0 1.8603248-.68953846 1.8603248-2.03226923v-3.99080769c0-.52061538.4188111-.93184615.948318-.93184615.5298595 0 .9486705.41123077.9486705.93184615v3.91846154c0 2.56430769-1.4658387 3.82257692-3.7816382 3.82257692-2.3157996 0-3.732636-1.27038461-3.732636-3.76165384"/><path d="m89.3138205 2.106h-1.8233087c-.4801521 0-.8742858-.38734615-.8742858-.85846154 0-.47215384.3941337-.8595.8742858-.8595h5.5436059c.4801521 0 .8742858.38734616.8742858.8595 0 .47111539-.3941337.85846154-.8742858.85846154h-1.8233087v5.89084615c0 .51992308-.4188111.9308077-.9486705.9308077-.5295069 0-.948318-.41088462-.948318-.9308077z"/><path d="m101.459729 4.50065769c.923641 0 1.4535-.48323077 1.4535-1.19734615v-.02423077c0-.79857692-.566523-1.20946154-1.490516-1.20946154h-1.8846499v2.43103846zm-3.8186543-3.18080769c0-.51992308.4184585-.93184615.9483179-.93184615h2.9937234c1.09603 0 1.945991.30288461 2.512866.8595.480153.47111538.738913 1.13642307.738913 1.93465384v.02457693c0 1.33026923-.677571 2.15238461-1.724599 2.57642307l1.318127 1.57188462c.184728.22984615.308115.42334615.308115.71411538 0 .51992308-.443489.85846154-.899316.85846154-.43115 0-.714587-.20561538-.936332-.48392308l-1.847633-2.29811538h-1.5151939v1.85123077c0 .51992308-.4191636.93080769-.9486705.93080769-.5298594 0-.9483179-.41088461-.9483179-.93080769z"/><path d="m108.985848 1.24736538c0-.52061538.418811-.93149999.948318-.93149999.52986 0 .948671.41088461.948671.93149999v6.7493077c0 .51992307-.418811.93080769-.948671.93080769-.529507 0-.948318-.41088462-.948318-.93080769z"/><path d="m117.399544 2.106h-1.823309c-.480152 0-.874285-.38734615-.874285-.85846154 0-.47215384.394133-.8595.874285-.8595h5.543606c.480152 0 .874286.38734616.874286.8595 0 .47111539-.394134.85846154-.874286.85846154h-1.823309v5.89084615c0 .51992308-.418811.9308077-.94867.9308077-.529507 0-.948318-.41088462-.948318-.9308077z"/><path d="m125.812852 1.24736538c0-.52061538.418811-.93149999.948318-.93149999.529859 0 .94867.41088461.94867.93149999v6.7493077c0 .51992307-.418811.93080769-.94867.93080769-.529507 0-.948318-.41088462-.948318-.93080769z"/><path d="m139.018091 4.64600769v-.02423077c0-1.45176923-1.084043-2.66123077-2.611576-2.66123077-1.527532 0-2.586898 1.18523077-2.586898 2.63665385v.02457692c0 1.45142308 1.084044 2.66088462 2.611576 2.66088462s2.586898-1.18523077 2.586898-2.63665385m-7.181834 0v-.02423077c0-2.40680769 1.934005-4.3785 4.594936-4.3785s4.570258 1.94711539 4.570258 4.35392308v.02457692c0 2.4068077-1.934005 4.37815385-4.594936 4.37815385-2.66093 0-4.570258-1.94711539-4.570258-4.35392308"/><path d="m145.041814 1.27100769c0-.51992307.418459-.93080769.948318-.93080769h.197067c.455827 0 .726926.21738462.985687.54415385l3.658603 4.71703846v-4.36638462c0-.50815384.418459-.91938461.93598-.91938461.51752 0 .936331.41123077.936331.91938461v6.73719231c0 .51992308-.418811.93115385-.94867.93115385h-.061341c-.455827 0-.726926-.21773077-.985687-.54415385l-3.793977-4.887v4.536c0 .5085-.418811.91938462-.936331.91938462-.517521 0-.93598-.41088462-.93598-.91938462z"/></g><path d="m25.9466927 37.547712h-.5970732c-1.3125073 0-2.3854829 1.0723508-2.3854829 2.3832356v24.3150367c0 1.3112356 1.0729756 2.3839372 2.3854829 2.3839372h.5970732c1.3128585 0 2.3865366-1.0727016 2.3865366-2.3839372v-24.3150367c0-1.3108848-1.0736781-2.3832356-2.3865366-2.3832356" fill="#00b088"/><path d="m35.3185639 45.0978403c-1.3121561 0-2.3865366 1.0730524-2.3865366 2.3839372v16.7643822c0 1.3108848 1.0743805 2.3839372 2.3865366 2.3839372h.5974244c1.3121561 0 2.3858341-1.0730524 2.3858341-2.3839372v-16.7643822c0-1.3108848-1.073678-2.3839372-2.3858341-2.3839372z" fill="#ffa300"/><path d="m45.883879 33.1785052h-.5974244c-1.3121561 0-2.3865366 1.0716493-2.3865366 2.3832356v28.6844189c0 1.3108848 1.0743805 2.3839372 2.3865366 2.3839372h.5974244c1.3125073 0 2.3861854-1.0730524 2.3861854-2.3839372v-28.6844189c0-1.3115863-1.0736781-2.3832356-2.3861854-2.3832356" fill="#ff5959"/><path d="m57.18672 15.0161031c-4.1426341-1.2477434-6.6046829-1.0186806-9.204761-.263089-4.1489561 1.206-6.5267122 4.2385393-7.8002341 5.9237121-.2764098.3662199-.7698732.2402879-.9363512.2002984-.1657757-.0396387-.6585366-.4090157-.0439025-2.1776754.3849366-1.1074293.6195512-1.553979 2.0486634-3.5664345.8928-1.2568639 2.9934439-3.5453875 6.3964098-5.2915969-3.2083903-2.78348167-7.3345171-4.36727749-11.6931512-4.36727749-7.609522 0-14.3926244 4.82505239-16.8789073 12.00843459l-.6609952 1.9275654s-.4060097-.0978691-1.808078-.0985707c-6.0392195-.003157-11.19828294 5.1719791-11.19828294 11.447178 0 5.9244137 4.57709268 11.0086964 10.52569754 11.458754 1.4161171.1308429 2.4873366-.0705079 2.4873366-.0705079l.0059707 22.1419215c0 1.3112356-1.073678 2.3839372-2.3858341 2.3839372h-.5977756c-1.3125073 0-2.3861854-1.0723508-2.3861854-2.3835864v-3.2531833l-.0242341-13.8875916c-7.45709272-1.766555-12.99441955-8.5395183-12.99441955-16.3897435 0-8.5903822 6.28472195-15.6025811 14.61002925-16.6924712 3.6586537-8.4170942 12.0071415-13.95529315 21.3056781-13.95529315 7.3454048 0 14.1927805 3.44295811 18.5763512 9.27581675.5925073.06594764 1.1779902.15574869 1.7539902.27326178 8.9525854 1.78269112 15.583961 9.62134032 15.583961 19.04062832 0 8.5458324-5.5980878 16.0105445-13.5914927 18.5242722l-.0252878 17.0639529c0 1.3112356-1.0726244 2.3839372-2.3851317 2.3839372h-.5974244c-1.3128585 0-2.3865366-1.0727016-2.3865366-2.3839372l.017561-21.578911s2.1891512.0182408 4.8545561-1.0895393c3.2888195-1.4206806 8.7832976-5.3231675 8.7832976-13.6543194 0-6.7964659-5.5162537-11.795157-9.3505171-12.9499424" fill="#fff"/></g></svg>