<svg id="Capa_1" data-name="Capa 1" xmlns="http://www.w3.org/2000/svg" viewBox="0 0 376.16 103.05"><defs><style>.cls-1{fill:#fff;}.cls-2{fill:#fccb1b;}.cls-3{fill:none;stroke:#fccb1b;stroke-miterlimit:10;stroke-width:3.45px;}</style></defs><title>Mesa de trabajo 1</title><path d="M104.33,37.62c1.83-1.22,3.27-2.35,4.86-3.21a13,13,0,0,1,4.51-1.74,6.34,6.34,0,0,1,3.67,1.09,6.27,6.27,0,0,1,2,2.47c.8,1.54.91,1.61,2.12.41,1.06-1.06,2.13-2.13,3.28-3.08,1.68-1.38,6.45-1.31,8.35-.24,2.52,1.44,3.09,3.88,3.3,6.33.3,3.44.24,6.92.22,10.37,0,2.11-.21,4.23-.37,6.33a2.69,2.69,0,0,0,1.5,2.95c1,.54,2.3,1.1,2.13,2.71-.14,1.35-.69,1.77-2.05,1.66-2-.17-4.06-.27-6.1-.36-1,0-2,.11-3,0a1.75,1.75,0,0,1-1.07-2.92c.73-.89,1.61-1.66,2.39-2.51.25-.27.65-.71.57-.94-.74-2.23.34-4.42.07-6.65a53.33,53.33,0,0,1-.23-5.37c0-1.1,0-2.19.08-3.28.08-1.72-1.29-2.49-2.42-2.91a4,4,0,0,0-4.08.53,5.54,5.54,0,0,1-1.54.91,4.41,4.41,0,0,0-2.37,3.55,41.88,41.88,0,0,0,.53,5.31c.4,2,0,4.19-.13,6.29,0,.52-.13,1-.12,1.55a2.78,2.78,0,0,0,2.3,2.9c2,.55,2.59,1.12,2.3,2.56-.11.54-.71,1.32-1.16,1.39a41.91,41.91,0,0,1-4.76.19c-1.38,0-2.77.08-4.15.07a15.86,15.86,0,0,1-2.93-.17,1.66,1.66,0,0,1-1.43-2,1.92,1.92,0,0,1,1.83-1.87c2.12-.31,2.28-.63,2-2.73a24.58,24.58,0,0,1,0-3.21c0-1.36-.11-2.71-.15-4.06a8.12,8.12,0,0,1,0-1.91c.18-.86.46-1.66-.17-2.48-.17-.22,0-.68,0-1,0-1.2.11-2.4,0-3.58a2.37,2.37,0,0,0-2-2.26A8.16,8.16,0,0,0,105.49,40a3.5,3.5,0,0,0-1.14,2.57c0,1.81.36,3.64.36,5.46,0,2.37-.2,4.74-.31,7.1,0,.16-.05.32-.07.48-.26,2.65.15,3.41,2.7,4.19,1.3.39,1.36,1.25,1.36,2.3a1.69,1.69,0,0,1-1.62,1.75A10.74,10.74,0,0,1,105,64c-2.64,0-5.28,0-7.92.07-2,0-2.52-.47-2.41-2.44,0-.78.38-1.11,1.16-1.22a8.86,8.86,0,0,0,2.25-.68,1.13,1.13,0,0,0,.39-.88c0-2,0-3.91,0-5.87,0-1.71,0-3.43.11-5.14s.24-3.64.24-5.45a2.86,2.86,0,0,0-2.41-2.95c-.85-.2-1.67-.56-1.68-1.43a2.14,2.14,0,0,1,1.7-2.13,14.68,14.68,0,0,0,3.93-2.17,3.06,3.06,0,0,1,2.83-.33c.89.21.86,1.11.89,1.89S104.22,36.64,104.33,37.62Z"/><path d="M37.25,19.24c-.17,2.17-.34,4.33-.49,6.5a5.49,5.49,0,0,0,.15.79,13.66,13.66,0,0,1,0,2.39,8.78,8.78,0,0,0,.6,5.56c.36.67.83.71,1.3.11A3.14,3.14,0,0,1,41.7,33.4a5.42,5.42,0,0,0,2.23-.31c3.12-1.26,5.48.27,7.76,2A4.6,4.6,0,0,1,53.46,39a57,57,0,0,0,.25,8.06c.22,1.54-.12,3,0,4.45a67.14,67.14,0,0,0,.74,7.08c.07.42,1,.74,1.51,1.06s1.61.61,2,1.19c1.14,1.52.27,3.44-1.6,3.28-3.88-.34-7.8.6-11.65-.46-.9-.25-1.4-.67-1.43-1.63s.13-1.84,1.19-2.23a3.58,3.58,0,0,1,.35-.09C47.6,59,48.12,57.92,47.76,55c-.31-2.46-.83-4.94-.24-7.47.53-2.28-.08-4.51-.56-6.73-.05-.23-.11-.56-.27-.65-1.52-.86-3-1.76-4.63-2.46a5.65,5.65,0,0,0-2.14,0,3.3,3.3,0,0,0-3.29,3.5c0,.88.19,1.75.22,2.63.07,1.78,0,3.57.13,5.36,0,1,.21,2,.28,3,.11,1.47.26,2.94.23,4.42,0,2.1.42,2.85,2.32,3.63a1.47,1.47,0,0,1,.77,1.16,4.49,4.49,0,0,1-1,2.28,2.92,2.92,0,0,1-2,.57c-2,0-3.9-.33-5.85-.3a15.06,15.06,0,0,0-3.73.7c-1.38.38-1.67-.53-2-1.46-.48-1.54-.29-2.28.77-2.75A13.59,13.59,0,0,1,29,59.72a2,2,0,0,0,1.76-2.62,6.65,6.65,0,0,1,0-1.41c.12-1.61.31-3.21.38-4.82.11-2.35.15-4.71.19-7.06a10.62,10.62,0,0,0-.19-1.46,19.71,19.71,0,0,1-.31-2.85c0-2.47.26-5,.23-7.43,0-1.81-.33-3.63-.5-5.44a9.13,9.13,0,0,1-.12-2,3.17,3.17,0,0,0-1.09-3c-.53-.48-1.18-.82-1.75-1.26-1.74-1.32-1.64-3.16.36-4a56.85,56.85,0,0,1,6.11-2,2.55,2.55,0,0,1,3,2.34c0,.84,0,1.68,0,2.52Z"/><path d="M247.8,25.86a29.31,29.31,0,0,0,0-3.11A2.43,2.43,0,0,0,247,21.4c-.83-.79-1.8-1.45-2.66-2.22a1.85,1.85,0,0,1,.38-3.25,13.88,13.88,0,0,1,8.38-1.32c1.27.12,2.39,1.83,2.23,3.43-.35,3.52-.83,7-1.26,10.54,0,.16-.1.34-.06.47.83,2.45-.4,4.8-.33,7.22.1,3.61.19,7.23.22,10.85,0,1.31-.21,2.61-.26,3.93a60.92,60.92,0,0,0-.09,6.19c.14,2,1.07,2.61,3,2.47s2.45.06,2.63,1.32a2.51,2.51,0,0,1-2.36,3c-1.57.17-3.17.13-4.75.21a3.3,3.3,0,0,0-.93.21c-1.92.66-3.24.19-4.16-1.65-.39-.78-.78-.81-1.5-.55-1.61.58-3.24,1.09-4.88,1.59a2.55,2.55,0,0,1-1.31.09c-3.51-.81-7.17-1.58-9.22-4.92-1.77-2.88-3.21-6-2.76-9.55.32-2.51.79-5,1.2-7.48a1.57,1.57,0,0,1,.25-.79c2.17-2,3.41-5.12,6.53-6.12q3.19-1,6.45-1.81a4,4,0,0,1,2,.16,2.62,2.62,0,0,0,3.49-2c.28-1.85.47-3.71.7-5.57Zm-.05,20.29h.14c0-.8.05-1.6,0-2.4a20.48,20.48,0,0,0-.35-2.35c-.56-2.88-2.26-4.25-5.21-4.25-.44,0-.89,0-1.32,0a4.19,4.19,0,0,0-4.3,2.28,22.78,22.78,0,0,0-2.42,5.81c-1,4.62-.25,10.78,5.84,13.39a7.58,7.58,0,0,0,5.76.17c.71-.24,1.13-.58,1-1.48,0-.48.37-1,.57-1.52a4,4,0,0,0,.5-1.42C248,51.62,247.84,48.88,247.75,46.15Z"/><path d="M212.7,60.66c-1.63.94-3.13,1.88-4.69,2.69a5.24,5.24,0,0,1-4.3.3c-.79-.27-1.57-.57-2.37-.82A4.59,4.59,0,0,1,198,58c0-1.3-.24-2.61-.28-3.91-.06-1.61-.06-3.22,0-4.83,0-1.42.08-2.85.11-4.27,0-1.24-.06-2.49,0-3.72A4.13,4.13,0,0,0,195.22,37a2.33,2.33,0,0,1-1.55-2.55,1.78,1.78,0,0,1,1.92-1.72c2.11,0,4.22-.14,6.33-.19,2.27,0,3.71,2.22,3.42,4.91-.4,3.67-.6,7.37-.82,11.06-.12,2-.18,3.91-.12,5.86a4.41,4.41,0,0,0,.81,1.84,4.62,4.62,0,0,0,4.5,2.23c1.89-.07,2.55-.55,3.16-2.33a9.27,9.27,0,0,1,.45-1A6,6,0,0,0,214,51a3.56,3.56,0,0,1-.06-2,10.11,10.11,0,0,0,.28-5.53,13.45,13.45,0,0,1-.21-3.1,2.56,2.56,0,0,0-1.52-2.6c-.74-.4-1.53-.7-2.26-1.11a7.43,7.43,0,0,1-1.75-1.2c-.83-.87-.62-1.75.25-2.55a4.47,4.47,0,0,1,5.49-.77,16.08,16.08,0,0,0,3.46.86,16.27,16.27,0,0,1,2.32.53,2.79,2.79,0,0,1,1.49,3.79,13.37,13.37,0,0,0-1.25,5.91c0,1.94.1,3.88,0,5.82,0,1.14-.44,2.26-.49,3.4-.08,2-.05,4,0,6,0,.27.54.6.9.75.18.09.51-.13.77-.24a1.71,1.71,0,0,1,2.47.67,2.29,2.29,0,0,1-1.31,3.2c-2.67.81-5.33,1.73-8.18,1.4a1.7,1.7,0,0,1-1.12-.93A16,16,0,0,1,212.7,60.66Z"/><path d="M323.68,60.64c-1.72,1-3.21,2-4.78,2.76a5.22,5.22,0,0,1-4.19.26c-.83-.28-1.66-.59-2.49-.85a4.51,4.51,0,0,1-3.29-4.46,36.21,36.21,0,0,1-.31-4.5,31.45,31.45,0,0,0,0-4.45c-.08-2.73,0-5.48.17-8.22a4.28,4.28,0,0,0-1.42-3.4,7.24,7.24,0,0,0-1.51-.94,2.21,2.21,0,0,1-1.19-2.3,1.74,1.74,0,0,1,1.86-1.77c2.15-.08,4.3-.16,6.45-.2s3.69,2.28,3.35,4.84c-.44,3.32-.75,6.66-1,10-.14,1.85,0,3.73,0,5.59a5.16,5.16,0,0,0,1.36,3.84c1.29,1.5,2.73,1.6,4.33,1.59s2.32-.63,2.85-2.22a7.1,7.1,0,0,1,.43-1,6.25,6.25,0,0,0,.67-4.27,9.38,9.38,0,0,1,.11-2.58c.08-1.21.29-2.42.26-3.63a38,38,0,0,0-.44-4.88,2.81,2.81,0,0,0-.92-1.67,19.54,19.54,0,0,0-2.51-1.37,9,9,0,0,1-1.91-1.21c-1-.92-.78-1.81.21-2.71a4.4,4.4,0,0,1,5.38-.75,17.19,17.19,0,0,0,3.46.87,18.12,18.12,0,0,1,2.21.49c1.67.6,2.18,2.23,1.66,3.92a27.66,27.66,0,0,0-1.2,5.67c-.19,2,.36,4.11-.05,6-.6,2.88-.22,5.71-.36,8.56-.08,1.68,0,1.83,1.66,1.22a1.73,1.73,0,0,1,2.39.67,2.16,2.16,0,0,1-.46,2.72,2.66,2.66,0,0,1-.92.53,22.63,22.63,0,0,1-8.07,1.44c-.88-.05-1.08-.55-1.24-1.17S323.87,61.58,323.68,60.64Z"/><path d="M159.11,64.16c-2.46-.25-4.37-.41-6.27-.64a2.86,2.86,0,0,1-1.06-.5c-1.12-.76-2.24-1.53-3.34-2.32a2.92,2.92,0,0,1-.85-.83A43.91,43.91,0,0,1,144.12,54a13.06,13.06,0,0,1-.88-5.12,19.48,19.48,0,0,1,4.39-11.65,7.6,7.6,0,0,1,2.1-1.75c1.06-.66,2.24-1.12,3.31-1.76,2.16-1.31,4.6-.74,6.9-1.1a4.61,4.61,0,0,1,1.53.24c1,.2,2,.41,3,.65a2.46,2.46,0,0,1,.72.37,14,14,0,0,0,1.34,1c3,1.59,4.51,4.29,5.58,7.32a14.29,14.29,0,0,1,.94,3.33,25.05,25.05,0,0,1,.06,5.93A17,17,0,0,1,168,61.25,8.44,8.44,0,0,1,164.54,63C162.61,63.6,160.6,63.87,159.11,64.16Zm-8.67-14.88a13,13,0,0,1,.57,2.33c.26,3.44,2.74,5.57,4.64,8a1.34,1.34,0,0,0,.88.54c1.7-.17,3.68.06,5-.74,3-1.8,5.48-4.28,5-8.36-.15-1.12-.19-2.26-.28-3.39a1.85,1.85,0,0,1,0-.47,6.32,6.32,0,0,0-1.65-5.73c-.49-.55-.73-1.35-1.26-1.87a13.71,13.71,0,0,0-3.14-2.58,12.14,12.14,0,0,0-3.51-.67,1.41,1.41,0,0,0-.82,0,8.94,8.94,0,0,0-4.63,5.5A52,52,0,0,0,150.44,49.28Z"/><path d="M76.6,64.16c-2.48-.25-4.38-.42-6.28-.65a2.63,2.63,0,0,1-1-.51c-1.13-.76-2.25-1.52-3.35-2.31a3.83,3.83,0,0,1-.91-.93,36,36,0,0,1-3.24-5.44,14.65,14.65,0,0,1-1-5.45A19.19,19.19,0,0,1,65,37.41a9.32,9.32,0,0,1,2.55-2.15,14.76,14.76,0,0,1,3.37-1.63,38.73,38.73,0,0,1,4-.83c2.43-.52,4.72.36,7,.77.74.13,1.34.94,2.07,1.34,3,1.63,4.55,4.34,5.57,7.45.31,1,.56,1.91.85,2.86a14.07,14.07,0,0,1-.07,7.09,18.13,18.13,0,0,1-3.89,7.83A9.72,9.72,0,0,1,82,63,34.21,34.21,0,0,1,76.6,64.16ZM67.9,49.29c.36,1.4.69,3,1.19,4.6.77,2.4,2.76,4,4.23,5.89a1.58,1.58,0,0,0,1.16.44c2.28-.09,4.46-.36,6.35-1.92A10,10,0,0,0,84,48.54a14.41,14.41,0,0,1-.14-1.76c-.19-1.28-.11-2.73-.7-3.81a31.65,31.65,0,0,0-3.56-4.73c-1.6-1.92-4-1.42-6.1-1.87a.38.38,0,0,0-.22.07c-2.17,1.39-4,3.13-4.57,5.7A65.39,65.39,0,0,0,67.9,49.29Z"/><path d="M181.24,50.71c-.18-3.31-.41-6.62-.51-9.93-.08-2.47,0-4.94,0-7.4,0-.7-.2-1.39-.27-2.09a2.56,2.56,0,0,1,0-1.29c.64-1.28.28-2.55.19-3.86-.14-2.13-.44-4-2.73-5a2.71,2.71,0,0,1-1.09-1.65,1.56,1.56,0,0,1,.86-2.11c2.14-.85,4.29-1.7,6.47-2.44,2.53-.85,3.11-.46,3.12,2.19,0,1.83-.29,3.65-.37,5.48s-.11,3.91-.13,5.87c0,2.24.64,4.51-.44,6.69-.12.24,0,.6.06.91.25,2.33.63,4.64,0,7a8.4,8.4,0,0,0-.05,3.2,32,32,0,0,1,0,7.76,11.23,11.23,0,0,0,.5,3.76,2.71,2.71,0,0,0,2.53,1.84,9.84,9.84,0,0,1,1.54.21,2.78,2.78,0,0,1,1.62,4,1.29,1.29,0,0,1-1,.41c-1,0-2.07-.23-3.11-.23-1.74,0-3.49.13-5.23.15-2.27,0-4.55,0-6.82,0-1.08,0-1.49-1.65-1-3,.67-1.68,2.15-1.48,3.43-1.5.75,0,1.19-.24,1.39-.82a11.09,11.09,0,0,0,.79-3c.13-1.71,0-3.43,0-5.15Z"/><path d="M289.72,64.3c-1.18-.34-3.74-.5-5.53-1.75-2.88-2-5.07-4.85-5.1-8.73A1.53,1.53,0,0,0,279,53c-.92-1.34-.76-2.82-.63-4.29.2-2-.3-4.14.6-6.11.1-.21.09-.48.2-.68.62-1.14,1.21-2.3,1.91-3.4a15.42,15.42,0,0,1,10.72-7,10.92,10.92,0,0,1,7.17,1.64,5.2,5.2,0,0,1,2.51,3.57,3.34,3.34,0,0,1-1.63,3.89c-.92.45-1.82.67-2.47-.47a1,1,0,0,0-.52-.48c-1.32-.34-1.85-1.43-2.38-2.51-1.23-2.45-3-3-5.22-1.28-1.15.89-2.54,1.93-3,3.2-.7,2.12-1.72,4.28-1.32,6.68.28,1.68.41,3.39.6,5.08a9.58,9.58,0,0,0,2.71,5.76c2.83,2.79,6.43,2.54,9.44-.3A12,12,0,0,1,299.19,55c1-.68,2.15-.15,2.09,1.07a7,7,0,0,1-.79,2.82C298.79,62.13,295.07,64.17,289.72,64.3Z"/><path d="M338.59,59.51c.25-1.91.4-3.39.67-4.84a3.72,3.72,0,0,1,.74-1.6c.57-.72,1.22-.56,1.43.35a10.81,10.81,0,0,0,3.7,5.59,2.33,2.33,0,0,0,.84.44c2.17.63,6-.83,6.8-2.89a3.79,3.79,0,0,0-.51-2.87,5.64,5.64,0,0,0-4.67-2.8c-3-.11-4.64-2.4-6.83-3.8a1.08,1.08,0,0,1-.31-.36c-1.31-2.23-1.44-4.77-1.72-7.22a3.76,3.76,0,0,1,1.64-3.41,7.65,7.65,0,0,0,1.44-1.61A5,5,0,0,1,347,32.22c1.23.19,2.53,0,3.79.06.53,0,1.05.36,1.59.45a10.13,10.13,0,0,0,1.56.06c.44,0,1.05-.15,1.3.08a1.83,1.83,0,0,1,.41,1.36c-.21,1.93-.52,3.85-.8,5.78a2.88,2.88,0,0,1-.3,1.15,2.25,2.25,0,0,1-1.09,1c-.24.06-.73-.47-.94-.83-.48-.82-.79-1.75-1.29-2.55a4,4,0,0,0-3.5-2.11,9.8,9.8,0,0,0-3.59,1.15c-1.22.62-1.32,2.67-.35,3.66.2.2.47.44.47.68.06,1.45,1.14,1.48,2.13,1.51,1.2,0,2.4,0,3.4.85a.89.89,0,0,0,.56.14c2.5-.11,3.93,1.48,4.91,3.39a13.41,13.41,0,0,1,.85,10,8.2,8.2,0,0,1-4.16,5.05,8.37,8.37,0,0,1-6.91.67,37.36,37.36,0,0,1-5.35-2.53C339.05,60.86,338.82,59.91,338.59,59.51Z"/><path d="M271.31,36.15c-.15,3.62-.4,7.24-.43,10.87,0,3.94.17,7.88.25,11.82,0,1,.8.95,1.44,1,1.71.18,2.38,1.09,2,2.79-.29,1.4-1.49,1.85-3.35,1.6a27.52,27.52,0,0,0-9-.07,1.69,1.69,0,0,1-1.92-1.87,2.35,2.35,0,0,1,2-2.13c1.87-.11,1.88-.11,2.08-2,.24-2.33.62-4.66.67-7,.08-3.1-.05-6.21-.24-9.3,0-.57-.69-1.13-1.14-1.63a18.8,18.8,0,0,1-2-2.1c-.58-.89-.13-1.65.82-2.11A33.57,33.57,0,0,1,267,33.84a6.42,6.42,0,0,1,3.55.18c.53.17.75,1.3,1.11,2Z"/><path d="M295,72.1l.55,3.21-.26.18c-.31-.3-.77-.55-.91-.91-1.14-3-5.08-2.48-6.63-.3A5.68,5.68,0,0,0,290.59,83a2.35,2.35,0,0,0,2.78-.81c.4-.64.12-1.71.1-2.59a4.28,4.28,0,0,0-.26-1,6.14,6.14,0,0,1,1.12-.21c1,0,2.06,0,3.09,0l0,.32c-.11.1-.21.27-.33.29-1,.18-1.35.74-1.34,1.77,0,1.85-.83,2.76-2.76,3a10,10,0,0,1-5.13-.59c-3.25-1.32-4-6.48-2.16-8.65a6.86,6.86,0,0,1,7.36-2.38A7,7,0,0,0,295,72.1Z"/><path d="M339.5,83.8h-9.8c.36-.39.52-.71.7-.72,1.17,0,1.17-.85,1.16-1.69,0-2.3,0-4.6-.1-6.9a8.81,8.81,0,0,0-1-2.45l2.36-.87c0,1.79,0,3.4,0,5,0,1.9-.09,3.8-.06,5.7a1.67,1.67,0,0,0,1.85,1.39c.72-.2,1.7-.28,1.66-1.47-.08-2.67-.08-5.34-.24-8,0-.55-.6-1.08-1-1.73l2.52-.9c0,1.73,0,3.29,0,4.85,0,1.9-.09,3.81-.11,5.71A1.16,1.16,0,0,0,338.61,83C338.87,83.08,339.09,83.43,339.5,83.8Z"/><path d="M202.79,81.28c-1.07-1.22-1.51-2.44-.61-3.86a3.13,3.13,0,0,1,4.19-1.08c.78.47,1.36.62,2.11-.08a1.68,1.68,0,0,1,1.4-.2c.2,0,.22.75.34,1.24-1.93-.24-2.24,0-2.23,1.77a2.3,2.3,0,0,1-2.37,2.44,15.13,15.13,0,0,0-1.91,0c-.41.09-.73.54-1.09.83.34.26.64.71,1,.76,1.17.17,2.37.2,3.57.27a2,2,0,0,1,2,1.59,3.21,3.21,0,0,1-.66,2.25,5.51,5.51,0,0,1-6,1.12,1.9,1.9,0,0,1-.64-3.28c.17-.18.32-.67.23-.76C200.86,83.06,201.68,82.2,202.79,81.28ZM205,84.35h0c-.24,0-.48,0-.72,0-1.62,0-2.22,1-1.49,2.44.6,1.2,2.82,1.71,4.11,1a1.66,1.66,0,0,0,.84-2.12c-.2-.52-1-.87-1.55-1.16A3.09,3.09,0,0,0,205,84.35Zm1.64-5.5a1.92,1.92,0,0,0-1.85-2.07c-.81,0-1.62,1.1-1.62,2.18s.83,2.2,1.6,2.18A2.46,2.46,0,0,0,206.59,78.85Z"/><path d="M127.8,80.82c-.38.85-.72,1.72-1.16,2.53a1.19,1.19,0,0,1-.84.53c-1.5,0-3-.12-4.5-.14-1.18,0-2.36.06-3.54.11a6.88,6.88,0,0,1-1.19.06c-.25,0-.47-.3-.7-.47.23-.16.43-.42.68-.48,1.84-.39,1.85-.38,1.86-2.2s0-3.58,0-5.37c0-1.29-.18-2.31-1.68-2.55-.17,0-.31-.2-.45-.61l1.53-.07c1.23-.07,2.45-.19,3.68-.22a9.42,9.42,0,0,1,1.57.22l0,.52a10.13,10.13,0,0,1-1.52.22c-1.13,0-1.42.7-1.41,1.61,0,2.38.19,4.75.16,7.13a1,1,0,0,0,1,1.2c.86.11,1.73.08,2.6.11,1.1,0,1.67-.77,2.33-1.46a11.12,11.12,0,0,1,1.25-1Z"/><path d="M226.39,71.6a11.61,11.61,0,0,1,2.24-.31c.25,0,.7.64.68,1-.1,2.89-.26,5.77-.46,8.65-.12,1.65,0,1.88,1.82,2.33-.37.27-.64.63-.85.6-.88-.16-1.89.64-2.68-.37-.09-.11-.54,0-.78.06-2.4,1-4.87-1.17-4.45-3.91a3.9,3.9,0,0,1,4.24-3.45c.89,0,1.2-.26,1.33-1.09.2-1.27.18-2.43-1.26-3.15Zm1.13,8.5h.13a13.43,13.43,0,0,0-.21-2,1.78,1.78,0,0,0-2.93-.88,3.72,3.72,0,0,0-1,3.42,2.71,2.71,0,0,0,2,2.2,1.48,1.48,0,0,0,2.13-1.54C227.58,80.88,227.54,80.49,227.52,80.1Z"/><path d="M172.89,83.74c0-3,0-5.85,0-8.7,0-1.05,0-2-1.27-2.48.35-.31.58-.65.89-.76a13,13,0,0,1,1.77-.39,8.16,8.16,0,0,1,.26,1.53c0,1.31-.15,2.61-.25,4.09a8.55,8.55,0,0,0,.91-.37,3.07,3.07,0,0,1,3.49.15,3.33,3.33,0,0,1,1.54,3.28c-.33,2.52-1.56,3.68-4.08,3.79C175.14,83.92,174.11,83.8,172.89,83.74Zm1.44-4.09a5,5,0,0,0,.32,1.9,3.94,3.94,0,0,0,1.73,1.55,1.69,1.69,0,0,0,1.51-.56,4.14,4.14,0,0,0,.55-3.5,2.8,2.8,0,0,0-2.94-1.84C173.94,77.34,174.46,78.47,174.33,79.65Z"/><path d="M316.41,83.34c1.46-.32,1.44-1.31,1.31-2.41-.09-.74,0-1.5,0-2.24s-.51-1.37-1.43-1.23-1.67.48-1.74,1.5a12.85,12.85,0,0,0,0,3.1c.09.53.71,1,1.1,1.45-.45.47-2.95.55-3.75,0,1-.8,1-.8,1.3-3.2.15-1.28.4-2.63-1.48-3.18l.21-.25,2.15-.73.65,1.38c.37-.34.67-.58.92-.85a2.14,2.14,0,0,1,2.63-.41,1.82,1.82,0,0,1,1,2,34.17,34.17,0,0,0,0,3.92,4.5,4.5,0,0,0,.7,1.52h-3.45Z"/><path d="M250.85,76a3.92,3.92,0,1,1-4,4.12A4,4,0,0,1,250.85,76Zm2.53,4.14h-.1a9.28,9.28,0,0,0-.07-1.06,3,3,0,0,0-2.72-2.41,2.07,2.07,0,0,0-1.83,2,6.92,6.92,0,0,0,.41,3,2.82,2.82,0,0,0,1.78,1.44,2.1,2.1,0,0,0,2.23-1.46A7.29,7.29,0,0,0,253.38,80.16Z"/><path d="M185.58,83.85a3.8,3.8,0,0,1-4.09-3.74,4,4,0,0,1,4.19-4.1,3.92,3.92,0,1,1-.1,7.84Zm-2.5-4.25a10.64,10.64,0,0,0,.83,2.4,2,2,0,0,0,3.34.42,3.81,3.81,0,0,0,.26-4.19A4,4,0,0,0,186,76.82C184.41,76.24,183.33,77.39,183.08,79.6Z"/><path d="M325.29,83.85a3.79,3.79,0,0,1-4.1-3.72A4,4,0,0,1,325.35,76a3.92,3.92,0,1,1-.06,7.84Zm-2.52-4.38a8.29,8.29,0,0,0,.63,2.16,3.32,3.32,0,0,0,1.67,1.49,2.22,2.22,0,0,0,2.33-1.32c.78-1.34-.06-4.33-1.44-4.91-.83-.35-1.77-.46-2.32.5A15,15,0,0,0,322.77,79.47Z"/><path d="M238,78.83c-1.44,0-2.73,0-4,0-1.54,0-1.85.46-1.13,1.85a2.76,2.76,0,0,0,3.52,1.42c.37-.11.72-.29,1.09-.44.08,1.17-.88,2.07-2.35,2.25a3.76,3.76,0,0,1-4-3.54c-.26-1.94,1.29-4.29,3.05-4.6S237.42,76.55,238,78.83Zm-5.3-.5c1,0,1.84,0,2.69-.16.29,0,.75-.31.78-.51a1.18,1.18,0,0,0-.47-.87C234.62,76,233.15,76.66,232.67,78.33Z"/><path d="M152.25,78.75h-5.11c-.49,2.94,1.59,4.09,4.77,2.94.05,1.17-1.11,2.16-2.63,2.23a3.78,3.78,0,0,1-3.78-3.69c-.11-2.23,1.44-4.34,3.29-4.47A3,3,0,0,1,152.25,78.75Zm-3.36-2.5c-.57.48-1.15,1-1.69,1.48,0,0,.24.6.36.6a17.07,17.07,0,0,0,2.37-.18c.24,0,.6-.24.62-.4a1,1,0,0,0-.28-.83A7.42,7.42,0,0,0,148.89,76.25Z"/><path d="M346.7,78.83h-4.12c-1.2,0-1.49.41-1.06,1.53a2.82,2.82,0,0,0,3.68,1.74c.38-.13.73-.31,1.1-.47.1,1.19-.94,2.14-2.46,2.28a3.74,3.74,0,0,1-3.91-3.53c-.21-2.23,1.35-4.47,3.24-4.62A3.1,3.1,0,0,1,346.7,78.83Zm-5.09-.5c.95,0,1.84-.08,2.73-.18.23,0,.6-.23.62-.39s-.1-.76-.27-.82a3.89,3.89,0,0,0-1.85-.29A1.51,1.51,0,0,0,341.61,78.33Z"/><path d="M280.14,82.42c-.6,1.73-1.81,1.91-3.19.48a5.58,5.58,0,0,1-1.56.7c-.55.07-1.46,0-1.64-.33a2,2,0,0,1,0-1.89,5.67,5.67,0,0,1,2.36-1.49c1-.33,1.46-.74,1.14-1.79s-.87-1.39-2.26-1c0,.86-.07,1.79-1.6,1.55.16-.44.19-.91.44-1.15a6.14,6.14,0,0,1,1.73-1.23c1.87-.81,3.18.07,3.18,2.1,0,.83-.11,1.66-.18,2.5C278.43,82.32,278.61,82.52,280.14,82.42Zm-2.85-2.17-.25-.31a9.86,9.86,0,0,0-1.77,1,1.27,1.27,0,0,0-.15,1.14,1.11,1.11,0,0,0,.94.4C277.61,82.37,277.08,81.11,277.29,80.25Z"/><path d="M217.46,82.43c-.56,1.73-1.8,1.9-3.17.46a5.61,5.61,0,0,1-1.56.71c-.54.07-1.45,0-1.63-.32a2.07,2.07,0,0,1,0-1.89,5.62,5.62,0,0,1,2.36-1.5c1-.33,1.48-.71,1.16-1.78s-.85-1.39-2.26-1.07c0,.93-.12,1.82-1.45,1.57,0-1.34,1.6-2.64,3.16-2.68,1.28,0,2.06.85,2,2.37,0,.88-.11,1.75-.16,2.63C215.82,82.41,215.93,82.52,217.46,82.43Zm-2.84-2.17-.25-.32a9.82,9.82,0,0,0-1.77,1,1.28,1.28,0,0,0-.14,1.16c.08.22.61.42.93.4C214.94,82.37,214.39,81.1,214.62,80.26Z"/><path d="M168,82.69c-.4.37-.78,1-1.2,1a7.22,7.22,0,0,1-2.12-.49l0-.36a5.87,5.87,0,0,1-1.58.72c-.56.07-1.48,0-1.66-.32a2.12,2.12,0,0,1,0-1.9,5,5,0,0,1,2.25-1.46c1-.32,1.57-.73,1.25-1.85s-.86-1.36-2.32-1c0,.13.05.29,0,.41a6.37,6.37,0,0,1-.71,1.18c-.07.08-.48-.12-.73-.19a5.64,5.64,0,0,1,.56-1.22,2.12,2.12,0,0,1,1-.77,5.42,5.42,0,0,1,2.61-.26c1,.29,1.08,1.37,1,2.34,0,.79-.08,1.59-.15,2.38-.13,1.39.09,1.63,1.44,1.5Zm-3-2.85a9,9,0,0,0-1.89,1,1.4,1.4,0,0,0-.27,1.21c.07.23.68.48,1,.43C165.38,82.27,164.87,81.07,165,79.84Z"/><path d="M306.18,77c-.05,1.49-.22,1.66-1.42,1.49,0-1.23,1.57-2.55,3.13-2.6,1.26,0,2,.76,2.06,2.23a19.05,19.05,0,0,1-.15,2.39c-.2,1.64,0,1.89,1.52,1.93-.45,1.69-1.61,1.85-3.18.42a5,5,0,0,1-1.48.69c-.59,0-1.53,0-1.73-.39a2.06,2.06,0,0,1,.1-1.89,5.06,5.06,0,0,1,2.27-1.41c1-.31,1.45-.75,1.17-1.79S307.63,76.73,306.18,77Zm2.11,2.9a10.27,10.27,0,0,0-1.78,1,1.29,1.29,0,0,0-.15,1.13,1.13,1.13,0,0,0,.92.43C308.82,82.38,308.35,81.15,308.29,79.94Z"/><path d="M130,77.06c.09,1-.09,1.75-1.51,1.53.12-.39.11-.86.34-1a8,8,0,0,1,2.14-1.45,2,2,0,0,1,2.84,2,25.21,25.21,0,0,1-.18,2.74c-.12,1.47.08,1.69,1.73,1.81-.41.39-.79,1.06-1.22,1.09a6.64,6.64,0,0,1-2.12-.49l0-.36a5.73,5.73,0,0,1-1.58.72c-.55.07-1.46,0-1.64-.33a2.07,2.07,0,0,1,0-1.89,5.6,5.6,0,0,1,2.36-1.49c1-.33,1.45-.76,1.14-1.79S131.4,76.71,130,77.06Zm2.2,2.84a10.78,10.78,0,0,0-1.85,1,1.27,1.27,0,0,0-.13,1.14,1.14,1.14,0,0,0,.92.4C132.17,82.43,132.45,81.79,132.17,79.9Z"/><path d="M242.21,76.44l2.79-.91c0,1.51,0,3,0,4.39,0,1.68-.11,3.37-.07,5,.06,2.06-2.5,4.2-4.44,3.29.55-.32,1-.58,1.36-.79a2.18,2.18,0,0,0,1.52-2.27c-.07-1.58.24-3.16.27-4.74C243.66,79,243.82,77.55,242.21,76.44Z"/><path d="M144.63,82.36c-.94,1.68-2,2-3.41,1.36-1.06-.49-.8-1.47-.91-2.28a9.1,9.1,0,0,1,.06-2.27c.12-1,.09-1.82-1.16-2.14l.72.51,2-2.76.32,1.42a6,6,0,0,1,1.28-.15,2.56,2.56,0,0,1,.84.45c-.25.24-.45.63-.73.7a9.91,9.91,0,0,1-1.87,0,42,42,0,0,0,.07,4.51c0,.34.9.66,1.44.83C143.62,82.68,144.05,82.47,144.63,82.36Z"/><path d="M191.22,77.57l1.9-3.17.32,1.81a6.31,6.31,0,0,1,1.36-.16c.28,0,.55.3.82.47-.25.24-.46.61-.75.67a10,10,0,0,1-1.85,0c0,1.54,0,3,0,4.36,0,.9.66,1.08,1.4,1,.39,0,.76-.14,1.35-.25-.45,1.18-1.1,1.77-2.17,1.64s-2.05-.23-2-1.67c0-1.11-.06-2.22,0-3.32.05-.91,0-1.68-1.14-2Z"/><path d="M262.4,82.07a6.89,6.89,0,0,1-1.27,1.36c-2.07,1.27-4.23.16-4.87-2.43-.72-3,1.75-5.83,4.55-5.2a3,3,0,0,1,1.36.84c.15.15,0,.63-.05,1a5.75,5.75,0,0,1-.93-.1c-.17,0-.31-.24-.44-.39-1-1.13-2.06-1-2.68.43a4.79,4.79,0,0,0,.14,3.94c.59,1.36,1.82,1.61,3.08.77l.76-.52Z"/><path d="M157.56,76.14l3-.29c0,.22.07.4,0,.43-2,1.39-2.11,3.76-3,5.72-.32.68-.54,1.4-.9,2.34-1.84-2.64-1.15-6.27-3.82-8.47l3.79.24c-1.84,1.84.08,3.29.07,5l.6.05c.46-1.23,1-2.44,1.33-3.71C158.69,77.16,158.06,76.72,157.56,76.14Z"/><path d="M351.93,83.7h-4.11l-.28-.26c1.64-.57,1.27-1.85,1.4-3a3.34,3.34,0,0,0-1.26-3.24l2.44-1.2.58,1.11a5,5,0,0,1,1.24-.67c.35-.09,1.07,0,1.11.17a6.22,6.22,0,0,1,0,1.55A3.34,3.34,0,0,1,351.9,78c-1-.49-1.64-.14-1.69,1,0,.23,0,.47,0,.71C350.32,82.14,350.32,82.14,351.93,83.7Z"/><path d="M354.29,81.42a8,8,0,0,0,2.26,1.47c.47.09,1.1-.63,1.66-1a9.83,9.83,0,0,0-1.28-1.37,9.86,9.86,0,0,0-1.41-.56,2.2,2.2,0,0,1-1.17-2.6,2.43,2.43,0,0,1,2.54-1.55,16.7,16.7,0,0,1,1.77.29c-.09.66-.19,1.28-.32,2.17-.32-.46-.45-.9-.72-1a3.86,3.86,0,0,0-1.72-.36c-.24,0-.69.81-.6.93a2.4,2.4,0,0,0,1.22,1c1.63.38,2.22.82,2.39,2a2.34,2.34,0,0,1-1.11,2.67,2.78,2.78,0,0,1-3.14-.33C354.29,82.94,354.4,82,354.29,81.42Z"/><path d="M297.94,77.27a15.72,15.72,0,0,1,2.28-1.07c.22-.06.6.45,1,.8a4.72,4.72,0,0,1,1.13-.57c.34-.07,1,.07,1.07.26a2.4,2.4,0,0,1-.09,1.42,1.63,1.63,0,0,1-1.06,0c-.95-.48-1.68-.16-1.72.91a13.28,13.28,0,0,0,.06,2.75,3,3,0,0,0,.86,1.25c.19.21.49.32.66.75h-3.95l-.28-.29c1.6-.58,1.37-1.81,1.43-3S299.4,78.11,297.94,77.27Z"/><path d="M268,76.14l-.31,2.17c-.34-.49-.46-.88-.71-1a3.8,3.8,0,0,0-1.69-.44c-.24,0-.69.6-.67.9,0,.69.5,1,1.27,1.12,1.81.23,2.43,1,2.42,2.63a2.17,2.17,0,0,1-2,2.28,4.59,4.59,0,0,1-2.44-.71c-.31-.2-.15-1.12-.2-1.71l.29,0c.24.34.48.69.72,1a1.43,1.43,0,0,0,1.92.46c.39-.19.95-.93.87-1.06a3.09,3.09,0,0,0-1.38-1.26c-1.16-.38-2.14-.77-2.38-2.15a2.16,2.16,0,0,1,1.89-2.51,6,6,0,0,1,1.19,0C267.18,75.94,267.56,76.05,268,76.14Z"/><path d="M196.85,76.81l2.22-.5c.05.65.13,1.3.13,2,0,1.08-.13,2.16,0,3.23a11.87,11.87,0,0,0,.76,2.29c-.91.39-2.18-.2-3.48,0,1.47-.7,1.41-2,1.4-3.18s.32-2.57-1.08-3.42Z"/><path d="M244,71.53c.38.49.94.92.86,1.15-.15.43-.67,1.07-1,1s-.87-.6-1.3-.94Z"/><path d="M199.5,73.1a3.89,3.89,0,0,1-1.4.69c-.25,0-.56-.58-.85-.9a4.46,4.46,0,0,1,1.24-.89c.26-.07.67.39,1,.6Z"/><path class="cls-1" d="M257.76,18.14a1.82,1.82,0,0,0,.85,2c3.1,2.5,6.22,5,9.3,7.51a1.29,1.29,0,0,0,1.61.16q4.64-2.23,9.3-4.37a1.45,1.45,0,0,0,1-1.43c.24-3.55.49-7.09.86-10.62A2.09,2.09,0,0,0,279.38,9c-3.29-1.71-6.61-3.36-9.75-5.35a2,2,0,0,0-2-.09c-2.7,1.09-5.32,2.36-8.11,3.23a.91.91,0,0,0-.73.92C258.44,11.16,258.1,14.66,257.76,18.14Z"/><path class="cls-2" d="M257.76,18.14c.34-3.48.68-7,1-10.47a.91.91,0,0,1,.73-.92c2.79-.87,5.41-2.14,8.11-3.23a2,2,0,0,1,2,.09c3.14,2,6.46,3.64,9.75,5.35a2.09,2.09,0,0,1,1.26,2.39c-.37,3.53-.62,7.07-.86,10.62a1.45,1.45,0,0,1-1,1.43q-4.67,2.13-9.3,4.37a1.29,1.29,0,0,1-1.61-.16c-3.08-2.52-6.2-5-9.3-7.51A1.82,1.82,0,0,1,257.76,18.14Zm10.43,7.67c.2-2.82.35-5.47.49-8.12a4,4,0,0,0-2.44-4.23,2.64,2.64,0,0,1-.29-.21L260,9.2c-.29,2.72-.53,5.29-.85,7.84a1.87,1.87,0,0,0,.58,1.8A64.51,64.51,0,0,0,268.19,25.81Zm2-.75c2.79-1.06,5.32-2.41,7.93-3.57.35-.16.4-.45.43-.78.24-2.55.51-5.09.58-7.64,0-.78-.07-1.09-1-.78-2.41.81-4.86,1.54-7.29,2.31-.39.12-.7.25-.69.79C270.22,18.57,270.21,21.76,270.21,25.06Zm8.12-15-9-5.15a.63.63,0,0,0-.66,0c-2.4,1-4.81,2-7.37,3.09,2.56,1.9,5.15,3.52,7.71,5.19.38.25.68.05,1-.07Z"/><path class="cls-1" d="M268.19,25.81a64.51,64.51,0,0,1-8.44-7,1.87,1.87,0,0,1-.58-1.8c.32-2.55.56-5.12.85-7.84L266,13.25a2.64,2.64,0,0,0,.29.21,4,4,0,0,1,2.44,4.23C268.54,20.34,268.39,23,268.19,25.81Zm-3.09-8.6a2.47,2.47,0,0,0-1.47-1.85,1.22,1.22,0,0,0-1.44.26c-.71.67-.31,1.39-.07,2.1,0,.11.06.23.11.34.29.79.84,1.35,1.69,1.19S265.1,18.37,265.1,17.21Zm2.5,3.91c.1-.7-.55-.93-.86-1.37s-.86-.77-1.44-.36a1.28,1.28,0,0,0-.47,1.68c.09.22.26.4.35.62.26.62.48,1.38,1.35,1.22S267.46,21.85,267.6,21.12Zm-4.29-8.06a2.24,2.24,0,0,0-1.92-1.5c-.72,0-.95.49-.94,1.11,0,1.38.69,2.39,1.51,2.37C263,15,263.3,14.36,263.31,13.06Z"/><path class="cls-1" d="M270.21,25.06c0-3.3,0-6.49,0-9.67,0-.54.3-.67.69-.79,2.43-.77,4.88-1.5,7.29-2.31.9-.31,1,0,1,.78-.07,2.55-.34,5.09-.58,7.64,0,.33-.08.62-.43.78C275.53,22.65,273,24,270.21,25.06Zm7.67-9c.1-.73-.51-1-.94-1.49a1.05,1.05,0,0,0-1.57-.23,1.21,1.21,0,0,0-.31,1.61,3.69,3.69,0,0,1,.29.64c.17.75.46,1.46,1.39,1.25A1.56,1.56,0,0,0,277.88,16.06Zm-3.31,4.8a3.08,3.08,0,0,0-1.08-1.72,1.12,1.12,0,0,0-1.34.13c-1.18.83.12,1.73,0,2.6-.08.4.23.73.68.85C273.71,23,274.56,22.16,274.57,20.86Z"/><path class="cls-1" d="M278.33,10.07,270,13.13c-.33.12-.63.32-1,.07-2.56-1.67-5.15-3.29-7.71-5.19,2.56-1.07,5-2.07,7.37-3.09a.63.63,0,0,1,.66,0ZM271,9a2.79,2.79,0,0,0-1.49-1.78,1.25,1.25,0,0,0-1.52.3c-.67.68-.32,1.29.1,1.91a.6.6,0,0,1,.06.23c.1.87.62,1.48,1.46,1.39C270.66,10.94,270.89,10,271,9Z"/><path class="cls-2" d="M265.1,17.21c0,1.16-.33,1.88-1.18,2s-1.4-.4-1.69-1.19c-.05-.11-.07-.23-.11-.34-.24-.71-.64-1.43.07-2.1a1.22,1.22,0,0,1,1.44-.26A2.47,2.47,0,0,1,265.1,17.21Z"/><path class="cls-2" d="M267.6,21.12c-.14.73-.12,1.61-1.07,1.79s-1.09-.6-1.35-1.22c-.09-.22-.26-.4-.35-.62a1.28,1.28,0,0,1,.47-1.68c.58-.41,1.08-.15,1.44.36S267.7,20.42,267.6,21.12Z"/><path class="cls-2" d="M263.31,13.06c0,1.3-.32,2-1.35,2-.82,0-1.47-1-1.51-2.37,0-.62.22-1.09.94-1.11A2.24,2.24,0,0,1,263.31,13.06Z"/><path class="cls-2" d="M277.88,16.06a1.56,1.56,0,0,1-1.14,1.78c-.93.21-1.22-.5-1.39-1.25a3.69,3.69,0,0,0-.29-.64,1.21,1.21,0,0,1,.31-1.61,1.05,1.05,0,0,1,1.57.23C277.37,15,278,15.33,277.88,16.06Z"/><path class="cls-2" d="M274.57,20.86c0,1.3-.86,2.1-1.78,1.86-.45-.12-.76-.45-.68-.85.16-.87-1.14-1.77,0-2.6a1.12,1.12,0,0,1,1.34-.13A3.08,3.08,0,0,1,274.57,20.86Z"/><path class="cls-2" d="M271,9c-.1,1-.33,1.94-1.39,2.05-.84.09-1.36-.52-1.46-1.39a.6.6,0,0,0-.06-.23c-.42-.62-.77-1.23-.1-1.91a1.25,1.25,0,0,1,1.52-.3A2.79,2.79,0,0,1,271,9Z"/><polyline class="cls-3" points="285.72 7.08 370.37 7.08 370.37 96.05 5.79 96.05 5.79 7.08 251.01 7.08"/></svg>