<svg id="Capa_1" data-name="Capa 1" xmlns="http://www.w3.org/2000/svg" viewBox="0 0 377.29 103.05"><defs><style>.cls-1,.cls-2{fill:#fff;}.cls-1{stroke:#fccb1b;stroke-miterlimit:10;stroke-width:3.45px;}.cls-3{fill:#fccb1b;}</style></defs><title>Mesa de trabajo 1 copia</title><polyline class="cls-1" points="286.36 7.35 371.01 7.35 371.01 96.32 6.43 96.32 6.43 7.35 251.65 7.35"/><path d="M105,37.89c1.83-1.22,3.27-2.35,4.86-3.21a13.2,13.2,0,0,1,4.51-1.74A5.78,5.78,0,0,1,120,36.5c.8,1.55.91,1.61,2.12.41,1.06-1.06,2.13-2.13,3.28-3.08,1.68-1.38,6.46-1.31,8.35-.24,2.52,1.44,3.09,3.89,3.3,6.33.3,3.44.24,6.92.22,10.37,0,2.12-.21,4.23-.37,6.34a2.67,2.67,0,0,0,1.5,2.94c1,.54,2.3,1.11,2.13,2.71-.14,1.36-.69,1.77-2.05,1.66-2-.17-4.06-.27-6.1-.35-1-.05-2,.1-3,0a1.75,1.75,0,0,1-1.07-2.92c.73-.89,1.61-1.66,2.39-2.51.26-.27.65-.71.57-.94-.74-2.23.34-4.42.07-6.65a53.33,53.33,0,0,1-.23-5.37c0-1.09,0-2.19.08-3.28.08-1.72-1.29-2.49-2.42-2.91a4,4,0,0,0-4.08.53,5.54,5.54,0,0,1-1.54.91A4.41,4.41,0,0,0,120.73,44a41.88,41.88,0,0,0,.53,5.31c.4,2,0,4.19-.13,6.29,0,.52-.13,1-.12,1.55a2.79,2.79,0,0,0,2.3,2.91c2,.54,2.59,1.11,2.3,2.55-.11.54-.71,1.33-1.16,1.39a41.91,41.91,0,0,1-4.76.19c-1.38,0-2.77.08-4.15.07a15.86,15.86,0,0,1-2.93-.17,1.66,1.66,0,0,1-1.43-2A1.92,1.92,0,0,1,113,60.2c2.12-.31,2.28-.63,2-2.73a24.58,24.58,0,0,1,0-3.21c0-1.35-.11-2.71-.15-4.06a8.12,8.12,0,0,1,0-1.91c.18-.86.46-1.65-.17-2.48-.17-.22,0-.68,0-1,0-1.19.11-2.4,0-3.58a2.37,2.37,0,0,0-2-2.26,8.16,8.16,0,0,0-6.59,1.37A3.54,3.54,0,0,0,105,42.88c0,1.82.36,3.64.36,5.46,0,2.37-.2,4.74-.31,7.11,0,.15-.05.31-.07.47-.26,2.65.15,3.41,2.7,4.19,1.3.4,1.36,1.25,1.36,2.3a1.69,1.69,0,0,1-1.62,1.75,10.75,10.75,0,0,1-1.79.1c-2.64,0-5.28,0-7.92.06-2,0-2.52-.47-2.41-2.44,0-.78.38-1.11,1.16-1.22A8.47,8.47,0,0,0,98.7,60a1.13,1.13,0,0,0,.39-.88c0-2,0-3.91,0-5.87,0-1.71,0-3.43.11-5.14s.24-3.63.24-5.45a2.87,2.87,0,0,0-2.41-3c-.85-.2-1.67-.56-1.67-1.43a2.12,2.12,0,0,1,1.69-2.13A14.41,14.41,0,0,0,101,34a3.06,3.06,0,0,1,2.83-.33c.89.21.86,1.12.89,1.89S104.86,36.91,105,37.89Z"/><path d="M37.89,19.51c-.17,2.17-.34,4.33-.49,6.5a5.49,5.49,0,0,0,.15.79,13.76,13.76,0,0,1,0,2.4,8.76,8.76,0,0,0,.6,5.55c.36.67.83.71,1.3.11a3.14,3.14,0,0,1,2.85-1.19,5.41,5.41,0,0,0,2.23-.3c3.12-1.27,5.48.26,7.76,2a4.6,4.6,0,0,1,1.77,3.89,57,57,0,0,0,.25,8.06c.22,1.54-.12,3,0,4.45a67.14,67.14,0,0,0,.74,7.08c.07.43,1,.74,1.51,1.06s1.61.61,2,1.19c1.14,1.52.27,3.44-1.6,3.28-3.88-.34-7.8.6-11.65-.46a1.6,1.6,0,0,1-1.43-1.63c0-1,.13-1.84,1.19-2.23a3.58,3.58,0,0,1,.35-.09c2.77-.75,3.29-1.78,2.93-4.68-.31-2.46-.83-4.94-.24-7.47.53-2.28-.08-4.51-.56-6.73-.05-.23-.11-.56-.27-.65-1.52-.86-3-1.76-4.63-2.46a5.66,5.66,0,0,0-2.14,0,3.29,3.29,0,0,0-3.29,3.49c0,.88.19,1.75.22,2.63.07,1.79,0,3.57.13,5.36,0,1,.21,2,.28,3,.11,1.47.26,3,.23,4.42,0,2.1.42,2.85,2.32,3.64a1.43,1.43,0,0,1,.77,1.15,4.56,4.56,0,0,1-1,2.29,3,3,0,0,1-2,.56c-2,0-3.9-.33-5.85-.3a15.06,15.06,0,0,0-3.73.7c-1.38.38-1.67-.52-2-1.46-.48-1.53-.29-2.28.77-2.75A14.69,14.69,0,0,1,29.64,60a2,2,0,0,0,1.76-2.62,6,6,0,0,1,0-1.41c.11-1.61.3-3.21.37-4.82.11-2.35.15-4.7.19-7.06a10.62,10.62,0,0,0-.19-1.46,19.71,19.71,0,0,1-.31-2.85c0-2.47.26-5,.23-7.43,0-1.81-.33-3.62-.5-5.44a9.13,9.13,0,0,1-.12-2,3.17,3.17,0,0,0-1.09-3c-.53-.48-1.17-.82-1.75-1.25-1.74-1.33-1.64-3.17.36-4a54.77,54.77,0,0,1,6.11-2,2.56,2.56,0,0,1,3,2.35c0,.83,0,1.68,0,2.52Z"/><path d="M248.44,26.13a29.09,29.09,0,0,0,0-3.1,2.42,2.42,0,0,0-.74-1.36c-.83-.79-1.8-1.44-2.66-2.22a1.85,1.85,0,0,1,.38-3.25,13.88,13.88,0,0,1,8.38-1.32c1.27.13,2.39,1.84,2.23,3.43-.35,3.52-.83,7-1.26,10.54,0,.16-.1.34-.06.47.83,2.45-.4,4.8-.33,7.22.1,3.61.19,7.23.22,10.85,0,1.31-.21,2.62-.26,3.93a60.92,60.92,0,0,0-.09,6.19c.14,2,1.07,2.61,3,2.48s2.45,0,2.63,1.31a2.51,2.51,0,0,1-2.36,3c-1.57.17-3.17.13-4.75.21a3.3,3.3,0,0,0-.93.21c-1.92.66-3.24.19-4.16-1.65-.39-.78-.78-.81-1.5-.55-1.61.58-3.24,1.1-4.88,1.59a2.55,2.55,0,0,1-1.31.09c-3.51-.81-7.17-1.57-9.22-4.92-1.77-2.88-3.21-6-2.76-9.55.32-2.5.79-5,1.2-7.48a1.61,1.61,0,0,1,.25-.79c2.17-2.05,3.41-5.12,6.53-6.12q3.19-1,6.45-1.81a4,4,0,0,1,2,.17,2.63,2.63,0,0,0,3.49-2c.29-1.85.47-3.71.7-5.57Zm-.05,20.29h.14c0-.8.05-1.6,0-2.4a20.81,20.81,0,0,0-.35-2.35c-.56-2.88-2.26-4.25-5.21-4.25a11.61,11.61,0,0,1-1.32,0,4.19,4.19,0,0,0-4.3,2.28,22.78,22.78,0,0,0-2.42,5.81c-1,4.62-.25,10.78,5.84,13.39a7.58,7.58,0,0,0,5.76.17c.71-.24,1.13-.58,1-1.48-.05-.48.37-1,.57-1.52a4,4,0,0,0,.5-1.42C248.6,51.89,248.48,49.16,248.39,46.42Z"/><path d="M213.34,60.93c-1.63.94-3.13,1.88-4.69,2.69a5.29,5.29,0,0,1-4.3.31c-.79-.28-1.57-.58-2.37-.83a4.59,4.59,0,0,1-3.39-4.86c0-1.3-.24-2.61-.28-3.91-.06-1.61-.06-3.22,0-4.82,0-1.43.08-2.86.11-4.28,0-1.24-.06-2.49,0-3.72a4.16,4.16,0,0,0-2.54-4.21,2.33,2.33,0,0,1-1.55-2.55A1.78,1.78,0,0,1,196.23,33c2.11,0,4.22-.14,6.33-.19,2.28-.05,3.71,2.22,3.42,4.91-.4,3.67-.6,7.37-.82,11.06-.12,1.95-.18,3.91-.12,5.86a4.36,4.36,0,0,0,.81,1.84,4.6,4.6,0,0,0,4.5,2.23c1.89-.06,2.55-.55,3.16-2.33a9.27,9.27,0,0,1,.45-1,5.93,5.93,0,0,0,.65-4.15,3.53,3.53,0,0,1-.06-2,10.14,10.14,0,0,0,.28-5.54,13.45,13.45,0,0,1-.21-3.1,2.56,2.56,0,0,0-1.52-2.6c-.74-.4-1.53-.7-2.26-1.11a7.15,7.15,0,0,1-1.75-1.2c-.83-.87-.62-1.75.25-2.55a4.47,4.47,0,0,1,5.49-.77,16.08,16.08,0,0,0,3.46.86,16.27,16.27,0,0,1,2.32.53,2.79,2.79,0,0,1,1.49,3.79,13.37,13.37,0,0,0-1.25,5.91c.05,1.94.1,3.89,0,5.82,0,1.14-.44,2.26-.49,3.4-.08,2,0,4,0,6,0,.27.54.6.9.76.18.08.51-.14.77-.25a1.71,1.71,0,0,1,2.47.68,2.29,2.29,0,0,1-1.31,3.19c-2.67.81-5.33,1.73-8.18,1.4a1.7,1.7,0,0,1-1.12-.93A16,16,0,0,1,213.34,60.93Z"/><path d="M324.32,60.91c-1.72,1-3.21,2-4.78,2.76a5.26,5.26,0,0,1-4.19.27c-.83-.29-1.66-.59-2.49-.86a4.5,4.5,0,0,1-3.29-4.46,36.18,36.18,0,0,1-.31-4.49,31.43,31.43,0,0,0,0-4.45c-.08-2.74,0-5.49.17-8.23A4.26,4.26,0,0,0,308,38.06a6.65,6.65,0,0,0-1.51-1,2.2,2.2,0,0,1-1.19-2.29A1.74,1.74,0,0,1,307.14,33c2.15-.08,4.3-.16,6.45-.2s3.69,2.28,3.35,4.84c-.44,3.32-.75,6.66-1,10-.14,1.86,0,3.73,0,5.6a5.14,5.14,0,0,0,1.36,3.83c1.29,1.5,2.74,1.6,4.33,1.59s2.32-.62,2.85-2.22a6.5,6.5,0,0,1,.43-1,6.28,6.28,0,0,0,.67-4.28,9.71,9.71,0,0,1,.11-2.57c.08-1.22.29-2.43.26-3.64a38,38,0,0,0-.44-4.88,2.81,2.81,0,0,0-.92-1.67,18.33,18.33,0,0,0-2.51-1.36,9.07,9.07,0,0,1-1.9-1.22c-1-.92-.79-1.81.2-2.71a4.4,4.4,0,0,1,5.38-.75,16.55,16.55,0,0,0,3.46.87,18.12,18.12,0,0,1,2.21.49c1.67.6,2.18,2.23,1.66,3.92a27.62,27.62,0,0,0-1.2,5.68c-.19,2,.36,4.1-.05,6-.6,2.88-.22,5.71-.36,8.56-.08,1.68,0,1.84,1.66,1.22a1.73,1.73,0,0,1,2.39.67,2.16,2.16,0,0,1-.46,2.72,2.66,2.66,0,0,1-.92.53,22.63,22.63,0,0,1-8.07,1.44c-.88,0-1.08-.55-1.24-1.16S324.51,61.85,324.32,60.91Z"/><path d="M159.75,64.43c-2.46-.24-4.37-.41-6.27-.64a2.86,2.86,0,0,1-1.06-.5c-1.12-.76-2.24-1.52-3.34-2.31a3.2,3.2,0,0,1-.85-.83,44.66,44.66,0,0,1-3.47-5.86,13,13,0,0,1-.88-5.12,19.48,19.48,0,0,1,4.39-11.65,7.6,7.6,0,0,1,2.1-1.75c1.06-.66,2.24-1.12,3.31-1.76,2.16-1.3,4.6-.74,6.9-1.1a4.61,4.61,0,0,1,1.53.24c1,.2,2,.41,3,.65a2.28,2.28,0,0,1,.72.38,15.83,15.83,0,0,0,1.34,1c3,1.59,4.51,4.29,5.58,7.32a14.29,14.29,0,0,1,.94,3.33,25.05,25.05,0,0,1,.06,5.93,17,17,0,0,1-5.14,9.78,8.44,8.44,0,0,1-3.45,1.79C163.25,63.87,161.24,64.14,159.75,64.43Zm-8.67-14.88a13,13,0,0,1,.57,2.33c.26,3.44,2.74,5.57,4.64,8a1.34,1.34,0,0,0,.89.54c1.69-.16,3.67.06,5-.74,3-1.8,5.48-4.28,5-8.36-.15-1.12-.19-2.26-.28-3.38a1.93,1.93,0,0,1,0-.48,6.32,6.32,0,0,0-1.65-5.73c-.49-.55-.73-1.35-1.25-1.87a14,14,0,0,0-3.15-2.58,12.49,12.49,0,0,0-3.51-.67,1.41,1.41,0,0,0-.82,0,8.94,8.94,0,0,0-4.63,5.5A52,52,0,0,0,151.08,49.55Z"/><path d="M77.24,64.43c-2.48-.25-4.38-.41-6.28-.65a2.63,2.63,0,0,1-1-.51c-1.13-.76-2.25-1.52-3.35-2.31a3.66,3.66,0,0,1-.91-.93,35.47,35.47,0,0,1-3.24-5.44,14.65,14.65,0,0,1-1-5.45,19.19,19.19,0,0,1,4.26-11.46,9.29,9.29,0,0,1,2.55-2.14,14.8,14.8,0,0,1,3.37-1.64,38.73,38.73,0,0,1,4.05-.83c2.43-.52,4.72.37,7,.78.75.13,1.34.94,2.07,1.33,3,1.63,4.55,4.34,5.57,7.45.31.95.56,1.91.85,2.87a14,14,0,0,1-.07,7.08,18.11,18.11,0,0,1-3.89,7.84,9.7,9.7,0,0,1-4.54,2.87A34.21,34.21,0,0,1,77.24,64.43Zm-8.7-14.87c.36,1.41.69,3,1.2,4.61.76,2.39,2.75,4,4.22,5.88a1.59,1.59,0,0,0,1.17.44c2.27-.09,4.45-.36,6.34-1.92a10,10,0,0,0,3.15-9.76,14.41,14.41,0,0,1-.14-1.76c-.19-1.28-.11-2.73-.7-3.81a31.65,31.65,0,0,0-3.56-4.73c-1.6-1.92-4-1.41-6.1-1.87a.38.38,0,0,0-.22.07c-2.17,1.39-4,3.14-4.57,5.7A65.66,65.66,0,0,0,68.54,49.56Z"/><path d="M181.88,51c-.18-3.31-.41-6.62-.51-9.93-.08-2.46,0-4.93,0-7.4,0-.7-.2-1.39-.27-2.09a2.56,2.56,0,0,1,0-1.29c.64-1.28.28-2.55.19-3.86-.14-2.13-.44-4-2.73-5a2.71,2.71,0,0,1-1.09-1.65,1.57,1.57,0,0,1,.86-2.11c2.14-.84,4.29-1.7,6.48-2.44,2.52-.85,3.1-.46,3.11,2.2,0,1.82-.29,3.64-.37,5.47s-.11,3.91-.13,5.87c0,2.24.64,4.52-.44,6.69-.12.24,0,.6.06.91.25,2.33.63,4.64,0,7a8.4,8.4,0,0,0,0,3.2,32,32,0,0,1,0,7.76,11.23,11.23,0,0,0,.5,3.76A2.7,2.7,0,0,0,190,59.9a9.84,9.84,0,0,1,1.54.21,2.78,2.78,0,0,1,1.62,4,1.33,1.33,0,0,1-1,.42c-1,0-2.07-.24-3.11-.24-1.74,0-3.49.13-5.23.15-2.27,0-4.55,0-6.82,0-1.08,0-1.49-1.65-1-3,.67-1.69,2.15-1.49,3.43-1.51.75,0,1.19-.24,1.39-.81a11.19,11.19,0,0,0,.79-3c.13-1.71,0-3.44,0-5.16Z"/><path d="M290.36,64.58c-1.18-.35-3.74-.51-5.53-1.76-2.88-2-5.07-4.85-5.1-8.72a1.57,1.57,0,0,0-.14-.82c-.92-1.33-.76-2.82-.63-4.29.2-2-.3-4.14.6-6.11.1-.21.09-.48.2-.68.62-1.14,1.21-2.3,1.91-3.4a15.45,15.45,0,0,1,10.72-7,10.92,10.92,0,0,1,7.17,1.64A5.2,5.2,0,0,1,302.07,37a3.34,3.34,0,0,1-1.63,3.89c-.92.45-1.82.67-2.47-.46a1.07,1.07,0,0,0-.52-.49c-1.32-.34-1.85-1.43-2.38-2.51-1.23-2.45-3-3-5.22-1.28-1.15.89-2.54,1.94-3,3.2-.7,2.12-1.72,4.28-1.32,6.68.28,1.68.41,3.39.6,5.08a9.55,9.55,0,0,0,2.71,5.76c2.83,2.79,6.43,2.54,9.44-.3a12,12,0,0,1,1.51-1.35,1.25,1.25,0,0,1,2.09,1.07,7,7,0,0,1-.79,2.82C299.43,62.4,295.71,64.44,290.36,64.58Z"/><path d="M339.23,59.78c.25-1.91.4-3.38.67-4.84a3.72,3.72,0,0,1,.74-1.6c.58-.72,1.22-.55,1.43.35a10.81,10.81,0,0,0,3.7,5.59,2.33,2.33,0,0,0,.84.44c2.17.63,6-.83,6.8-2.89A3.79,3.79,0,0,0,352.9,54a5.64,5.64,0,0,0-4.67-2.8c-3-.11-4.64-2.4-6.83-3.79a1.23,1.23,0,0,1-.31-.37c-1.31-2.23-1.44-4.77-1.72-7.22A3.77,3.77,0,0,1,341,36.37a7.41,7.41,0,0,0,1.44-1.61,5,5,0,0,1,5.14-2.27c1.23.19,2.53,0,3.79.07A16.46,16.46,0,0,1,353,33a10.13,10.13,0,0,0,1.56.06c.44,0,1.05-.15,1.3.08a1.83,1.83,0,0,1,.41,1.36c-.21,1.94-.52,3.86-.8,5.78a2.88,2.88,0,0,1-.3,1.15,2.25,2.25,0,0,1-1.09,1c-.24.06-.73-.47-.94-.83-.48-.82-.79-1.74-1.29-2.55a4,4,0,0,0-3.5-2.11,9.64,9.64,0,0,0-3.59,1.16c-1.22.61-1.32,2.66-.35,3.65.2.2.47.45.48.68.05,1.45,1.13,1.48,2.12,1.51,1.2,0,2.4,0,3.4.85a.83.83,0,0,0,.56.14c2.5-.11,3.93,1.48,4.91,3.39a13.41,13.41,0,0,1,.85,10,8.2,8.2,0,0,1-4.16,5,8.37,8.37,0,0,1-6.91.67,38.41,38.41,0,0,1-5.35-2.52C339.69,61.13,339.46,60.18,339.23,59.78Z"/><path d="M272,36.42c-.15,3.62-.4,7.25-.43,10.87,0,3.94.17,7.88.25,11.83,0,1,.8.94,1.44,1,1.71.19,2.38,1.09,2,2.79-.29,1.4-1.49,1.85-3.35,1.6a27.52,27.52,0,0,0-9-.07A1.68,1.68,0,0,1,261,62.58a2.36,2.36,0,0,1,2-2.13c1.87-.11,1.88-.11,2.08-2,.25-2.33.62-4.66.67-7,.08-3.1-.05-6.21-.24-9.3,0-.57-.69-1.13-1.14-1.63a18.8,18.8,0,0,1-2-2.1c-.58-.88-.13-1.65.82-2.11a34.84,34.84,0,0,1,4.47-2.19,6.42,6.42,0,0,1,3.55.18c.53.17.75,1.3,1.11,2Z"/><path d="M295.67,72.37l.55,3.22-.26.17c-.31-.3-.77-.54-.91-.91-1.14-3-5.08-2.48-6.63-.3a5.68,5.68,0,0,0,2.81,8.74,2.32,2.32,0,0,0,2.78-.81c.4-.63.12-1.71.1-2.58a4.22,4.22,0,0,0-.26-1,7.13,7.13,0,0,1,1.12-.21c1,0,2.06,0,3.09,0l0,.33c-.11.1-.21.26-.33.29-1,.17-1.35.73-1.34,1.76,0,1.85-.83,2.76-2.76,3a9.85,9.85,0,0,1-5.13-.59c-3.25-1.32-4-6.48-2.16-8.65a6.89,6.89,0,0,1,7.37-2.38A7,7,0,0,0,295.67,72.37Z"/><path d="M340.14,84.07h-9.8c.36-.39.52-.71.7-.71,1.17-.06,1.17-.86,1.16-1.69,0-2.31,0-4.61-.1-6.91a8.93,8.93,0,0,0-1-2.45l2.36-.87c0,1.79,0,3.4,0,5,0,1.9-.09,3.8-.06,5.7a1.67,1.67,0,0,0,1.85,1.4c.72-.21,1.7-.29,1.66-1.48-.08-2.67-.08-5.34-.24-8,0-.55-.6-1.08-1-1.72l2.52-.91c0,1.73,0,3.29,0,4.85,0,1.9-.09,3.81-.11,5.71a1.16,1.16,0,0,0,1.11,1.31C339.51,83.35,339.73,83.71,340.14,84.07Z"/><path d="M203.43,81.55c-1.07-1.21-1.51-2.44-.61-3.86A3.13,3.13,0,0,1,207,76.61c.78.48,1.36.62,2.11-.08a1.72,1.72,0,0,1,1.4-.2c.2.06.22.75.34,1.24-1.93-.23-2.24.05-2.23,1.77a2.3,2.3,0,0,1-2.37,2.44,15.13,15.13,0,0,0-1.91,0c-.4.09-.73.54-1.09.83.34.27.64.71,1,.76,1.17.17,2.37.21,3.57.27a2,2,0,0,1,2,1.59,3.19,3.19,0,0,1-.66,2.25,5.51,5.51,0,0,1-6,1.12,1.9,1.9,0,0,1-.64-3.27c.17-.19.32-.68.23-.77C201.5,83.33,202.32,82.47,203.43,81.55Zm2.16,3.07h0c-.24,0-.48,0-.72,0-1.62,0-2.22,1-1.49,2.45.6,1.19,2.82,1.7,4.11,1a1.66,1.66,0,0,0,.84-2.12c-.2-.52-1-.87-1.55-1.16A3.09,3.09,0,0,0,205.59,84.62Zm1.64-5.5a1.91,1.91,0,0,0-1.85-2.06c-.81,0-1.62,1.09-1.62,2.17s.83,2.21,1.6,2.18A2.45,2.45,0,0,0,207.23,79.12Z"/><path d="M128.44,81.09c-.38.85-.72,1.72-1.16,2.53a1.19,1.19,0,0,1-.84.53c-1.5,0-3-.12-4.5-.13-1.18,0-2.36.06-3.54.1a5.34,5.34,0,0,1-1.19.06c-.25,0-.47-.3-.7-.47.23-.16.43-.42.68-.48,1.84-.39,1.85-.38,1.86-2.19s0-3.59,0-5.38c0-1.29-.18-2.31-1.68-2.55-.17,0-.31-.2-.45-.61l1.53-.07c1.23-.07,2.45-.18,3.68-.21a8.46,8.46,0,0,1,1.57.21l0,.53a11.56,11.56,0,0,1-1.52.21c-1.13,0-1.42.7-1.41,1.61,0,2.38.19,4.75.16,7.13a1,1,0,0,0,1,1.2,25,25,0,0,0,2.6.11c1.1,0,1.67-.77,2.33-1.46a12.35,12.35,0,0,1,1.25-1Z"/><path d="M227,71.87a11.61,11.61,0,0,1,2.24-.31c.25,0,.7.64.68,1-.1,2.89-.26,5.77-.46,8.65-.12,1.65,0,1.89,1.82,2.33-.37.28-.64.63-.85.6-.88-.16-1.89.64-2.68-.36-.09-.12-.54-.05-.78,0-2.4,1-4.87-1.16-4.45-3.91a3.9,3.9,0,0,1,4.24-3.45c.89,0,1.2-.26,1.33-1.09.2-1.27.18-2.42-1.26-3.15Zm1.13,8.5h.13a13.43,13.43,0,0,0-.21-2,1.78,1.78,0,0,0-2.93-.88,3.72,3.72,0,0,0-1,3.42,2.71,2.71,0,0,0,1.95,2.2,1.48,1.48,0,0,0,2.13-1.54C228.22,81.15,228.18,80.76,228.16,80.37Z"/><path d="M173.53,84c0-3,0-5.85,0-8.7,0-1,0-2-1.27-2.48.35-.31.58-.65.89-.76a13,13,0,0,1,1.77-.39,8.26,8.26,0,0,1,.26,1.54c0,1.3-.15,2.6-.25,4.09.44-.18.69-.26.91-.38a3.09,3.09,0,0,1,3.49.15,3.33,3.33,0,0,1,1.54,3.28c-.33,2.52-1.56,3.68-4.08,3.79C175.78,84.2,174.75,84.07,173.53,84ZM175,79.92a5,5,0,0,0,.32,1.9A3.94,3.94,0,0,0,177,83.37a1.71,1.71,0,0,0,1.51-.55,4.17,4.17,0,0,0,.55-3.51,2.79,2.79,0,0,0-2.94-1.84C174.58,77.61,175.1,78.75,175,79.92Z"/><path d="M317.05,83.61c1.46-.32,1.44-1.31,1.31-2.41-.09-.74.05-1.5,0-2.24s-.51-1.37-1.43-1.23-1.67.48-1.74,1.5a12.85,12.85,0,0,0,0,3.1c.09.53.71,1,1.1,1.46-.45.46-2.95.54-3.75,0,1-.81,1-.8,1.3-3.21.15-1.28.4-2.63-1.48-3.17l.21-.26,2.15-.73.65,1.38c.37-.34.67-.58.92-.85a2.14,2.14,0,0,1,2.63-.41,1.83,1.83,0,0,1,1,2,34,34,0,0,0,0,3.91,4.5,4.5,0,0,0,.7,1.52h-3.45Z"/><path d="M251.49,76.29a3.92,3.92,0,1,1-4,4.12A4,4,0,0,1,251.49,76.29ZM254,80.43h-.1a9.43,9.43,0,0,0-.07-1.06A3,3,0,0,0,251.13,77a2.08,2.08,0,0,0-1.83,2,6.92,6.92,0,0,0,.41,3,2.82,2.82,0,0,0,1.78,1.44,2.1,2.1,0,0,0,2.23-1.46A7.29,7.29,0,0,0,254,80.43Z"/><path d="M186.22,84.12a3.8,3.8,0,0,1-4.09-3.74,4,4,0,0,1,4.19-4.1,3.92,3.92,0,1,1-.1,7.84Zm-2.5-4.25a10.64,10.64,0,0,0,.83,2.4,2,2,0,0,0,3.34.42,3.81,3.81,0,0,0,.26-4.19,4,4,0,0,0-1.53-1.41C185.05,76.51,184,77.66,183.72,79.87Z"/><path d="M325.93,84.12a3.79,3.79,0,0,1-4.1-3.72A4,4,0,0,1,326,76.28a3.92,3.92,0,1,1-.06,7.84Zm-2.52-4.38A8.29,8.29,0,0,0,324,81.9a3.32,3.32,0,0,0,1.67,1.49A2.22,2.22,0,0,0,328,82.07c.78-1.33-.05-4.33-1.44-4.91-.83-.35-1.77-.46-2.32.5A15.54,15.54,0,0,0,323.41,79.74Z"/><path d="M238.61,79.1c-1.44,0-2.73,0-4,0-1.54,0-1.85.47-1.13,1.85A2.76,2.76,0,0,0,237,82.37c.37-.12.72-.3,1.09-.45.08,1.17-.88,2.07-2.35,2.25a3.76,3.76,0,0,1-4-3.54c-.26-1.94,1.29-4.28,3-4.6S238.06,76.83,238.61,79.1Zm-5.3-.5c1,0,1.84,0,2.69-.16.29,0,.75-.31.78-.51a1.2,1.2,0,0,0-.47-.87C235.26,76.24,233.79,76.93,233.31,78.6Z"/><path d="M152.89,79h-5.11c-.49,2.93,1.59,4.08,4.77,2.93,0,1.18-1.11,2.16-2.63,2.23a3.78,3.78,0,0,1-3.78-3.69c-.11-2.23,1.44-4.33,3.29-4.47A3,3,0,0,1,152.89,79Zm-3.36-2.51c-.57.48-1.15,1-1.69,1.48,0,0,.24.61.36.6a17,17,0,0,0,2.37-.18c.24,0,.6-.24.62-.4a1,1,0,0,0-.28-.83A7.42,7.42,0,0,0,149.53,76.52Z"/><path d="M347.34,79.1h-4.12c-1.2,0-1.49.41-1.06,1.53a2.82,2.82,0,0,0,3.68,1.74,11.72,11.72,0,0,0,1.1-.47c.1,1.19-.94,2.14-2.46,2.28a3.74,3.74,0,0,1-3.91-3.53c-.21-2.23,1.35-4.47,3.24-4.62A3.1,3.1,0,0,1,347.34,79.1Zm-5.09-.5c.95,0,1.84-.08,2.73-.17.23,0,.6-.24.62-.4s-.1-.76-.27-.81a3.78,3.78,0,0,0-1.85-.3A1.51,1.51,0,0,0,342.25,78.6Z"/><path d="M280.78,82.69c-.6,1.73-1.81,1.91-3.19.48a5.58,5.58,0,0,1-1.56.7c-.55.07-1.46,0-1.64-.33a2,2,0,0,1,0-1.89,5.67,5.67,0,0,1,2.36-1.49c1-.33,1.46-.74,1.14-1.79S277,77,275.61,77.32c0,.86-.07,1.79-1.6,1.55.16-.44.19-.91.44-1.15a6.35,6.35,0,0,1,1.73-1.23c1.87-.81,3.18.07,3.18,2.1,0,.83-.11,1.67-.18,2.5C279.07,82.59,279.25,82.79,280.78,82.69Zm-2.85-2.17-.25-.31a9.86,9.86,0,0,0-1.77,1,1.27,1.27,0,0,0-.15,1.14c.09.23.62.43.94.41C278.25,82.64,277.72,81.38,277.93,80.52Z"/><path d="M218.1,82.7c-.56,1.73-1.8,1.9-3.17.46a5.61,5.61,0,0,1-1.56.71c-.54.07-1.45,0-1.63-.32a2.07,2.07,0,0,1-.05-1.89,5.62,5.62,0,0,1,2.36-1.5c1-.33,1.48-.71,1.16-1.77s-.85-1.4-2.26-1.07c0,.92-.12,1.81-1.45,1.56,0-1.34,1.6-2.64,3.16-2.68,1.28,0,2.06.85,2,2.37,0,.88-.11,1.75-.16,2.63C216.46,82.68,216.57,82.79,218.1,82.7Zm-2.84-2.17-.25-.31a9.21,9.21,0,0,0-1.77,1,1.28,1.28,0,0,0-.14,1.16c.08.22.61.42.93.4C215.58,82.64,215,81.37,215.26,80.53Z"/><path d="M168.65,83c-.4.37-.78,1-1.2,1a6.92,6.92,0,0,1-2.12-.49l0-.36a5.87,5.87,0,0,1-1.58.72c-.56.08-1.48,0-1.66-.32a2.12,2.12,0,0,1,0-1.9,5,5,0,0,1,2.25-1.45c1-.33,1.57-.74,1.25-1.86s-.86-1.36-2.32-1c0,.13,0,.3,0,.41a6.37,6.37,0,0,1-.71,1.18c-.07.08-.48-.12-.73-.18a5.51,5.51,0,0,1,.56-1.23,2.12,2.12,0,0,1,1-.77,5.42,5.42,0,0,1,2.61-.26c.95.29,1.08,1.38,1,2.34,0,.79-.08,1.59-.15,2.39-.13,1.39.09,1.62,1.44,1.49Zm-3-2.84a8.55,8.55,0,0,0-1.89,1,1.4,1.4,0,0,0-.27,1.21c.07.23.68.48,1,.43C166,82.54,165.51,81.35,165.67,80.12Z"/><path d="M306.82,77.31c-.05,1.49-.22,1.66-1.42,1.49,0-1.23,1.57-2.55,3.13-2.6,1.26,0,2,.76,2.06,2.24a19,19,0,0,1-.15,2.38c-.2,1.64,0,1.89,1.52,1.93-.45,1.69-1.61,1.85-3.18.43a4.92,4.92,0,0,1-1.48.68c-.59,0-1.52,0-1.73-.39a2.06,2.06,0,0,1,.1-1.89,5.06,5.06,0,0,1,2.27-1.41c1-.31,1.45-.75,1.17-1.78S308.27,77,306.82,77.31Zm2.11,2.9a10.31,10.31,0,0,0-1.78,1,1.26,1.26,0,0,0-.15,1.12,1.13,1.13,0,0,0,.92.43C309.46,82.65,309,81.42,308.93,80.21Z"/><path d="M130.61,77.34c.09,1-.09,1.74-1.51,1.52.12-.39.11-.86.34-1a7.75,7.75,0,0,1,2.14-1.44,2,2,0,0,1,2.84,2,25.21,25.21,0,0,1-.18,2.74c-.12,1.47.08,1.69,1.73,1.81-.41.39-.79,1.06-1.22,1.09a6.9,6.9,0,0,1-2.12-.48l0-.37a5.45,5.45,0,0,1-1.58.72c-.55.07-1.46,0-1.64-.32a2.07,2.07,0,0,1,0-1.89,5.53,5.53,0,0,1,2.36-1.5c1-.33,1.45-.76,1.14-1.79S132,77,130.61,77.34Zm2.2,2.83a10.78,10.78,0,0,0-1.85,1,1.27,1.27,0,0,0-.13,1.14c.09.23.61.42.92.41C132.81,82.7,133.09,82.06,132.81,80.17Z"/><path d="M242.85,76.71l2.79-.91c0,1.51,0,3,0,4.39,0,1.68-.11,3.37-.07,5,.06,2.06-2.5,4.2-4.43,3.29.54-.32.94-.58,1.35-.79A2.18,2.18,0,0,0,244,85.47c-.07-1.57.24-3.16.27-4.74C244.3,79.31,244.46,77.82,242.85,76.71Z"/><path d="M145.27,82.64c-.93,1.67-2,2-3.41,1.35-1.06-.49-.8-1.47-.91-2.28a9,9,0,0,1,.06-2.26c.12-1,.09-1.83-1.16-2.15l.72.51,2-2.76.32,1.42a6.69,6.69,0,0,1,1.28-.15,2.56,2.56,0,0,1,.84.45c-.25.24-.45.63-.73.7a9.91,9.91,0,0,1-1.87,0A42,42,0,0,0,142.5,82c0,.34.9.67,1.44.83C144.26,83,144.69,82.74,145.27,82.64Z"/><path d="M191.86,77.84l1.9-3.17.32,1.81a6.31,6.31,0,0,1,1.36-.16c.28,0,.55.31.82.47-.25.24-.46.62-.75.67a9.84,9.84,0,0,1-1.85,0c0,1.53,0,2.94,0,4.35,0,.9.66,1.08,1.4,1,.39,0,.76-.14,1.35-.25-.45,1.18-1.1,1.77-2.17,1.64s-2.05-.22-2-1.67c0-1.11-.06-2.21,0-3.32,0-.91,0-1.68-1.14-1.94Z"/><path d="M263,82.35a6.83,6.83,0,0,1-1.27,1.35c-2.07,1.27-4.23.16-4.87-2.43-.72-3,1.75-5.83,4.55-5.2a2.93,2.93,0,0,1,1.36.85c.15.15,0,.63-.05,1a7.16,7.16,0,0,1-.93-.11c-.17,0-.31-.24-.44-.38-1-1.14-2.06-1-2.68.42a4.79,4.79,0,0,0,.14,3.94c.59,1.36,1.82,1.61,3.08.77l.76-.52Z"/><path d="M158.2,76.42l3-.3c0,.22.07.4,0,.43-2,1.39-2.11,3.76-3,5.72-.32.68-.54,1.4-.9,2.34-1.84-2.64-1.15-6.26-3.82-8.47l3.79.24c-1.84,1.84.08,3.29.07,5l.6,0c.46-1.23,1-2.44,1.33-3.71C159.33,77.43,158.7,77,158.2,76.42Z"/><path d="M352.57,84h-4.11l-.28-.27c1.64-.57,1.27-1.85,1.4-3a3.34,3.34,0,0,0-1.26-3.24l2.44-1.2.58,1.11a5.37,5.37,0,0,1,1.24-.67c.35-.09,1.07,0,1.11.17a5.77,5.77,0,0,1,0,1.55,3.34,3.34,0,0,1-1.12-.14c-1-.49-1.63-.14-1.69,1,0,.24,0,.48,0,.71C351,82.41,351,82.41,352.57,84Z"/><path d="M354.93,81.69a7.78,7.78,0,0,0,2.26,1.47c.47.09,1.1-.63,1.66-1a10.43,10.43,0,0,0-1.28-1.37,8.79,8.79,0,0,0-1.41-.55,2.21,2.21,0,0,1-1.17-2.6,2.42,2.42,0,0,1,2.54-1.56,16.7,16.7,0,0,1,1.77.29c-.09.66-.19,1.28-.32,2.17-.32-.46-.45-.9-.72-1a3.85,3.85,0,0,0-1.72-.35c-.24,0-.69.8-.6.92a2.47,2.47,0,0,0,1.22,1c1.63.37,2.22.81,2.39,2a2.34,2.34,0,0,1-1.11,2.67,2.76,2.76,0,0,1-3.14-.33C354.93,83.21,355,82.29,354.93,81.69Z"/><path d="M298.58,77.54a15.72,15.72,0,0,1,2.28-1.07c.22-.06.6.45,1.05.8a4.62,4.62,0,0,1,1.14-.57c.33-.07,1,.07,1.06.26a2.4,2.4,0,0,1-.09,1.42c0,.1-.75.1-1.06,0-.95-.48-1.68-.15-1.72.91A13.28,13.28,0,0,0,301.3,82a3.06,3.06,0,0,0,.86,1.26c.19.21.49.31.66.74h-3.95l-.28-.29c1.6-.58,1.37-1.81,1.43-3S300,78.38,298.58,77.54Z"/><path d="M268.65,76.41l-.31,2.17c-.34-.48-.46-.88-.71-1a4.08,4.08,0,0,0-1.69-.44c-.24,0-.69.6-.67.9,0,.69.5,1,1.27,1.12,1.81.23,2.43,1,2.42,2.63a2.16,2.16,0,0,1-2,2.28,4.59,4.59,0,0,1-2.44-.71c-.31-.2-.15-1.12-.2-1.71l.29,0,.72,1a1.45,1.45,0,0,0,1.92.46c.39-.2.95-.94.87-1.06a3.06,3.06,0,0,0-1.38-1.27c-1.16-.38-2.14-.77-2.38-2.15a2.14,2.14,0,0,1,1.89-2.5,5.27,5.27,0,0,1,1.19,0C267.82,76.21,268.2,76.32,268.65,76.41Z"/><path d="M197.49,77.09l2.22-.51c0,.65.13,1.3.13,2,0,1.08-.13,2.16,0,3.23a11.87,11.87,0,0,0,.76,2.29c-.91.39-2.18-.2-3.48,0,1.47-.7,1.41-2,1.4-3.18s.32-2.57-1.08-3.42Z"/><path d="M244.65,71.8c.38.49.94.93.86,1.15-.15.44-.67,1.07-1,1s-.87-.6-1.3-.94Z"/><path d="M200.14,73.37a3.92,3.92,0,0,1-1.4.7c-.25,0-.56-.59-.85-.91a4.46,4.46,0,0,1,1.24-.89c.26-.07.67.39,1,.61Z"/><path class="cls-2" d="M258.4,18.41a1.82,1.82,0,0,0,.85,2c3.1,2.51,6.22,5,9.3,7.52a1.3,1.3,0,0,0,1.61.15q4.63-2.23,9.3-4.37a1.45,1.45,0,0,0,1-1.43c.24-3.54.49-7.09.86-10.62A2.09,2.09,0,0,0,280,9.23c-3.29-1.71-6.61-3.36-9.75-5.35a2,2,0,0,0-2-.09c-2.7,1.09-5.32,2.36-8.11,3.23a.91.91,0,0,0-.73.92Q258.91,13.19,258.4,18.41Z"/><path class="cls-3" d="M258.4,18.41q.51-5.22,1-10.47a.91.91,0,0,1,.73-.92c2.79-.87,5.41-2.14,8.11-3.23a2,2,0,0,1,2,.09c3.14,2,6.46,3.64,9.75,5.35a2.09,2.09,0,0,1,1.26,2.39c-.37,3.53-.62,7.08-.86,10.62a1.45,1.45,0,0,1-1,1.43q-4.66,2.13-9.3,4.37a1.3,1.3,0,0,1-1.61-.15c-3.08-2.53-6.2-5-9.3-7.52A1.82,1.82,0,0,1,258.4,18.41Zm10.43,7.67c.2-2.82.35-5.47.5-8.12a4,4,0,0,0-2.45-4.22c-.1-.06-.19-.15-.28-.21l-5.94-4.06c-.29,2.72-.53,5.29-.85,7.85a1.86,1.86,0,0,0,.58,1.79A64.51,64.51,0,0,0,268.83,26.08Zm2-.75c2.79-1.06,5.32-2.4,7.93-3.57.35-.16.4-.45.43-.78.24-2.54.51-5.08.58-7.64,0-.78-.07-1.09-1-.78-2.41.82-4.86,1.54-7.29,2.31-.39.12-.7.25-.69.79C270.86,18.85,270.85,22,270.85,25.33Zm8.12-15-9-5.15a.65.65,0,0,0-.66,0c-2.4,1-4.81,2-7.37,3.09,2.56,1.9,5.15,3.52,7.71,5.19.38.25.68,0,1-.07Z"/><path class="cls-2" d="M268.83,26.08a64.51,64.51,0,0,1-8.44-7,1.86,1.86,0,0,1-.58-1.79c.32-2.56.56-5.13.85-7.85l5.94,4.06c.09.06.18.15.28.21A4,4,0,0,1,269.33,18C269.18,20.61,269,23.26,268.83,26.08Zm-3.09-8.6a2.46,2.46,0,0,0-1.47-1.84,1.21,1.21,0,0,0-1.44.25c-.71.67-.31,1.39-.07,2.1,0,.11.06.23.11.34.29.8.84,1.35,1.7,1.19S265.74,18.65,265.74,17.48Zm2.5,3.91c.1-.7-.55-.93-.86-1.37s-.86-.77-1.44-.36a1.28,1.28,0,0,0-.47,1.68c.09.22.26.4.35.62.26.63.48,1.39,1.35,1.22S268.1,22.12,268.24,21.39ZM264,13.33a2.24,2.24,0,0,0-1.92-1.5c-.72,0-.95.5-.94,1.12,0,1.37.69,2.38,1.51,2.36C263.63,15.3,263.94,14.63,264,13.33Z"/><path class="cls-2" d="M270.85,25.33c0-3.3,0-6.48,0-9.67,0-.54.3-.67.69-.79,2.43-.77,4.88-1.49,7.29-2.31.9-.31,1,0,1,.78-.07,2.56-.34,5.1-.58,7.64,0,.33-.08.62-.43.78C276.17,22.93,273.64,24.27,270.85,25.33Zm7.67-9c.1-.72-.51-1-.94-1.49a1.05,1.05,0,0,0-1.57-.22,1.2,1.2,0,0,0-.31,1.6,3.69,3.69,0,0,1,.29.64c.17.75.46,1.46,1.39,1.25A1.56,1.56,0,0,0,278.52,16.33Zm-3.31,4.8a3,3,0,0,0-1.08-1.71,1.12,1.12,0,0,0-1.34.12c-1.18.84.12,1.73,0,2.6-.08.4.23.73.68.85C274.35,23.23,275.2,22.43,275.21,21.13Z"/><path class="cls-2" d="M279,10.34l-8.32,3.06c-.33.12-.63.32-1,.07-2.56-1.67-5.15-3.29-7.71-5.19,2.56-1.07,5-2.07,7.37-3.09a.65.65,0,0,1,.66,0Zm-7.34-1.07a2.81,2.81,0,0,0-1.49-1.78,1.25,1.25,0,0,0-1.52.3c-.67.68-.32,1.3.1,1.91a.6.6,0,0,1,.06.23c.1.87.62,1.48,1.46,1.39C271.3,11.21,271.53,10.29,271.63,9.27Z"/><path class="cls-3" d="M265.74,17.48c0,1.17-.33,1.88-1.17,2s-1.41-.39-1.7-1.19c-.05-.11-.07-.23-.11-.34-.24-.71-.64-1.43.07-2.1a1.21,1.21,0,0,1,1.44-.25A2.46,2.46,0,0,1,265.74,17.48Z"/><path class="cls-3" d="M268.24,21.39c-.14.73-.12,1.61-1.07,1.79s-1.09-.59-1.35-1.22c-.09-.22-.26-.4-.35-.62a1.28,1.28,0,0,1,.47-1.68c.58-.41,1.08-.14,1.44.36S268.34,20.69,268.24,21.39Z"/><path class="cls-3" d="M264,13.33c0,1.3-.32,2-1.35,2-.82,0-1.47-1-1.51-2.36,0-.62.22-1.09.94-1.12A2.24,2.24,0,0,1,264,13.33Z"/><path class="cls-3" d="M278.52,16.33a1.56,1.56,0,0,1-1.14,1.78c-.93.21-1.22-.5-1.39-1.25a3.69,3.69,0,0,0-.29-.64,1.2,1.2,0,0,1,.31-1.6,1.05,1.05,0,0,1,1.57.22C278,15.3,278.62,15.61,278.52,16.33Z"/><path class="cls-3" d="M275.21,21.13c0,1.3-.86,2.1-1.78,1.86-.45-.12-.76-.45-.68-.85.16-.87-1.14-1.76,0-2.6a1.12,1.12,0,0,1,1.34-.12A3,3,0,0,1,275.21,21.13Z"/><path class="cls-3" d="M271.63,9.27c-.1,1-.33,1.94-1.39,2.05-.84.09-1.36-.52-1.46-1.39a.6.6,0,0,0-.06-.23c-.42-.61-.77-1.23-.1-1.91a1.25,1.25,0,0,1,1.52-.3A2.81,2.81,0,0,1,271.63,9.27Z"/></svg>