<svg height="39" viewBox="0 0 140 39" width="140" xmlns="http://www.w3.org/2000/svg"><g fill="#fff" fill-rule="evenodd"><path d="m118.044489 6.82859497h-3.90586v8.66477843l3.90586-3.8650269zm-14.033981 14.79039353 4.660937-4.6600591c-1.303855-.4842672-2.820128-.2030602-3.841848.8179094-1.042514 1.0432394-1.315476 2.5500958-.819089 3.8421497zm-7.8390355-3.469839c-.3899743-.8699397-1.6263541-1.4090716-2.8034121-1.4090716-1.9629186 0-3.559306 1.619825-3.559306 3.5983965 0 1.9789763 1.6177922 3.5988014 3.5807107 3.5988014 1.1776696 0 2.3920331-.5395368 2.7820074-1.4094766zm-13.6385023 2.1893249c0-1.9785715-1.6302274-3.5983965-3.623928-3.5983965s-3.623928 1.619825-3.623928 3.5983965c0 1.9789763 1.6302274 3.5988014 3.623928 3.5988014s3.623928-1.6198251 3.623928-3.5988014zm-14.4486216 0c0-1.9785715-1.6310428-3.5983965-3.6237241-3.5983965-1.9934968 0-3.6245396 1.619825-3.6245396 3.5983965 0 1.9789763 1.6310428 3.5988014 3.6245396 3.5988014 1.9926813 0 3.6237241-1.6198251 3.6237241-3.5988014zm51.9583254-1.9917309 6.650969 9.0417456h-4.802413l-3.846742-5.2163995v5.2163995h-3.905859v-3.418011l-1.518515 1.5271016.069922-.0485887h-.017531c-2.91594 3.1031969-7.68329 2.9766639-10.61615.0850302-.934675-.9221726-1.588845-1.9706758-1.979023-3.1440923v4.9985602h-3.9058595v-.9011175c-.780968.8094064-1.8463135 1.2890171-3.4463704 1.2890171-2.9748541 0-5.7668504-2.4448203-6.5333447-5.726783-.7793371 3.2819627-3.7403291 5.726783-7.2833268 5.726783-3.4612518 0-6.365776-2.3342811-7.2242088-5.5026678-.8588406 3.1683867-3.7631609 5.5026678-7.2248204 5.5026678-4.1382539 0-7.4910549-3.3291342-7.4910549-7.4379143 0-4.1083752 3.3491316-7.4375094 7.4871816-7.4375094 3.4612518 0 6.3602719 2.3340786 7.2178894 5.5012506.8592482-3.167172 3.7521527-5.5012506 7.2136084-5.5012506 3.5432015 0 6.4821771 2.4442129 7.2606989 5.7269855.7664943-3.2827726 3.6025232-5.7269855 6.5773773-5.7269855 1.6000569 0 2.6654024.4790034 3.4463704 1.3185752v-7.39094523h3.9058595v11.40113083c.390178-1.154386 1.03069-2.2413553 1.94396-3.1548224 2.916144-2.9147133 7.723042-2.9272654 10.658959-.0313802.384675.3804089.643163.6824685.96403 1.1272573l-7.53366 7.5448095c1.303448.4836598 2.819516.2287716 3.861011-.8146702l9.595856-9.4774241h5.46698zm15.189022-.197594c-.781579-.8699397-1.718496-1.4090716-2.894943-1.4090716-1.962307 0-3.650225 1.619825-3.650225 3.5983965 0 1.9789763 1.678133 3.5988014 3.641256 3.5988014 1.178689 0 2.122333-.5395368 2.903912-1.4094766zm3.90586-4.7256538v13.9649934h-3.90586v-.9011175c-.781579.8094064-1.958841 1.2890171-3.559306 1.2890171-3.473279 0-6.850746-3.3291342-6.850746-7.4379143 0-4.1083752 3.368905-7.4375094 6.841573-7.4375094 1.599853 0 2.7869.4790034 3.568479 1.3185752v-.7960445zm-82.0258996 3.879401h-2.3435155v10.0855924h-3.9060632v-10.0855924h-1.5621399v-3.879401h1.5621399v-1.6921007c0-2.81976292 1.6451088-5.33868096 4.7859008-5.33868096.3624539 0 1.073092.0896866 1.4636779.35935376v3.6291693c-.3905859-.0900915-.5981102-.1498151-.839882-.1498151-.754263 0-1.5036335.6895544-1.5036335 1.499973v1.6921007h2.3435155z"/><g transform="translate(50.459999 31.319999)"><path d="m.3893723 4.61690917c-.12145521-.08432307-.20712815-.23831307-.20712815-.40695921 0-.28047461.2285975-.49810845.51444662-.49810845.14292456 0 .24291041.04898769.31427045.09797538.37867851.27384922.79313929.44249537 1.2789601.44249537.45003856 0 .72157477-.17567307.72157477-.4631746v-.01405385c0-.27384922-.17155036-.41418691-1.00742388-.62439229-1.00742389-.25256768-1.65743415-.52621613-1.65743415-1.50135226v-.01425461c0-.89081306.72852675-1.4802715 1.75046801-1.4802715.60727602 0 1.13583108.1545923 1.58607411.43526768.1214552.07026923.2429104.2172323.2429104.42783922 0 .28087614-.2285975.49810844-.51444662.49810844-.1071423 0-.19301972-.02790692-.27869266-.07729615-.36436561-.21020538-.70726187-.32946229-1.05015813-.32946229-.42161722 0-.64305828.18952614-.64305828.42783921v.01405385c0 .32283691.21428461.42783922 1.07878394.64547306 1.01458034.25959461 1.5860741.61736536 1.5860741 1.47324457v.01385308c0 .97513612-.75735703 1.5226338-1.83614096 1.5226338-.65716671 0-1.32169434-.19655307-1.87907967-.58945845"/><path d="m6.42663649.73718444c0-.30155538.24291041-.53986845.55022888-.53986845h.1214552c.23575396 0 .40014787.11905616.49992925.28027384l1.32905526 2.12574456 1.33621172-2.13277148c.1140943-.18229846.2713317-.27324692.4929773-.27324692h.1214552c.3069095 0 .5500244.23831307.5500244.53986845v3.90094604c0 .30155538-.2431149.53986845-.5500244.53986845-.3001621 0-.5432769-.24554076-.5432769-.53986845v-2.44858147l-.96448521 1.45919073c-.11429875.16824461-.25701884.27364845-.45719501.27364845-.1999717 0-.34289626-.10540384-.45719501-.27364845l-.95037675-1.43831073v2.44135378c0 .29492999-.2429104.52621614-.54286795.52621614-.30016202 0-.53591598-.23128615-.53591598-.52621614z"/><path d="m16.8076827 3.08054276-.692949-1.62060919-.692949 1.62060919zm-3.0936317 1.36101457 1.7433115-3.86561065c.1214552-.26662153.3428963-.42763845.6430583-.42763845h.0642036c.300162 0 .5144466.16101692.6361063.42763845l1.7431071 3.86561065c.0357822.07689462.0572516.14716385.0572516.21723231 0 .28790306-.2285975.51918921-.5213986.51918921-.2574278 0-.4287737-.14736461-.5287595-.37162383l-.3359443-.77175691h-2.2007111l-.3498482.80669075c-.0930339.21040615-.2786927.33668999-.5072902.33668999-.2858491 0-.5072901-.22425922-.5072901-.5049346 0-.07729615.0284213-.1545923.0642036-.23148692z"/><path d="m23.0450208 2.61038139c.5357115 0 .84303-.28027384.84303-.69446075v-.01405385c0-.4631746-.3285834-.70148767-.8644994-.70148767h-1.0930968v1.41000227zm-2.2148195-1.84486841c0-.30155538.242706-.54047076.5500244-.54047076h1.7363596c.6356974 0 1.1286746.17567308 1.4574625.49850999.2784882.27324692.4285692.65912537.4285692 1.1220992v.01425461c0 .77155614-.3929915 1.24838304-1.000063 1.49432535l.764309.91169305c.1071423.13331076.1787068.24554076.1787068.41418691 0 .30155537-.2574278.49790767-.5216031.49790767-.2500668 0-.4144607-.11925691-.5430724-.28067537l-1.0716275-1.33290689h-.8788122v1.07371382c0 .30155537-.2431149.53986844-.5502289.53986844-.3073184 0-.5500244-.23831307-.5500244-.53986844z"/><path d="m28.5249815 1.22147996h-1.0575191c-.2784882 0-.5070857-.22466076-.5070857-.49790767 0-.27384923.2285975-.49850999.5070857-.49850999h3.2152914c.2784882 0 .5070857.22466076.5070857.49850999 0 .27324691-.2285975.49790767-.5070857.49790767h-1.0575191v3.41669068c0 .30155537-.2429104.53986844-.5502288.53986844-.307114 0-.5500244-.23831307-.5500244-.53986844z"/><path d="m36.8627176.73718444c0-.30155538.242706-.53986845.5500244-.53986845h.1142988c.2643797 0 .4216172.12608308.5716982.31560923l2.1219901 2.73588222v-2.532503c0-.29472922.2427059-.53324306.5428679-.53324306.3001621 0 .5430725.23851384.5430725.53324306v3.90757143c0 .30155537-.2429104.54006921-.5502289.54006921h-.0357823c-.2641753 0-.4214127-.12628384-.5714937-.31560922l-2.2005066-2.83445992v2.63087993c0 .29492999-.2429104.53324306-.5430724.53324306s-.542868-.23831307-.542868-.53324306z"/><path d="m43.7927389 3.03153499v-2.30804301c0-.30195691.2429104-.54047075.5500244-.54047075.3073185 0 .5502289.23851384.5502289.54047075v2.27973455c0 .80006536.4073043 1.21364996 1.0787839 1.21364996.6716841 0 1.0789884-.39993229 1.0789884-1.17871612v-2.31466839c0-.30195691.2429104-.54047075.5500244-.54047075.3073185 0 .5502289.23851384.5502289.54047075v2.27270763c0 1.48729841-.8501864 2.21709455-2.1933501 2.21709455s-2.1649288-.73682306-2.1649288-2.18175917"/><path d="m51.8020144 1.22147996h-1.057519c-.2784882 0-.5070857-.22466076-.5070857-.49790767 0-.27384923.2285975-.49850999.5070857-.49850999h3.2152913c.2784882 0 .5070857.22466076.5070857.49850999 0 .27324691-.2285975.49790767-.5070857.49790767h-1.057519v3.41669068c0 .30155537-.2429104.53986844-.5502289.53986844-.307114 0-.5500244-.23831307-.5500244-.53986844z"/><path d="m58.8466411 2.61038139c.5357116 0 .84303-.28027384.84303-.69446075v-.01405385c0-.4631746-.3285833-.70148767-.8644993-.70148767h-1.0930968v1.41000227zm-2.2148194-1.84486841c0-.30155538.2427059-.54047076.5500244-.54047076h1.7363596c.6356973 0 1.1286746.17567308 1.4574624.49850999.2784882.27324692.4285692.65912537.4285692 1.1220992v.01425461c0 .77155614-.3929914 1.24838304-1.0002674 1.49432535l.7645135.91169305c.1071423.13331076.1787068.24554076.1787068.41418691 0 .30155537-.2572233.49790767-.5216031.49790767-.2500669 0-.4144608-.11925691-.5430724-.28067537l-1.0716275-1.33290689h-.8788122v1.07371382c0 .30155537-.2431149.53986844-.5502289.53986844-.3073185 0-.5500244-.23831307-.5500244-.53986844z"/><path d="m63.2117902.7234719c0-.30195691.2429105-.54026998.5500245-.54026998.3073184 0 .5502288.23831307.5502288.54026998v3.91459835c0 .30155538-.2429104.53986845-.5502288.53986845-.307114 0-.5500245-.23831307-.5500245-.53986845z"/><path d="m68.0917336 1.22147996h-1.0575191c-.2784882 0-.5070857-.22466076-.5070857-.49790767 0-.27384923.2285975-.49850999.5070857-.49850999h3.2152914c.2784882 0 .5070857.22466076.5070857.49850999 0 .27324691-.2285975.49790767-.5070857.49790767h-1.057519v3.41669068c0 .30155537-.2429105.53986844-.5502289.53986844-.307114 0-.5500244-.23831307-.5500244-.53986844z"/><path d="m72.971452.7234719c0-.30195691.2429104-.54026998.5500244-.54026998.3073184 0 .5502289.23831307.5502289.54026998v3.91459835c0 .30155538-.2429105.53986845-.5502289.53986845-.307114 0-.5500244-.23831307-.5500244-.53986845z"/><path d="m80.6304907 2.69468438v-.01405384c0-.84202613-.6287453-1.5435138-1.514714-1.5435138s-1.5004012.68743382-1.5004012 1.52925918v.01425462c0 .84182536.6287454 1.54331303 1.5147141 1.54331303s1.5004011-.68743383 1.5004011-1.52925919m-4.1654636 0v-.01405384c0-1.39594842 1.1217226-2.53952993 2.6650625-2.53952993 1.5433398 0 2.6507496 1.12932689 2.6507496 2.52527531v.01425462c0 1.39594842-1.1217227 2.53932916-2.6650625 2.53932916-1.5433399 0-2.6507496-1.12932689-2.6507496-2.52527532"/><path d="m84.1242499.73718444c0-.30155538.2427059-.53986845.5500244-.53986845h.1142987c.2643798 0 .4216172.12608308.5716983.31560923l2.12199 2.73588222v-2.532503c0-.29472922.242706-.53324306.542868-.53324306s.5430724.23851384.5430724.53324306v3.90757143c0 .30155537-.2429104.54006921-.5502289.54006921h-.0355777c-.2643798 0-.4216173-.12628384-.5716983-.31560922l-2.2005066-2.83445992v2.63087993c0 .29492999-.2429104.53324306-.5430724.53324306s-.5428679-.23831307-.5428679-.53324306z"/></g><path d="m15.0490813 21.7776724h-.3463024c-.7612542 0-1.3835801.6219634-1.3835801 1.3822766v14.1027208c0 .7605166.6223259 1.3826835 1.3835801 1.3826835h.3463024c.761458 0 1.3841912-.6221669 1.3841912-1.3826835v-14.1027208c0-.7603132-.6227332-1.3822766-1.3841912-1.3822766"/><path d="m20.4847665 26.1567466c-.7610505 0-1.3841912.6223704-1.3841912 1.3826835v9.7233414c0 .7603132.6231407 1.3826836 1.3841912 1.3826836h.3465061c.7610505 0 1.3837838-.6223704 1.3837838-1.3826836v-9.7233414c0-.7603131-.6227333-1.3826835-1.3837838-1.3826835z"/><path d="m26.6126491 19.2435325h-.3465062c-.7610505 0-1.3841911.6215565-1.3841911 1.3822766v16.6369624c0 .7603132.6231406 1.3826836 1.3841911 1.3826836h.3465062c.7612542 0 1.3839874-.6223704 1.3839874-1.3826836v-16.6369624c0-.7607201-.6227332-1.3822766-1.3839874-1.3822766"/><path d="m33.1682966 8.70933957c-2.4027277-.72369118-3.8307159-.59083475-5.3387612-.15259162-2.4063944.69947998-3.7854929 2.45835275-4.5241356 3.43575285-.1603177.2124076-.4465265.139367-.5430837.1161731-.0961499-.0229904-.3819512-.2372291-.0254634-1.2630517.2232632-.642309.3593397-.9013078 1.1882247-2.06853195.517824-.72898103 1.7361974-2.05632465 3.7099176-3.06912609-1.8608663-1.61441932-4.2540198-2.53302087-6.7820276-2.53302087-4.4135226 0-8.3477219 2.79853029-9.7897659 6.96489181l-.3833772 1.117988s-.2354856-.0567641-1.04868522-.057171c-3.50274722-.0018311-6.49500391 2.9997477-6.49500391 6.639363 0 3.4361598 2.65471368 6.3850437 6.10490441 6.6460771.82134792.0758889 1.44265522-.0408945 1.44265522-.0408945l.003463 12.842314c0 .7605167-.6227333 1.3826836-1.38378378 1.3826836h-.34670985c-.76125422 0-1.38398747-.6219635-1.38398747-1.3824801v-1.8868462l-.01405581-8.0548029c-4.32511363-1.0246019-7.5367631-4.9529205-7.5367631-9.506051 0-4.9824215 3.64513863-9.04949679 8.47381674-9.681633 2.12201907-4.88191452 6.96414187-8.09406982 12.35729287-8.09406982 4.2603347 0 8.2318125 1.99691565 10.7742834 5.37997356.3436543.03824964.6832344.09033424 1.0173143.15849183 5.1924994 1.03396081 9.0386972 5.58037723 9.0386972 11.04356413 0 4.9565826-3.2468909 9.2861155-7.8830656 10.7440775l-.0146669 9.8970924c0 .7605167-.6221221 1.3826836-1.3833764 1.3826836h-.3465061c-.7614579 0-1.3841912-.6221669-1.3841912-1.3826836l.0101854-12.515768s1.2697077.0105797 2.8156425-.6319327c1.9075152-.8239948 5.0943124-3.0874371 5.0943124-7.919505 0-3.9419502-3.199427-6.84119095-5.4232998-7.51096643"/></g></svg>