<?xml version="1.0" encoding="UTF-8"?>
<svg width="167px" height="33px" viewBox="0 0 167 33" version="1.1" xmlns="http://www.w3.org/2000/svg" xmlns:xlink="http://www.w3.org/1999/xlink">
    <!-- Generator: Sketch 46.2 (44496) - http://www.bohemiancoding.com/sketch -->
    <title>COCHOLATE Copy 6</title>
    <desc>Created with Sketch.</desc>
    <defs>
        <path d="M14.1,7.62 C14.1,7.4999994 14.0800002,7.4100003 14.04,7.35 C13.9999998,7.2899997 13.98,7.2200004 13.98,7.14 C13.98,7.0599996 14.0399994,6.9700005 14.16,6.87 C14.2800006,6.7699995 14.4199992,6.6600006 14.58,6.54 C14.7400008,6.4199994 14.8799994,6.2700009 15,6.09 C15.1200006,5.9099991 15.18,5.6600016 15.18,5.34 C15.18,4.6999968 15.0300015,4.2000018 14.73,3.84 C14.4299985,3.4799982 14.0600022,3.3 13.62,3.3 C12.619995,3.3 11.7100041,3.6099969 10.89,4.23 C10.0699959,4.8500031 9.5000016,5.6199954 9.18,6.54 C8.8599984,6.740001 8.5600014,7.3499949 8.28,8.37 C7.9999986,9.3900051 7.7400012,10.5599934 7.5,11.88 C7.2599988,13.2000066 7.0700007,14.5399932 6.93,15.9 C6.7899993,17.2600068 6.72,18.3599958 6.72,19.2 C6.72,19.400001 6.7299999,19.7099979 6.75,20.13 C6.7700001,20.5500021 6.8099997,20.9699979 6.87,21.39 C6.9300003,21.8100021 6.9799998,22.1899983 7.02,22.53 C7.0600002,22.8700017 7.1199996,23.04 7.2,23.04 L7.32,22.98 C7.32,23.0200002 7.3100001,23.0499999 7.29,23.07 C7.2699999,23.0900001 7.26,23.1199998 7.26,23.16 C7.26,23.4800016 7.3799988,23.7999984 7.62,24.12 C7.8600012,24.4400016 8.1299985,24.7299987 8.43,24.99 C8.7300015,25.2500013 9.0199986,25.4599992 9.3,25.62 C9.5800014,25.7800008 9.7799994,25.86 9.9,25.86 C10.2600018,25.86 10.6099983,25.7400012 10.95,25.5 C11.2900017,25.2599988 11.5899987,24.9900015 11.85,24.69 C12.1100013,24.3899985 12.3099993,24.1100013 12.45,23.85 C12.5900007,23.5899987 12.66,23.4200004 12.66,23.34 C12.7000002,23.34 12.72,23.3599998 12.72,23.4 C12.72,23.4400002 12.7399998,23.46 12.78,23.46 C12.7399998,23.46 12.7999992,23.3000016 12.96,22.98 C13.1200008,22.6599984 13.2399996,22.5 13.32,22.5 L13.32,22.26 L13.53,21.93 C13.6700007,21.7099989 13.8099993,21.4500015 13.95,21.15 C14.0900007,20.8499985 14.2199994,20.5400016 14.34,20.22 C14.4600006,19.8999984 14.52,19.6000014 14.52,19.32 C14.52,19.2799998 14.5100001,19.2300003 14.49,19.17 C14.4699999,19.1099997 14.46,19.0400004 14.46,18.96 L14.52,18.84 C14.5600002,18.7999998 14.6099997,18.6900009 14.67,18.51 L14.85,17.97 C14.9100003,17.7899991 14.9599998,17.6100009 15,17.43 C15.0400002,17.2499991 15.06,17.1400002 15.06,17.1 C15.06,17.0599998 15.0400002,17.0200002 15,16.98 C14.9599998,16.9399998 14.94,16.9000002 14.94,16.86 C14.94,16.6999992 15.0099993,16.5900003 15.15,16.53 C15.2900007,16.4699997 15.3799998,16.3800006 15.42,16.26 C16.3800048,16.3400004 17.0299983,16.6199976 17.37,17.1 C17.7100017,17.5800024 17.88,17.9799984 17.88,18.3 C17.88,18.900003 17.8300005,19.3799982 17.73,19.74 C17.6299995,20.1000018 17.5300005,20.4199986 17.43,20.7 C17.3299995,20.9800014 17.2300005,21.2499987 17.13,21.51 C17.0299995,21.7700013 16.98,22.0799982 16.98,22.44 C16.98,22.7200014 16.8100017,23.1999966 16.47,23.88 C16.1299983,24.5600034 15.7000026,25.2599964 15.18,25.98 C14.6599974,26.7000036 14.0900031,27.3399972 13.47,27.9 C12.8499969,28.4600028 12.240003,28.74 11.64,28.74 C10.839996,28.74 10.0900035,28.6100013 9.39,28.35 C8.6899965,28.0899987 8.34,27.9200004 8.34,27.84 L8.4,27.84 C8.199999,27.84 8.0600004,27.7800006 7.98,27.66 C7.8999996,27.5399994 7.7800008,27.48 7.62,27.48 C7.5399996,27.3599994 7.3200018,27.1800012 6.96,26.94 C6.5999982,26.6999988 6.2100021,26.4200016 5.79,26.1 C5.3699979,25.7799984 5.0000016,25.4100021 4.68,24.99 C4.3599984,24.5699979 4.2,24.1200024 4.2,23.64 C4.0799994,23.4799992 3.9500007,23.2500015 3.81,22.95 C3.6699993,22.6499985 3.5600004,22.3300017 3.48,21.99 C3.3999996,21.6499983 3.3300003,21.3500013 3.27,21.09 C3.2099997,20.8299987 3.18,20.6800002 3.18,20.64 C3.18,20.1999978 3.1500003,19.7500023 3.09,19.29 C3.0299997,18.8299977 3,18.3200028 3,17.76 C3,16.3199928 3.099999,14.8800072 3.3,13.44 C3.500001,11.9999928 3.7599984,10.7600052 4.08,9.72 C4.08,9.6799998 4.0700001,9.6500001 4.05,9.63 C4.0299999,9.6099999 4.02,9.5800002 4.02,9.54 C4.02,9.4199994 4.0799994,9.1800018 4.2,8.82 C4.3200006,8.4599982 4.4199996,8.28 4.5,8.28 C4.5,8.2399998 4.4900001,8.22 4.47,8.22 C4.4499999,8.22 4.44,8.1800004 4.44,8.1 C4.5600006,7.8599988 4.6899993,7.5200022 4.83,7.08 C4.9700007,6.6399978 5.1799986,6.1500027 5.46,5.61 C5.7400014,5.0699973 6.0899979,4.5100029 6.51,3.93 C6.9300021,3.3499971 7.4599968,2.7800028 8.1,2.22 C8.2600008,2.1399996 8.3499999,2.0600004 8.37,1.98 C8.3900001,1.8999996 8.499999,1.86 8.7,1.86 C8.7400002,1.86 8.8099995,1.8100005 8.91,1.71 C9.0100005,1.6099995 9.1799988,1.5000006 9.42,1.38 C9.6600012,1.2599994 10.0099977,1.1500005 10.47,1.05 C10.9300023,0.9499995 11.5199964,0.9 12.24,0.9 C13.2800052,0.9 13.999998,1.0399986 14.4,1.32 C14.800002,1.6000014 15.099999,1.8199992 15.3,1.98 C15.700002,2.2600014 16.1599974,2.699997 16.68,3.3 C17.2000026,3.900003 17.46,4.599996 17.46,5.4 C17.46,6.4800054 17.2300023,7.1599986 16.77,7.44 C16.3099977,7.7200014 15.8600022,7.8999996 15.42,7.98 C15.219999,7.98 15.0000012,7.9700001 14.76,7.95 C14.5199988,7.9299999 14.300001,7.820001 14.1,7.62 Z M24.42,6.6 C24.7000014,6.399999 24.9599988,6.3 25.2,6.3 C25.4400012,6.3 25.6199994,6.3199998 25.74,6.36 C26.1000018,5.9999982 26.4099987,5.6800014 26.67,5.4 C26.9300013,5.1199986 27.1999986,4.880001 27.48,4.68 C27.7600014,4.479999 28.0899981,4.3300005 28.47,4.23 C28.8500019,4.1299995 29.3199972,4.08 29.88,4.08 C30.2400018,4.08 30.6399978,4.2399984 31.08,4.56 C31.5200022,4.8800016 31.939998,5.2299981 32.34,5.61 C32.740002,5.9900019 33.0899985,6.3499983 33.39,6.69 C33.6900015,7.0300017 33.84,7.2199998 33.84,7.26 C34.1600016,7.5800016 34.3999992,8.0299971 34.56,8.61 C34.7200008,9.1900029 34.8799992,9.6399984 35.04,9.96 C35.04,10.0000002 35.0300001,10.0299999 35.01,10.05 C34.9899999,10.0700001 34.98,10.1199996 34.98,10.2 C35.1000006,10.4800014 35.2099995,10.8999972 35.31,11.46 C35.4100005,12.0200028 35.4899997,12.6099969 35.55,13.23 C35.6100003,13.8500031 35.6599998,14.459997 35.7,15.06 C35.7400002,15.660003 35.76,16.1399982 35.76,16.5 L35.64,17.22 C35.5599996,17.7000024 35.4800004,18.2499969 35.4,18.87 C35.3199996,19.4900031 35.2500003,20.0699973 35.19,20.61 C35.1299997,21.1500027 35.1,21.4599996 35.1,21.54 L35.04,21.48 L35.04,21.84 C35.04,22.0000008 35.0200002,22.08 34.98,22.08 C34.9399998,22.08 34.92,22.0600002 34.92,22.02 L34.92,21.96 C34.3999974,23.2400064 34.0300011,24.1499973 33.81,24.69 C33.5899989,25.2300027 33.4200006,25.599999 33.3,25.8 C33.1799994,26.000001 33.0600006,26.1299997 32.94,26.19 C32.8199994,26.2500003 32.6000016,26.4399984 32.28,26.76 C32.079999,26.76 31.8700011,26.859999 31.65,27.06 C31.4299989,27.260001 30.9400038,27.36 30.18,27.36 C29.8599984,27.36 29.4600024,27.2900007 28.98,27.15 C28.4999976,27.0099993 28.0400022,26.8300011 27.6,26.61 C27.1599978,26.3899989 26.7800016,26.1400014 26.46,25.86 C26.1399984,25.5799986 25.98,25.2800016 25.98,24.96 C25.98,24.6399984 25.8000018,24.2700021 25.44,23.85 C25.0799982,23.4299979 24.9,23.1800004 24.9,23.1 L24.96,23.16 C24.96,22.959999 24.9000006,22.7000016 24.78,22.38 C24.6599994,22.0599984 24.5400006,21.7300017 24.42,21.39 L24.06,20.37 C23.9399994,20.0299983 23.88,19.7400012 23.88,19.5 C23.88,19.4599998 23.8600002,19.2500019 23.82,18.87 C23.7799998,18.4899981 23.7400002,18.0200028 23.7,17.46 C23.6599998,16.8999972 23.6200002,16.3100031 23.58,15.69 C23.5399998,15.0699969 23.52,14.4800028 23.52,13.92 C23.5600002,13.5599982 23.5899999,13.2000018 23.61,12.84 C23.6300001,12.4799982 23.6599998,12.1400016 23.7,11.82 C23.7,11.7399996 23.6900001,11.6700003 23.67,11.61 C23.6499999,11.5499997 23.64,11.4600006 23.64,11.34 C23.64,11.2199994 23.6599998,11.1300003 23.7,11.07 C23.7400002,11.0099997 23.76,10.880001 23.76,10.68 C23.76,10.5999996 23.7500001,10.5300003 23.73,10.47 C23.7099999,10.4099997 23.7,10.3400004 23.7,10.26 C23.7,10.0999992 23.7199998,9.8500017 23.76,9.51 C23.8000002,9.1699983 23.8499997,8.8100019 23.91,8.43 C23.9700003,8.0499981 24.0499995,7.6900017 24.15,7.35 C24.2500005,7.0099983 24.3399996,6.7600008 24.42,6.6 Z M29.28,23.94 C29.7600024,23.7799992 30.1899981,23.4300027 30.57,22.89 C30.9500019,22.3499973 31.2599988,21.7700031 31.5,21.15 C31.7400012,20.5299969 31.9199994,19.9600026 32.04,19.44 C32.1600006,18.9199974 32.22,18.6200004 32.22,18.54 L32.16,18.6 C32.4000012,17.2799934 32.52,15.9400068 32.52,14.58 C32.52,14.2599984 32.5000002,13.8900021 32.46,13.47 C32.4199998,13.0499979 32.3900001,12.6500019 32.37,12.27 C32.3499999,11.8899981 32.3200002,11.5600014 32.28,11.28 C32.2399998,10.9999986 32.22,10.8200004 32.22,10.74 C32.22,10.6599996 32.2299999,10.5800004 32.25,10.5 C32.2700001,10.4199996 32.28,10.3400004 32.28,10.26 C32.28,9.659997 32.2100007,9.1700019 32.07,8.79 C31.9299993,8.4099981 31.7700009,8.1000012 31.59,7.86 C31.4099991,7.6199988 31.2600006,7.4600004 31.14,7.38 L30.96,7.26 C30.8799996,7.26 30.84,7.2500001 30.84,7.23 C30.84,7.2099999 30.8000004,7.2 30.72,7.2 C30.2399976,7.2 29.8100019,7.3099989 29.43,7.53 C29.0499981,7.7500011 28.7200014,7.9999986 28.44,8.28 C28.1599986,8.5600014 27.9400008,8.8099989 27.78,9.03 C27.6199992,9.2500011 27.5200002,9.36 27.48,9.36 L27.48,9.3 C27.48,9.3800004 27.4400004,9.42 27.36,9.42 L27.3,9.42 C27.2199996,9.6600012 27.1500003,9.9899979 27.09,10.41 C27.0299997,10.8300021 26.9900001,11.2599978 26.97,11.7 C26.9499999,12.1400022 26.94,12.5399982 26.94,12.9 L26.94,13.56 C26.8999998,13.8400014 26.88,14.1199986 26.88,14.4 L26.88,15.3 C26.88,16.300005 26.9199996,17.2799952 27,18.24 C27.0800004,19.2000048 27.1899993,20.0899959 27.33,20.91 C27.4700007,21.7300041 27.6499989,22.4299971 27.87,23.01 C28.0900011,23.5900029 28.3399986,23.9999988 28.62,24.24 C28.7000004,24.1199994 28.7999994,24.0500001 28.92,24.03 C29.0400006,24.0099999 29.1599994,23.9800002 29.28,23.94 Z M52.86,7.62 C52.86,7.4999994 52.8400002,7.4100003 52.8,7.35 C52.7599998,7.2899997 52.74,7.2200004 52.74,7.14 C52.74,7.0599996 52.7999994,6.9700005 52.92,6.87 C53.0400006,6.7699995 53.1799992,6.6600006 53.34,6.54 C53.5000008,6.4199994 53.6399994,6.2700009 53.76,6.09 C53.8800006,5.9099991 53.94,5.6600016 53.94,5.34 C53.94,4.6999968 53.7900015,4.2000018 53.49,3.84 C53.1899985,3.4799982 52.8200022,3.3 52.38,3.3 C51.379995,3.3 50.4700041,3.6099969 49.65,4.23 C48.8299959,4.8500031 48.2600016,5.6199954 47.94,6.54 C47.6199984,6.740001 47.3200014,7.3499949 47.04,8.37 C46.7599986,9.3900051 46.5000012,10.5599934 46.26,11.88 C46.0199988,13.2000066 45.8300007,14.5399932 45.69,15.9 C45.5499993,17.2600068 45.48,18.3599958 45.48,19.2 C45.48,19.400001 45.4899999,19.7099979 45.51,20.13 C45.5300001,20.5500021 45.5699997,20.9699979 45.63,21.39 C45.6900003,21.8100021 45.7399998,22.1899983 45.78,22.53 C45.8200002,22.8700017 45.8799996,23.04 45.96,23.04 L46.08,22.98 C46.08,23.0200002 46.0700001,23.0499999 46.05,23.07 C46.0299999,23.0900001 46.02,23.1199998 46.02,23.16 C46.02,23.4800016 46.1399988,23.7999984 46.38,24.12 C46.6200012,24.4400016 46.8899985,24.7299987 47.19,24.99 C47.4900015,25.2500013 47.7799986,25.4599992 48.06,25.62 C48.3400014,25.7800008 48.5399994,25.86 48.66,25.86 C49.0200018,25.86 49.3699983,25.7400012 49.71,25.5 C50.0500017,25.2599988 50.3499987,24.9900015 50.61,24.69 C50.8700013,24.3899985 51.0699993,24.1100013 51.21,23.85 C51.3500007,23.5899987 51.42,23.4200004 51.42,23.34 C51.4600002,23.34 51.48,23.3599998 51.48,23.4 C51.48,23.4400002 51.4999998,23.46 51.54,23.46 C51.4999998,23.46 51.5599992,23.3000016 51.72,22.98 C51.8800008,22.6599984 51.9999996,22.5 52.08,22.5 L52.08,22.26 L52.29,21.93 C52.4300007,21.7099989 52.5699993,21.4500015 52.71,21.15 C52.8500007,20.8499985 52.9799994,20.5400016 53.1,20.22 C53.2200006,19.8999984 53.28,19.6000014 53.28,19.32 C53.28,19.2799998 53.2700001,19.2300003 53.25,19.17 C53.2299999,19.1099997 53.22,19.0400004 53.22,18.96 L53.28,18.84 C53.3200002,18.7999998 53.3699997,18.6900009 53.43,18.51 L53.61,17.97 C53.6700003,17.7899991 53.7199998,17.6100009 53.76,17.43 C53.8000002,17.2499991 53.82,17.1400002 53.82,17.1 C53.82,17.0599998 53.8000002,17.0200002 53.76,16.98 C53.7199998,16.9399998 53.7,16.9000002 53.7,16.86 C53.7,16.6999992 53.7699993,16.5900003 53.91,16.53 C54.0500007,16.4699997 54.1399998,16.3800006 54.18,16.26 C55.1400048,16.3400004 55.7899983,16.6199976 56.13,17.1 C56.4700017,17.5800024 56.64,17.9799984 56.64,18.3 C56.64,18.900003 56.5900005,19.3799982 56.49,19.74 C56.3899995,20.1000018 56.2900005,20.4199986 56.19,20.7 C56.0899995,20.9800014 55.9900005,21.2499987 55.89,21.51 C55.7899995,21.7700013 55.74,22.0799982 55.74,22.44 C55.74,22.7200014 55.5700017,23.1999966 55.23,23.88 C54.8899983,24.5600034 54.4600026,25.2599964 53.94,25.98 C53.4199974,26.7000036 52.8500031,27.3399972 52.23,27.9 C51.6099969,28.4600028 51.000003,28.74 50.4,28.74 C49.599996,28.74 48.8500035,28.6100013 48.15,28.35 C47.4499965,28.0899987 47.1,27.9200004 47.1,27.84 L47.16,27.84 C46.959999,27.84 46.8200004,27.7800006 46.74,27.66 C46.6599996,27.5399994 46.5400008,27.48 46.38,27.48 C46.2999996,27.3599994 46.0800018,27.1800012 45.72,26.94 C45.3599982,26.6999988 44.9700021,26.4200016 44.55,26.1 C44.1299979,25.7799984 43.7600016,25.4100021 43.44,24.99 C43.1199984,24.5699979 42.96,24.1200024 42.96,23.64 C42.8399994,23.4799992 42.7100007,23.2500015 42.57,22.95 C42.4299993,22.6499985 42.3200004,22.3300017 42.24,21.99 C42.1599996,21.6499983 42.0900003,21.3500013 42.03,21.09 C41.9699997,20.8299987 41.94,20.6800002 41.94,20.64 C41.94,20.1999978 41.9100003,19.7500023 41.85,19.29 C41.7899997,18.8299977 41.76,18.3200028 41.76,17.76 C41.76,16.3199928 41.859999,14.8800072 42.06,13.44 C42.260001,11.9999928 42.5199984,10.7600052 42.84,9.72 C42.84,9.6799998 42.8300001,9.6500001 42.81,9.63 C42.7899999,9.6099999 42.78,9.5800002 42.78,9.54 C42.78,9.4199994 42.8399994,9.1800018 42.96,8.82 C43.0800006,8.4599982 43.1799996,8.28 43.26,8.28 C43.26,8.2399998 43.2500001,8.22 43.23,8.22 C43.2099999,8.22 43.2,8.1800004 43.2,8.1 C43.3200006,7.8599988 43.4499993,7.5200022 43.59,7.08 C43.7300007,6.6399978 43.9399986,6.1500027 44.22,5.61 C44.5000014,5.0699973 44.8499979,4.5100029 45.27,3.93 C45.6900021,3.3499971 46.2199968,2.7800028 46.86,2.22 C47.0200008,2.1399996 47.1099999,2.0600004 47.13,1.98 C47.1500001,1.8999996 47.259999,1.86 47.46,1.86 C47.5000002,1.86 47.5699995,1.8100005 47.67,1.71 C47.7700005,1.6099995 47.9399988,1.5000006 48.18,1.38 C48.4200012,1.2599994 48.7699977,1.1500005 49.23,1.05 C49.6900023,0.9499995 50.2799964,0.9 51,0.9 C52.0400052,0.9 52.759998,1.0399986 53.16,1.32 C53.560002,1.6000014 53.859999,1.8199992 54.06,1.98 C54.460002,2.2600014 54.9199974,2.699997 55.44,3.3 C55.9600026,3.900003 56.22,4.599996 56.22,5.4 C56.22,6.4800054 55.9900023,7.1599986 55.53,7.44 C55.0699977,7.7200014 54.6200022,7.8999996 54.18,7.98 C53.979999,7.98 53.7600012,7.9700001 53.52,7.95 C53.2799988,7.9299999 53.060001,7.820001 52.86,7.62 Z M72.66,16.5 C71.6199948,16.5 70.6900041,16.6099989 69.87,16.83 C69.0499959,17.0500011 68.1800046,17.1999996 67.26,17.28 C67.3000002,17.3200002 67.32,17.3999994 67.32,17.52 C67.32,17.5600002 67.3100001,17.6099997 67.29,17.67 C67.2699999,17.7300003 67.26,17.7999996 67.26,17.88 C67.26,18.4000026 67.2699999,18.9999966 67.29,19.68 C67.3100001,20.3600034 67.32,21.0299967 67.32,21.69 C67.32,22.3500033 67.3299999,22.9699971 67.35,23.55 C67.3700001,24.1300029 67.38,24.5999982 67.38,24.96 C67.38,25.3200018 67.3500003,25.6799982 67.29,26.04 C67.2299997,26.4000018 67.2,26.6599992 67.2,26.82 C67.2,26.8600002 67.2199998,26.88 67.26,26.88 C67.1799996,27.1200012 67.0300011,27.3199992 66.81,27.48 C66.5899989,27.6400008 66.4600002,27.72 66.42,27.72 C65.9399976,27.72 65.5400016,27.620001 65.22,27.42 C64.8999984,27.219999 64.640001,26.9900013 64.44,26.73 C64.239999,26.4699987 64.0900005,26.2300011 63.99,26.01 C63.8899995,25.7899989 63.84,25.6600002 63.84,25.62 C63.84,25.5799998 63.8499999,25.5500001 63.87,25.53 C63.8900001,25.5099999 63.9,25.4800002 63.9,25.44 C63.8599998,25.3999998 63.8300001,25.1300025 63.81,24.63 C63.7899999,24.1299975 63.7700001,23.5600032 63.75,22.92 C63.7299999,22.2799968 63.72,21.6800028 63.72,21.12 L63.72,20.04 C63.72,19.7199984 63.7299999,19.4000016 63.75,19.08 C63.7700001,18.7599984 63.8199996,18.5600004 63.9,18.48 C63.9,18.4399998 63.8800002,18.4000002 63.84,18.36 C63.7999998,18.3199998 63.78,18.2600004 63.78,18.18 C63.8200002,18.1399998 63.8599998,18.12 63.9,18.12 C63.8199996,17.9599992 63.6700011,17.8899999 63.45,17.91 C63.2299989,17.9300001 63.0800004,17.9000004 63,17.82 C62.9199996,17.82 62.8600002,17.8299999 62.82,17.85 C62.7799998,17.8700001 62.7400002,17.88 62.7,17.88 L62.34,17.52 C62.2599996,17.4399996 62.1700005,17.3600004 62.07,17.28 C61.9699995,17.1999996 61.92,17.1200004 61.92,17.04 C61.9600002,16.5999978 62.0899989,16.3700001 62.31,16.35 C62.5300011,16.3299999 62.7499989,16.3000002 62.97,16.26 C63.1900011,16.2199998 63.399999,16.0700013 63.6,15.81 C63.800001,15.5499987 63.9399996,14.9600046 64.02,14.04 C64.1000004,13.1999958 64.1599998,12.3500043 64.2,11.49 C64.2400002,10.6299957 64.3199994,9.800004 64.44,9 C64.44,8.8399992 64.4300001,8.7000006 64.41,8.58 C64.3899999,8.4599994 64.38,8.3400006 64.38,8.22 C64.38,8.0599992 64.4099997,7.9300005 64.47,7.83 C64.5300003,7.7299995 64.56,7.6000008 64.56,7.44 C64.5199998,7.3199994 64.5,7.2000006 64.5,7.08 L64.5,6.36 C64.4599998,6.0399984 64.44,5.7000018 64.44,5.34 C64.44,5.2999998 64.4499999,5.28 64.47,5.28 C64.4900001,5.28 64.5,5.2400004 64.5,5.16 C64.5,5.0799996 64.4900001,5.0499999 64.47,5.07 C64.4499999,5.0900001 64.44,4.9200018 64.44,4.56 C64.44,4.159998 64.4799996,3.7000026 64.56,3.18 C64.6400004,2.6599974 64.8599982,2.4 65.22,2.4 C65.5800018,2.4 65.959998,2.5299987 66.36,2.79 C66.760002,3.0500013 67.0199994,3.2599992 67.14,3.42 C67.14,3.4600002 67.1300001,3.4999998 67.11,3.54 C67.0899999,3.5800002 67.08,3.6399996 67.08,3.72 L67.26,3.72 C67.26,3.7600002 67.2500001,3.7899999 67.23,3.81 C67.2099999,3.8300001 67.2,3.8599998 67.2,3.9 C67.3200006,4.1400012 67.4199996,4.4799978 67.5,4.92 C67.5800004,5.3600022 67.6299999,5.8599972 67.65,6.42 C67.6700001,6.9800028 67.6899999,7.559997 67.71,8.16 C67.7300001,8.760003 67.74,9.3199974 67.74,9.84 C67.74,10.1200014 67.7000004,10.3899987 67.62,10.65 C67.5399996,10.9100013 67.5,11.0799996 67.5,11.16 C67.5,11.2000002 67.5199998,11.22 67.56,11.22 L67.68,11.28 L67.62,11.34 C67.62,11.3800002 67.6299999,11.4099999 67.65,11.43 C67.6700001,11.4500001 67.68,11.4999996 67.68,11.58 C67.5199992,12.0200022 67.4499999,12.5799966 67.47,13.26 C67.4900001,13.9400034 67.4600004,14.5599972 67.38,15.12 C68.3000046,15.12 69.2199954,14.920002 70.14,14.52 C71.0600046,14.119998 71.8999962,13.92 72.66,13.92 C72.9000012,12.8399946 73.0799994,11.6300067 73.2,10.29 C73.3200006,8.9499933 73.38,7.5200076 73.38,6 C73.38,5.6799984 73.3700001,5.3700015 73.35,5.07 C73.3299999,4.7699985 73.32,4.4600016 73.32,4.14 C73.32,3.939999 73.3599996,3.7100013 73.44,3.45 C73.5200004,3.1899987 73.56,2.960001 73.56,2.76 C73.5199998,2.76 73.5,2.7400002 73.5,2.7 L73.38,2.58 C73.38,2.4999996 73.4099997,2.4500001 73.47,2.43 C73.5300003,2.4099999 73.56,2.3800002 73.56,2.34 C73.56,2.2599996 73.5300003,2.2399998 73.47,2.28 C73.4099997,2.3200002 73.38,2.3000004 73.38,2.22 C73.38,2.0999994 73.4699991,1.9600008 73.65,1.8 C73.8300009,1.6399992 74.0399988,1.56 74.28,1.56 C74.6000016,1.56 74.9399982,1.6399992 75.3,1.8 C75.6600018,1.9600008 75.8999994,2.139999 76.02,2.34 L75.96,2.4 L75.96,2.52 C75.96,2.6000004 75.9899997,2.6300001 76.05,2.61 C76.1100003,2.5899999 76.1999994,2.6199996 76.32,2.7 C76.4000004,3.0200016 76.44,3.5299965 76.44,4.23 L76.44,6.54 C76.44,8.1800082 76.4100003,9.4299957 76.35,10.29 C76.2899997,11.1500043 76.2100005,11.879997 76.11,12.48 C76.0099995,13.080003 75.9300003,13.679997 75.87,14.28 C75.8099997,14.880003 75.78,15.7399944 75.78,16.86 C75.78,17.3000022 75.7999998,17.7399978 75.84,18.18 C75.8800002,18.6200022 75.9,19.0199982 75.9,19.38 C75.8599998,19.7000016 75.8300001,20.0499981 75.81,20.43 C75.7899999,20.8100019 75.78,21.199998 75.78,21.6 C75.78,22.1200026 75.7999998,22.6499973 75.84,23.19 C75.8800002,23.7300027 75.9,24.2599974 75.9,24.78 C75.8199996,24.9400008 75.78,25.0599996 75.78,25.14 C75.78,25.3000008 75.7700001,25.5299985 75.75,25.83 C75.7299999,26.1300015 75.6700005,26.4299985 75.57,26.73 C75.4699995,27.0300015 75.3300009,27.2899989 75.15,27.51 C74.9699991,27.7300011 74.7400014,27.84 74.46,27.84 C74.3799996,27.84 74.3000004,27.8000004 74.22,27.72 C74.22,27.8000004 74.1600006,27.84 74.04,27.84 C73.6799982,27.84 73.400001,27.7800006 73.2,27.66 C72.999999,27.5399994 72.8600004,27.4100007 72.78,27.27 C72.6999996,27.1299993 72.6500001,26.9900007 72.63,26.85 C72.6099999,26.7099993 72.6,26.6200002 72.6,26.58 C72.5599998,26.58 72.54,26.6399994 72.54,26.76 C72.4999998,26.6399994 72.48,26.4000018 72.48,26.04 C72.48,25.8799992 72.4899999,25.6300017 72.51,25.29 C72.5300001,24.9499983 72.5499999,24.6200016 72.57,24.3 C72.5900001,23.9799984 72.6099999,23.6900013 72.63,23.43 C72.6500001,23.1699987 72.66,23.0200002 72.66,22.98 C72.66,22.4199972 72.6400002,21.8200032 72.6,21.18 C72.5599998,20.5399968 72.54,19.8800034 72.54,19.2 C72.54,18.7599978 72.5499999,18.3100023 72.57,17.85 C72.5900001,17.3899977 72.6199998,16.9400022 72.66,16.5 Z M83.64,6.6 C83.9200014,6.399999 84.1799988,6.3 84.42,6.3 C84.6600012,6.3 84.8399994,6.3199998 84.96,6.36 C85.3200018,5.9999982 85.6299987,5.6800014 85.89,5.4 C86.1500013,5.1199986 86.4199986,4.880001 86.7,4.68 C86.9800014,4.479999 87.3099981,4.3300005 87.69,4.23 C88.0700019,4.1299995 88.5399972,4.08 89.1,4.08 C89.4600018,4.08 89.8599978,4.2399984 90.3,4.56 C90.7400022,4.8800016 91.159998,5.2299981 91.56,5.61 C91.960002,5.9900019 92.3099985,6.3499983 92.61,6.69 C92.9100015,7.0300017 93.06,7.2199998 93.06,7.26 C93.3800016,7.5800016 93.6199992,8.0299971 93.78,8.61 C93.9400008,9.1900029 94.0999992,9.6399984 94.26,9.96 C94.26,10.0000002 94.2500001,10.0299999 94.23,10.05 C94.2099999,10.0700001 94.2,10.1199996 94.2,10.2 C94.3200006,10.4800014 94.4299995,10.8999972 94.53,11.46 C94.6300005,12.0200028 94.7099997,12.6099969 94.77,13.23 C94.8300003,13.8500031 94.8799998,14.459997 94.92,15.06 C94.9600002,15.660003 94.98,16.1399982 94.98,16.5 L94.86,17.22 C94.7799996,17.7000024 94.7000004,18.2499969 94.62,18.87 C94.5399996,19.4900031 94.4700003,20.0699973 94.41,20.61 C94.3499997,21.1500027 94.32,21.4599996 94.32,21.54 L94.26,21.48 L94.26,21.84 C94.26,22.0000008 94.2400002,22.08 94.2,22.08 C94.1599998,22.08 94.14,22.0600002 94.14,22.02 L94.14,21.96 C93.6199974,23.2400064 93.2500011,24.1499973 93.03,24.69 C92.8099989,25.2300027 92.6400006,25.599999 92.52,25.8 C92.3999994,26.000001 92.2800006,26.1299997 92.16,26.19 C92.0399994,26.2500003 91.8200016,26.4399984 91.5,26.76 C91.299999,26.76 91.0900011,26.859999 90.87,27.06 C90.6499989,27.260001 90.1600038,27.36 89.4,27.36 C89.0799984,27.36 88.6800024,27.2900007 88.2,27.15 C87.7199976,27.0099993 87.2600022,26.8300011 86.82,26.61 C86.3799978,26.3899989 86.0000016,26.1400014 85.68,25.86 C85.3599984,25.5799986 85.2,25.2800016 85.2,24.96 C85.2,24.6399984 85.0200018,24.2700021 84.66,23.85 C84.2999982,23.4299979 84.12,23.1800004 84.12,23.1 L84.18,23.16 C84.18,22.959999 84.1200006,22.7000016 84,22.38 C83.8799994,22.0599984 83.7600006,21.7300017 83.64,21.39 L83.28,20.37 C83.1599994,20.0299983 83.1,19.7400012 83.1,19.5 C83.1,19.4599998 83.0800002,19.2500019 83.04,18.87 C82.9999998,18.4899981 82.9600002,18.0200028 82.92,17.46 C82.8799998,16.8999972 82.8400002,16.3100031 82.8,15.69 C82.7599998,15.0699969 82.74,14.4800028 82.74,13.92 C82.7800002,13.5599982 82.8099999,13.2000018 82.83,12.84 C82.8500001,12.4799982 82.8799998,12.1400016 82.92,11.82 C82.92,11.7399996 82.9100001,11.6700003 82.89,11.61 C82.8699999,11.5499997 82.86,11.4600006 82.86,11.34 C82.86,11.2199994 82.8799998,11.1300003 82.92,11.07 C82.9600002,11.0099997 82.98,10.880001 82.98,10.68 C82.98,10.5999996 82.9700001,10.5300003 82.95,10.47 C82.9299999,10.4099997 82.92,10.3400004 82.92,10.26 C82.92,10.0999992 82.9399998,9.8500017 82.98,9.51 C83.0200002,9.1699983 83.0699997,8.8100019 83.13,8.43 C83.1900003,8.0499981 83.2699995,7.6900017 83.37,7.35 C83.4700005,7.0099983 83.5599996,6.7600008 83.64,6.6 Z M88.5,23.94 C88.9800024,23.7799992 89.4099981,23.4300027 89.79,22.89 C90.1700019,22.3499973 90.4799988,21.7700031 90.72,21.15 C90.9600012,20.5299969 91.1399994,19.9600026 91.26,19.44 C91.3800006,18.9199974 91.44,18.6200004 91.44,18.54 L91.38,18.6 C91.6200012,17.2799934 91.74,15.9400068 91.74,14.58 C91.74,14.2599984 91.7200002,13.8900021 91.68,13.47 C91.6399998,13.0499979 91.6100001,12.6500019 91.59,12.27 C91.5699999,11.8899981 91.5400002,11.5600014 91.5,11.28 C91.4599998,10.9999986 91.44,10.8200004 91.44,10.74 C91.44,10.6599996 91.4499999,10.5800004 91.47,10.5 C91.4900001,10.4199996 91.5,10.3400004 91.5,10.26 C91.5,9.659997 91.4300007,9.1700019 91.29,8.79 C91.1499993,8.4099981 90.9900009,8.1000012 90.81,7.86 C90.6299991,7.6199988 90.4800006,7.4600004 90.36,7.38 L90.18,7.26 C90.0999996,7.26 90.06,7.2500001 90.06,7.23 C90.06,7.2099999 90.0200004,7.2 89.94,7.2 C89.4599976,7.2 89.0300019,7.3099989 88.65,7.53 C88.2699981,7.7500011 87.9400014,7.9999986 87.66,8.28 C87.3799986,8.5600014 87.1600008,8.8099989 87,9.03 C86.8399992,9.2500011 86.7400002,9.36 86.7,9.36 L86.7,9.3 C86.7,9.3800004 86.6600004,9.42 86.58,9.42 L86.52,9.42 C86.4399996,9.6600012 86.3700003,9.9899979 86.31,10.41 C86.2499997,10.8300021 86.2100001,11.2599978 86.19,11.7 C86.1699999,12.1400022 86.16,12.5399982 86.16,12.9 L86.16,13.56 C86.1199998,13.8400014 86.1,14.1199986 86.1,14.4 L86.1,15.3 C86.1,16.300005 86.1399996,17.2799952 86.22,18.24 C86.3000004,19.2000048 86.4099993,20.0899959 86.55,20.91 C86.6900007,21.7300041 86.8699989,22.4299971 87.09,23.01 C87.3100011,23.5900029 87.5599986,23.9999988 87.84,24.24 C87.9200004,24.1199994 88.0199994,24.0500001 88.14,24.03 C88.2600006,24.0099999 88.3799994,23.9800002 88.5,23.94 Z M104.94,25.14 C105.420002,25.340001 106.019996,25.44 106.74,25.44 C107.460004,25.44 108.149997,25.4799996 108.81,25.56 C109.470003,25.6400004 110.029998,25.8199986 110.49,26.1 C110.950002,26.3800014 111.18,26.8999962 111.18,27.66 C111.18,27.9000012 111.090001,28.0599996 110.91,28.14 C110.729999,28.2200004 110.6,28.26 110.52,28.26 C109.159993,28.26 107.840006,28.3099995 106.56,28.41 C105.279994,28.5100005 104.400002,28.56 103.92,28.56 C103.719999,28.56 103.62,28.5400002 103.62,28.5 C103.259998,28.2599988 102.950001,28.1300001 102.69,28.11 C102.429999,28.0899999 102.210001,28.0400004 102.03,27.96 C101.849999,27.8799996 101.710001,27.7100013 101.61,27.45 C101.51,27.1899987 101.46,26.7200034 101.46,26.04 C101.46,25.9199994 101.48,25.8400002 101.52,25.8 C101.44,25.7199996 101.38,25.3000038 101.34,24.54 C101.3,23.7799962 101.28,22.8800052 101.28,21.84 C101.28,20.039991 101.29,18.5000064 101.31,17.22 C101.33,15.9399936 101.35,14.8200048 101.37,13.86 C101.39,12.8999952 101.42,12.0500037 101.46,11.31 C101.5,10.5699963 101.55,9.8200038 101.61,9.06 C101.67,8.2999962 101.74,7.4900043 101.82,6.63 C101.9,5.7699957 101.999999,4.740006 102.12,3.54 C102.16,3.4599996 102.21,3.3800004 102.27,3.3 C102.33,3.2199996 102.36,3.1200006 102.36,3 C102.36,2.799999 102.34,2.7 102.3,2.7 C102.26,2.7 102.24,2.6600004 102.24,2.58 C102.24,2.4599994 102.28,2.3400006 102.36,2.22 C102.36,2.1399996 102.34,2.0900001 102.3,2.07 C102.26,2.0499999 102.24,2.0000004 102.24,1.92 C102.32,1.7599992 102.439999,1.6000008 102.6,1.44 C102.68,1.3199994 102.789999,1.2000006 102.93,1.08 C103.070001,0.9599994 103.199999,0.9 103.32,0.9 C104.240005,0.9 104.819999,1.2399966 105.06,1.92 C105.300001,2.6000034 105.42,3.4199952 105.42,4.38 C105.34,5.2200042 105.25,6.0299961 105.15,6.81 C105.049999,7.5900039 104.950001,8.3899959 104.85,9.21 C104.75,10.0300041 104.67,10.9299951 104.61,11.91 C104.55,12.8900049 104.52,14.0199936 104.52,15.3 L104.52,17.19 C104.52,18.1700049 104.54,19.2099945 104.58,20.31 C104.62,21.4100055 104.66,22.4299953 104.7,23.37 C104.74,24.3100047 104.819999,24.8999988 104.94,25.14 Z M129.6,30.36 C129.439999,30.4000002 129.300001,30.4299999 129.18,30.45 C129.059999,30.4700001 128.940001,30.48 128.82,30.48 C128.659999,30.48 128.460001,30.4400004 128.22,30.36 C128.18,30.4000002 128.14,30.42 128.1,30.42 C127.579997,30.42 127.180001,30.2700015 126.9,29.97 C126.619999,29.6699985 126.46,29.4800004 126.42,29.4 L126.42,29.28 C126.42,29.2399998 126.44,29.22 126.48,29.22 C126.319999,29.0999994 126.180001,28.7700027 126.06,28.23 C125.939999,27.6899973 125.83,27.0500037 125.73,26.31 C125.629999,25.5699963 125.54,24.800004 125.46,24 C125.38,23.199996 125.280001,22.4800032 125.16,21.84 C124.439996,21.84 123.710004,21.8200002 122.97,21.78 C122.229996,21.7399998 121.520003,21.72 120.84,21.72 C120.239997,21.72 119.670003,21.7899993 119.13,21.93 C118.589997,22.0700007 118.100002,22.14 117.66,22.14 C117.62,22.0999998 117.58,22.08 117.54,22.08 C117.54,22.3600014 117.400001,22.5 117.12,22.5 L116.73,22.5 C116.589999,22.5 116.5,22.4800002 116.46,22.44 C116.38,22.8000018 116.280001,23.2399974 116.16,23.76 L115.8,25.32 C115.679999,25.8400026 115.57,26.2799982 115.47,26.64 C115.37,27.0000018 115.28,27.18 115.2,27.18 C115.16,27.18 115.13,27.1700001 115.11,27.15 C115.09,27.1299999 115.06,27.12 115.02,27.12 C114.98,27.12 114.97,27.1599996 114.99,27.24 C115.01,27.3200004 114.900001,27.36 114.66,27.36 C114.019997,27.36 113.600001,27.1400022 113.4,26.7 C113.239999,26.5399992 113.16,26.3200014 113.16,26.04 C113.16,25.3199964 113.229999,24.6200034 113.37,23.94 C113.510001,23.2599966 113.649999,22.6300029 113.79,22.05 C113.930001,21.4699971 114.069999,20.980002 114.21,20.58 C114.350001,20.179998 114.42,19.9000008 114.42,19.74 C114.42,19.6599996 114.4,19.62 114.36,19.62 C114.4,19.62 114.42,19.6599996 114.42,19.74 C114.42,19.4599986 114.47,19.1500017 114.57,18.81 C114.670001,18.4699983 114.779999,18.1600014 114.9,17.88 C114.86,17.88 114.84,17.8000008 114.84,17.64 C114.84,17.239998 114.899999,16.7700027 115.02,16.23 C115.140001,15.6899973 115.289999,15.1800024 115.47,14.7 C115.650001,14.2199976 115.809999,13.8200016 115.95,13.5 C116.090001,13.1799984 116.2,13.02 116.28,13.02 L116.28,13.08 C116.28,12.9599994 116.329999,12.7600014 116.43,12.48 L116.73,11.64 C116.830001,11.3599986 116.93,11.1100011 117.03,10.89 L117.18,10.56 C118.060004,8.6399904 118.639999,7.2300045 118.92,6.33 C119.200001,5.4299955 119.38,4.98 119.46,4.98 C119.5,4.98 119.52,4.9999998 119.52,5.04 C119.52,4.9599996 119.589999,4.7900013 119.73,4.53 C119.870001,4.2699987 120.019999,4.0000014 120.18,3.72 C120.340001,3.4399986 120.489999,3.1800012 120.63,2.94 C120.770001,2.6999988 120.88,2.58 120.96,2.58 C120.96,2.5399998 120.95,2.5100001 120.93,2.49 C120.91,2.4699999 120.9,2.4400002 120.9,2.4 C120.9,2.3199996 120.959999,2.2600002 121.08,2.22 C121.200001,2.1799998 121.26,2.1200004 121.26,2.04 C121.22,1.9999998 121.2,1.9400004 121.2,1.86 C121.520002,1.6199988 121.849998,1.2500025 122.19,0.75 C122.530002,0.2499975 122.979997,0 123.54,0 C123.780001,0 124.029999,0.0499995 124.29,0.15 C124.550001,0.2500005 124.779999,0.3399996 124.98,0.42 C125.220001,0.5800008 125.459999,0.7199994 125.7,0.84 C126.020002,0.84 126.299999,1.1499969 126.54,1.77 C126.780001,2.3900031 126.989999,3.1899951 127.17,4.17 C127.350001,5.1500049 127.499999,6.2499939 127.62,7.47 C127.740001,8.6900061 127.849999,9.8699943 127.95,11.01 C128.050001,12.1500057 128.14,13.2099951 128.22,14.19 C128.3,15.1700049 128.399999,15.9199974 128.52,16.44 L128.46,16.44 C128.42,16.44 128.4,16.4599998 128.4,16.5 C128.48,17.7800064 128.579999,18.7099971 128.7,19.29 L129.06,21.03 C129.180001,21.6100029 129.309999,22.3799952 129.45,23.34 C129.590001,24.3000048 129.739999,25.7999898 129.9,27.84 L129.9,29.61 C129.9,30.1100025 129.800001,30.36 129.6,30.36 Z M123.42,4.56 C122.899997,5.0400024 122.560001,5.5399974 122.4,6.06 C122.239999,6.5800026 121.940002,7.0799976 121.5,7.56 C121.059998,8.6000052 120.650002,9.5599956 120.27,10.44 C119.889998,11.3200044 119.550002,12.1799958 119.25,13.02 C118.949998,13.8600042 118.660001,14.7099957 118.38,15.57 C118.099999,16.4300043 117.840001,17.3399952 117.6,18.3 C117.399999,18.6600018 117.27,18.9599988 117.21,19.2 C117.15,19.4400012 117.12,19.5400002 117.12,19.5 C117.12,19.5400002 117.13,19.5699999 117.15,19.59 C117.17,19.6100001 117.18,19.6399998 117.18,19.68 C117.059999,19.8000006 117,19.9999986 117,20.28 C117,20.3200002 117.04,20.3799996 117.12,20.46 C117.12,20.4199998 117.219999,20.3800002 117.42,20.34 C117.620001,20.2999998 117.869999,20.2600002 118.17,20.22 C118.470001,20.1799998 118.779998,20.16 119.1,20.16 L119.88,20.16 C120.760004,20.16 121.629996,20.1799998 122.49,20.22 C123.350004,20.2600002 124.179996,20.2999998 124.98,20.34 C124.659998,17.8599876 124.440001,15.4600116 124.32,13.14 C124.199999,10.8199884 124.040001,8.3800128 123.84,5.82 C123.8,5.5399986 123.77,5.2700013 123.75,5.01 C123.73,4.7499987 123.72,4.4600016 123.72,4.14 C123.64,4.1800002 123.58,4.2399996 123.54,4.32 L123.42,4.56 Z M148.44,3.66 C147.719996,4.0200018 146.750006,4.2899991 145.53,4.47 C144.309994,4.6500009 142.960007,4.839999 141.48,5.04 L141.36,5.16 C141.36,5.2400004 141.4,5.3199996 141.48,5.4 C141.56,5.4800004 141.6,5.5799994 141.6,5.7 L141.48,5.82 C141.600001,5.9400006 141.66,6.2599974 141.66,6.78 C141.66,8.2600074 141.600001,10.0799892 141.48,12.24 C141.359999,14.4000108 141.3,16.5999888 141.3,18.84 C141.22,19.6000038 141.18,20.5599942 141.18,21.72 C141.18,22.8800058 141.16,24.0299943 141.12,25.17 C141.08,26.3100057 141.01,27.3199956 140.91,28.2 C140.81,29.0800044 140.640001,29.6399988 140.4,29.88 C139.679996,29.88 139.120002,29.7200016 138.72,29.4 C138.319998,29.0799984 138.030001,28.7300019 137.85,28.35 C137.669999,27.9699981 137.56,27.6300015 137.52,27.33 C137.48,27.0299985 137.46,26.8999998 137.46,26.94 C137.46,26.6199984 137.49,26.3100015 137.55,26.01 C137.61,25.7099985 137.66,25.4000016 137.7,25.08 C137.7,24.9199992 137.69,24.7700007 137.67,24.63 C137.65,24.4899993 137.64,24.3600006 137.64,24.24 C137.64,23.1199944 137.68,21.7300083 137.76,20.07 C137.84,18.4099917 137.93,16.6900089 138.03,14.91 C138.13,13.1299911 138.229999,11.4100083 138.33,9.75 C138.43,8.0899917 138.52,6.6800058 138.6,5.52 C138.56,5.4799998 138.5,5.46 138.42,5.46 C138.219999,5.46 138.030001,5.4699999 137.85,5.49 C137.669999,5.5100001 137.480001,5.52 137.28,5.52 C137.24,5.52 137.070001,5.5699995 136.77,5.67 C136.469999,5.7700005 136.120002,5.8799994 135.72,6 C135.319998,6.1200006 134.940002,6.2299995 134.58,6.33 C134.219998,6.4300005 133.960001,6.48 133.8,6.48 C133.72,6.3999996 133.500002,6.2500011 133.14,6.03 C132.779998,5.8099989 132.6,5.3800032 132.6,4.74 C132.6,4.0599966 133.109995,3.5300019 134.13,3.15 C135.150005,2.7699981 136.379993,2.4700011 137.82,2.25 C139.260007,2.0299989 140.769992,1.8300009 142.35,1.65 C143.930008,1.4699991 145.299994,1.2600012 146.46,1.02 C146.860002,1.02 147.169999,1.0799994 147.39,1.2 C147.610001,1.3200006 147.779999,1.4599992 147.9,1.62 C148.020001,1.7800008 148.1,1.9299993 148.14,2.07 C148.18,2.2100007 148.2,2.2999998 148.2,2.34 L148.2,2.1 C148.2,2.3400012 148.24,2.5199994 148.32,2.64 C148.4,2.7600006 148.44,3.0999972 148.44,3.66 Z M165.660009,6.60075165 C165.548345,6.60341629 165.408343,6.61316568 165.24,6.63 C165.039999,6.6500001 164.840001,6.66 164.64,6.66 C164.439999,6.66 164.32,6.6400002 164.28,6.6 L159.6,6.6 C159.239998,6.6 158.990001,6.6599994 158.85,6.78 C158.709999,6.9000006 158.59,7.2099975 158.49,7.71 C158.389999,8.2100025 158.260001,8.9499951 158.1,9.93 C157.939999,10.9100049 157.640002,12.2599914 157.2,13.98 C157.520002,13.9399998 157.919998,13.9000002 158.4,13.86 C158.880002,13.8199998 159.349998,13.7800002 159.81,13.74 C160.270002,13.6999998 160.689998,13.6600002 161.07,13.62 C161.450002,13.5799998 161.699999,13.56 161.82,13.56 C161.9,13.56 161.98,13.5799998 162.06,13.62 C162.14,13.6600002 162.22,13.68 162.3,13.68 C162.34,13.68 162.37,13.6700001 162.39,13.65 C162.41,13.6299999 162.44,13.62 162.48,13.62 C162.680001,13.7800008 162.999998,13.9799988 163.44,14.22 C163.880002,14.4600012 164.1,14.7999978 164.1,15.24 C164.1,15.640002 163.800003,15.9299991 163.2,16.11 C162.599997,16.2900009 161.900004,16.4199996 161.1,16.5 C160.299996,16.5800004 159.510004,16.6499997 158.73,16.71 C157.949996,16.7700003 157.400002,16.8799992 157.08,17.04 C156.879999,17.240001 156.74,17.639997 156.66,18.24 C156.58,18.840003 156.54,19.3999974 156.54,19.92 L156.54,20.88 C156.54,21.0400008 156.56,21.1599996 156.6,21.24 L156.6,21.18 C156.6,21.5400018 156.62,21.9699975 156.66,22.47 C156.7,22.9700025 156.74,23.4599976 156.78,23.94 C157.340003,23.94 157.899997,23.8900005 158.46,23.79 C159.020003,23.6899995 159.579997,23.6200002 160.14,23.58 L160.65,23.46 C160.990002,23.3799996 161.409998,23.3000004 161.91,23.22 C162.410002,23.1399996 162.959997,23.0600004 163.56,22.98 C164.160003,22.8999996 164.719997,22.86 165.24,22.86 C165.880003,22.86 166.329999,22.959999 166.59,23.16 C166.850001,23.360001 167.039999,23.5699989 167.16,23.79 C167.280001,24.0100011 167.399999,24.219999 167.52,24.42 C167.640001,24.620001 167.879998,24.72 168.24,24.72 C168.24,24.7600002 168.23,24.8299995 168.21,24.93 C168.19,25.0300005 168.18,25.1399994 168.18,25.26 C168.18,25.3400004 168.21,25.4099997 168.27,25.47 C168.33,25.5300003 168.36,25.5799998 168.36,25.62 C167.999998,26.020002 167.390004,26.319999 166.53,26.52 C165.669996,26.720001 164.780005,26.8699995 163.86,26.97 C162.939995,27.0700005 162.080004,27.12 161.28,27.12 C160.479996,27.12 159.960001,27.1399998 159.72,27.18 C159.64,27.2200002 159.57,27.2599998 159.51,27.3 C159.45,27.3400002 159.340001,27.36 159.18,27.36 C158.619997,27.36 158.050003,27.2800008 157.47,27.12 C156.889997,26.9599992 156.6,26.8200006 156.6,26.7 C156.56,26.7 156.52,26.7099999 156.48,26.73 C156.44,26.7500001 156.38,26.76 156.3,26.76 C156.26,26.76 156.090001,26.6500011 155.79,26.43 C155.489999,26.2099989 155.170002,25.9500015 154.83,25.65 C154.489998,25.3499985 154.180001,25.0600014 153.9,24.78 C153.619999,24.4999986 153.48,24.3000006 153.48,24.18 C153.48,24.0199992 153.420001,23.8300011 153.3,23.61 C153.179999,23.3899989 153.060001,23.1100017 152.94,22.77 C152.819999,22.4299983 152.700001,22.0100025 152.58,21.51 C152.459999,21.0099975 152.4,20.4200034 152.4,19.74 C152.4,18.7799952 152.459999,17.800005 152.58,16.8 C152.700001,15.799995 152.839999,14.8700043 153,14.01 C153.160001,13.1499957 153.309999,12.4100031 153.45,11.79 C153.590001,11.1699969 153.68,10.7800008 153.72,10.62 C153.72,10.5799998 153.73,10.4400012 153.75,10.2 C153.77,9.9599988 153.81,9.6800016 153.87,9.36 C153.93,9.0399984 154.009999,8.7200016 154.11,8.4 C154.21,8.0799984 154.339999,7.820001 154.5,7.62 C154.42,7.5799998 154.260001,7.5200004 154.02,7.44 C153.779999,7.3599996 153.510001,7.2500007 153.21,7.11 C152.909998,6.9699993 152.650001,6.800001 152.43,6.6 C152.209999,6.399999 152.1,6.1400016 152.1,5.82 C152.1,5.619999 152.469996,5.420001 153.21,5.22 C153.950004,5.019999 154.859995,4.8300009 155.94,4.65 C157.020005,4.4699991 158.189994,4.3200006 159.45,4.2 C160.710006,4.0799994 161.879995,4.02 162.96,4.02 C163.800004,4.02 164.459998,4.0699995 164.94,4.17 C165.420002,4.2700005 165.799999,4.3799994 166.08,4.5 C166.400002,4.6600008 166.619999,4.7999994 166.74,4.92 C166.66,4.92 166.62,4.9799994 166.62,5.1 C166.62,5.1800004 166.63,5.2899993 166.65,5.43 C166.67,5.5700007 166.68,5.6799996 166.68,5.76 C166.68,6.160002 166.590001,6.4099995 166.41,6.51 C166.229999,6.6100005 166.060001,6.66 165.9,6.66 C165.741005,6.66 165.661009,6.64025075 165.660009,6.60075165 L165.660009,6.60075165 Z" id="path-1"></path>
        <filter x="-1.2%" y="-3.3%" width="101.8%" height="113.1%" filterUnits="objectBoundingBox" id="filter-2">
            <feOffset dx="-1" dy="2" in="SourceAlpha" result="shadowOffsetOuter1"></feOffset>
            <feColorMatrix values="0 0 0 0 0.68627451   0 0 0 0 0.521568627   0 0 0 0 0.439215686  0 0 0 1 0" type="matrix" in="shadowOffsetOuter1"></feColorMatrix>
        </filter>
    </defs>
    <g id="Symbols" stroke="none" stroke-width="1" fill="none" fill-rule="evenodd">
        <g id="Header" transform="translate(-32.000000, -18.000000)">
            <g transform="translate(30.000000, 18.000000)" id="COCHOLATE-Copy-6">
                <g>
                    <use fill="black" fill-opacity="1" filter="url(#filter-2)" xlink:href="#path-1"></use>
                    <use fill="#FFFFFF" fill-rule="evenodd" xlink:href="#path-1"></use>
                </g>
            </g>
        </g>
    </g>
</svg>