<?xml version="1.0" standalone="no"?>
<!DOCTYPE svg PUBLIC "-//W3C//DTD SVG 20010904//EN"
 "http://www.w3.org/TR/2001/REC-SVG-20010904/DTD/svg10.dtd">
<svg version="1.0" xmlns="http://www.w3.org/2000/svg"
 width="310.000000pt" height="310.000000pt" viewBox="0 0 310.000000 310.000000"
 preserveAspectRatio="xMidYMid meet">
<metadata>
Created by potrace 1.11, written by Peter Selinger 2001-2013
</metadata>
<g transform="translate(0.000000,310.000000) scale(0.100000,-0.100000)"
fill="#000000" stroke="none">
<path d="M0 1550 l0 -1550 1550 0 1550 0 0 1550 0 1550 -1550 0 -1550 0 0
-1550z m1959 1086 c101 -68 194 -171 216 -242 21 -68 16 -168 -12 -215 -23
-38 -107 -79 -164 -79 -44 0 -89 29 -89 56 0 7 23 36 50 63 48 48 50 52 50
106 0 68 -28 127 -73 156 -45 28 -143 21 -224 -17 -71 -34 -167 -123 -199
-186 -13 -25 -35 -63 -48 -82 -27 -40 -55 -122 -80 -236 -10 -41 -21 -93 -27
-115 -28 -122 -68 -435 -75 -604 -8 -170 8 -352 38 -444 25 -79 69 -132 157
-192 69 -47 72 -48 109 -37 22 7 57 27 80 44 39 32 112 119 112 134 0 4 6 15
14 23 23 26 131 241 150 299 10 29 16 59 13 66 -3 8 6 49 19 92 14 43 23 88
20 100 -16 62 88 70 158 12 76 -62 87 -159 35 -312 -17 -50 -35 -117 -39 -149
-22 -149 -235 -453 -365 -519 -77 -40 -255 -11 -367 59 -21 13 -42 23 -47 23
-5 0 -11 4 -13 8 -1 4 -46 40 -98 78 -110 82 -157 135 -175 202 -7 26 -23 69
-35 97 -13 27 -31 82 -41 121 -24 96 -34 371 -20 534 15 167 50 385 67 412 4
5 10 35 14 66 7 51 15 80 41 147 4 11 19 52 33 90 60 162 222 377 316 419 8 3
29 15 46 25 17 10 55 24 85 30 30 6 63 13 74 15 11 3 66 3 122 2 l102 -4 70
-46z"/>
</g>
</svg>
